<?xml version="1.0" encoding="UTF-8"?>
<svg version="1.1" xmlns="http://www.w3.org/2000/svg" width="32" height="32">
<path d="M0 0 C10.56 0 21.12 0 32 0 C32 10.56 32 21.12 32 32 C21.44 32 10.88 32 0 32 C0 21.44 0 10.88 0 0 Z " fill="#F9F7F9" transform="translate(0,0)"/>
<path d="M0 0 C0.76828125 -0.03738281 1.5365625 -0.07476562 2.328125 -0.11328125 C5.90796151 0.5160771 7.36052251 1.56187126 9.75 4.3125 C10.35709112 7.41904622 10.22245703 10.41257694 10.0625 13.5625 C10.03994141 14.40296875 10.01738281 15.2434375 9.99414062 16.109375 C9.93537714 18.17784964 9.84569885 20.24540488 9.75 22.3125 C4.9958448 24.40030361 0.90423418 25.24526253 -4.25 24.3125 C-7.38305927 21.71435329 -8.12557382 20.20125841 -8.6875 16.1875 C-8.25 13.3125 -8.25 13.3125 -6.9375 11.5 C-4.03320998 9.45624036 -1.49904977 9.19366312 1.9375 9.25 C3.8246875 9.2809375 3.8246875 9.2809375 5.75 9.3125 C5.09 7.9925 4.43 6.6725 3.75 5.3125 C0.45 5.3125 -2.85 5.3125 -6.25 5.3125 C-4.97961187 0.2309475 -4.87286608 0.15328552 0 0 Z " fill="#A870AB" transform="translate(15.25,3.6875)"/>
<path d="M0 0 C-0.33 0.556875 -0.66 1.11375 -1 1.6875 C-2.1309601 4.30284522 -2.15662974 6.1806646 -2 9 C0.97 9.495 0.97 9.495 4 10 C3.34 11.32 2.68 12.64 2 14 C-0.75 14.3125 -0.75 14.3125 -4 14 C-6.93558002 11.3734284 -7.89023229 9.78405505 -8.4375 5.875 C-8 3 -8 3 -6.8125 1.125 C-4.43963721 -0.34781139 -2.74086056 -0.22223194 0 0 Z " fill="#3678B0" transform="translate(15,14)"/>
<path d="M0 0 C0.99 0.66 1.98 1.32 3 2 C3.34057617 3.87939453 3.34057617 3.87939453 3.29296875 6.1328125 C3.28330078 6.93847656 3.27363281 7.74414062 3.26367188 8.57421875 C3.23853516 9.41597656 3.21339844 10.25773437 3.1875 11.125 C3.17396484 11.97449219 3.16042969 12.82398438 3.14648438 13.69921875 C3.11108219 15.79974837 3.05727401 17.89995293 3 20 C-1.625 22.125 -1.625 22.125 -5 21 C-4.34 19.68 -3.68 18.36 -3 17 C-2.34 17 -1.68 17 -1 17 C-1.185625 15.700625 -1.37125 14.40125 -1.5625 13.0625 C-1.87890625 10.84765625 -1.87890625 10.84765625 -2 9 C-1.67 8.67 -1.34 8.34 -1 8 C-0.76924918 6.65252916 -0.58846937 5.29622435 -0.4375 3.9375 C-0.293125 2.638125 -0.14875 1.33875 0 0 Z " fill="#B04A7C" transform="translate(22,6)"/>
<path d="M0 0 C2.05078125 0.03255208 4.1015625 0.06510417 6.15234375 0.09765625 C6.15234375 2.07765625 6.15234375 4.05765625 6.15234375 6.09765625 C3.41987027 7.46389299 1.17035473 7.22608225 -1.84765625 7.09765625 C-2.84765625 6.09765625 -2.84765625 6.09765625 -2.97265625 3.59765625 C-2.80017347 0.14800071 -2.80017347 0.14800071 0 0 Z " fill="#EEEAF4" transform="translate(14.84765625,16.90234375)"/>
<path d="M0 0 C-0.309375 0.5775 -0.61875 1.155 -0.9375 1.75 C-1.92583364 3.84294184 -2.5168613 5.74535275 -3 8 C-3.66 8 -4.32 8 -5 8 C-5.33 6.68 -5.66 5.36 -6 4 C-6.33 5.65 -6.66 7.3 -7 9 C-7.33 9 -7.66 9 -8 9 C-8.36190476 3.57142857 -8.36190476 3.57142857 -6.8125 1.125 C-4.43963721 -0.34781139 -2.74086056 -0.22223194 0 0 Z " fill="#5483B9" transform="translate(15,14)"/>
<path d="M0 0 C1.23556641 0.01740234 1.23556641 0.01740234 2.49609375 0.03515625 C3.32238281 0.04417969 4.14867187 0.05320313 5 0.0625 C5.63808594 0.07410156 6.27617187 0.08570313 6.93359375 0.09765625 C6.93359375 0.42765625 6.93359375 0.75765625 6.93359375 1.09765625 C4.95359375 1.09765625 2.97359375 1.09765625 0.93359375 1.09765625 C0.60359375 2.41765625 0.27359375 3.73765625 -0.06640625 5.09765625 C-1.38640625 5.09765625 -2.70640625 5.09765625 -4.06640625 5.09765625 C-2.94676868 0.13926128 -2.94676868 0.13926128 0 0 Z " fill="#667FB9" transform="translate(13.06640625,3.90234375)"/>
<path d="M0 0 C1.98 0 3.96 0 6 0 C5.34 1.32 4.68 2.64 4 4 C2.02 4 0.04 4 -2 4 C-2.33 3.34 -2.66 2.68 -3 2 C-2.01 2 -1.02 2 0 2 C0 1.34 0 0.68 0 0 Z " fill="#746EB1" transform="translate(13,24)"/>
<path d="M0 0 C0.33 0 0.66 0 1 0 C1 2.97 1 5.94 1 9 C-0.65 9.33 -2.3 9.66 -4 10 C-3.34 8.35 -2.68 6.7 -2 5 C-1.34 5 -0.68 5 0 5 C0 3.35 0 1.7 0 0 Z " fill="#A0599E" transform="translate(21,18)"/>
<path d="M0 0 C2.64 0 5.28 0 8 0 C7.67 0.99 7.34 1.98 7 3 C4.69 3 2.38 3 0 3 C0 2.01 0 1.02 0 0 Z " fill="#7F529F" transform="translate(14,5)"/>
<path d="M0 0 C1.98 0 3.96 0 6 0 C5.67 0.99 5.34 1.98 5 3 C3.02 3 1.04 3 -1 3 C-0.67 2.01 -0.34 1.02 0 0 Z " fill="#8155A2" transform="translate(15,14)"/>
</svg>
