<?xml version="1.0" encoding="UTF-8"?>
<svg version="1.1" xmlns="http://www.w3.org/2000/svg" width="252" height="48">
<path d="M0 0 C0.33 1.98 0.66 3.96 1 6 C1.94875 5.195625 2.8975 4.39125 3.875 3.5625 C8.9467482 -0.73746043 13.4858871 -0.50603984 20 0 C23.66249679 1.24263284 25.36465663 2.23320627 27.8125 5.1875 C30.06105424 10.51302321 30.53338572 14.31562405 28.8125 19.75 C26.44595507 23.99345987 24.65562496 26.44812501 20 28 C14.6767039 28.50976619 10.34105196 28.67052598 5.5 26.25 C0.15034695 21.43531226 0.15034695 21.43531226 -0.29296875 17.203125 C-0.25816406 16.22859375 -0.22335938 15.2540625 -0.1875 14.25 C-0.16042969 13.26515625 -0.13335937 12.2803125 -0.10546875 11.265625 C-0.07066406 10.51796875 -0.03585938 9.7703125 0 9 C-2.97 9.66 -5.94 10.32 -9 11 C-9.33 16.61 -9.66 22.22 -10 28 C-13.63 28 -17.26 28 -21 28 C-21 19.09 -21 10.18 -21 1 C-17 1 -13 1 -9 1 C-6.04335481 -0.4783226 -3.25770263 -0.06032783 0 0 Z M12 8 C9.68717413 11.46923881 9.57521414 12.92205575 10 17 C11.04374022 19.04451019 11.04374022 19.04451019 13 20 C15.6272914 19.92466753 15.6272914 19.92466753 18 19 C19.50662097 15.98675805 19.17770373 13.31713623 19 10 C17.17084359 7.76154985 17.17084359 7.76154985 14.5 7.6875 C13.675 7.790625 12.85 7.89375 12 8 Z " fill="#095489" transform="translate(57,11)"/>
<path d="M0 0 C1.33333333 0.66666667 2.66666667 1.33333333 4 2 C4.5775 1.71125 5.155 1.4225 5.75 1.125 C9.03637564 -0.51818782 12.4703393 -0.93992827 16 0 C18.734375 1.7890625 18.734375 1.7890625 21 5 C21.6112946 8.9555463 21.47093944 12.8222636 21.3125 16.8125 C21.28994141 17.88693359 21.26738281 18.96136719 21.24414062 20.06835938 C21.18537441 22.71283888 21.09569833 25.35659933 21 28 C17.7 28 14.4 28 11 28 C10.67 21.4 10.34 14.8 10 8 C8.02 8.99 8.02 8.99 6 10 C5.67 15.94 5.34 21.88 5 28 C1.37 28 -2.26 28 -6 28 C-6.33 21.73 -6.66 15.46 -7 9 C-8.32 9 -9.64 9 -11 9 C-11.33 15.27 -11.66 21.54 -12 28 C-15.3 28 -18.6 28 -22 28 C-22 19.09 -22 10.18 -22 1 C-18.37 1 -14.74 1 -11 1 C-7.31010334 -0.22996555 -3.84429343 -0.35089899 0 0 Z " fill="#0A5489" transform="translate(112,11)"/>
<path d="M0 0 C3.29355078 1.73686157 5.4669832 4.10356266 7.375 7.3125 C8.9117205 13.92039815 8.2524908 18.38591119 5.265625 24.3359375 C3.69899728 26.39576283 2.41441833 27.0968287 0 28 C-2 28.265625 -2 28.265625 -4 28.25 C-4.66 28.25515625 -5.32 28.2603125 -6 28.265625 C-8 28 -8 28 -12 26 C-12 29.63 -12 33.26 -12 37 C-15.3 37 -18.6 37 -22 37 C-22 25.12 -22 13.24 -22 1 C-18.37 1 -14.74 1 -11 1 C-7.26420563 -0.24526479 -3.87365997 -0.65171217 0 0 Z M-10.8125 9.625 C-12.41039285 12.8207857 -11.95690908 14.61401404 -11 18 C-10.34 18.66 -9.68 19.32 -9 20 C-5.69316534 19.71016731 -5.69316534 19.71016731 -3 18 C-2.77081758 13.98342857 -2.77081758 13.98342857 -3 10 C-3.66 9.34 -4.32 8.68 -5 8 C-8.90933583 7.55496999 -8.90933583 7.55496999 -10.8125 9.625 Z " fill="#08548A" transform="translate(160,11)"/>
<path d="M0 0 C0.721875 0.495 1.44375 0.99 2.1875 1.5 C1.72566182 5.65654359 1.30740898 7.71466571 -1.8125 10.5 C-3.00875 9.96375 -4.205 9.4275 -5.4375 8.875 C-8.6338491 7.67353544 -9.69836275 7.47886347 -13.1875 8.125 C-16.07085971 9.36789532 -16.07085971 9.36789532 -17.8125 12.5 C-18.16755425 15.1057687 -18.16755425 15.1057687 -18.125 17.9375 C-18.14175781 18.88496094 -18.15851562 19.83242188 -18.17578125 20.80859375 C-17.75135552 23.95299512 -17.09850144 25.31094951 -14.8125 27.5 C-9.71865896 28.64490142 -4.56311534 27.44897039 0.1875 25.5 C1.68571059 28.87097383 2.1875 30.70442119 2.1875 34.5 C-4.57113106 38.18652603 -11.69437004 38.83845833 -19.1875 36.87890625 C-23.58073569 35.00678877 -26.65170012 32.29194333 -28.9609375 28.10546875 C-31.05952636 21.68455695 -31.05952636 14.31544305 -28.9609375 7.89453125 C-26.67075619 3.74260391 -23.61561303 0.98517192 -19.2578125 -0.87890625 C-13.15457889 -2.42908859 -5.76617842 -2.86254463 0 0 Z " fill="#08548B" transform="translate(29.8125,1.5)"/>
<path d="M0 0 C3.33625683 2.38304059 4.86208451 4.1457557 6.625 7.875 C7.42948032 12.92352445 7.20142572 16.70079945 4.9375 21.3125 C1.81257876 24.77525057 -0.15344794 26.59601439 -4.89453125 27.19140625 C-11.25183594 27.46100467 -15.39094161 26.92454744 -20.375 22.875 C-23.36700264 18.10649579 -23.7523774 14.35945167 -22.87890625 8.953125 C-21.8484085 4.70332034 -20.36915276 2.57818122 -16.8125 0.0625 C-11.05241772 -1.92734661 -5.78013963 -1.92671321 0 0 Z M-10.375 6.875 C-12.53205515 8.6314331 -12.53205515 8.6314331 -12.640625 10.75 C-12.63546875 11.45125 -12.6303125 12.1525 -12.625 12.875 C-12.63015625 13.57625 -12.6353125 14.2775 -12.640625 15 C-12.53205515 17.1185669 -12.53205515 17.1185669 -10.375 18.875 C-7.27573181 18.55301034 -7.27573181 18.55301034 -4.375 17.875 C-3.14966612 12.6773198 -3.14966612 12.6773198 -4.5625 7.875 C-6.61370814 6.55294844 -6.61370814 6.55294844 -10.375 6.875 Z " fill="#095489" transform="translate(214.375,12.125)"/>
<path d="M0 0 C2.73828125 1.78515625 2.73828125 1.78515625 5 5 C5.6108745 8.95563805 5.47094106 12.82222296 5.3125 16.8125 C5.28994141 17.88693359 5.26738281 18.96136719 5.24414062 20.06835938 C5.18537441 22.71283888 5.09569833 25.35659933 5 28 C1.7 28 -1.6 28 -5 28 C-5.33 22.06 -5.66 16.12 -6 10 C-7.65 9.67 -9.3 9.34 -11 9 C-11.33 15.27 -11.66 21.54 -12 28 C-15.3 28 -18.6 28 -22 28 C-22 19.09 -22 10.18 -22 1 C-18.37 1 -14.74 1 -11 1 C-7.35593938 -0.21468687 -3.75412801 -0.92134277 0 0 Z " fill="#0A548A" transform="translate(247,11)"/>
<path d="M0 0 C3.63 0 7.26 0 11 0 C11 2.64 11 5.28 11 8 C12.98 8 14.96 8 17 8 C17 10.31 17 12.62 17 15 C15.02 15 13.04 15 11 15 C11.33 18.63 11.66 22.26 12 26 C13.65 26.33 15.3 26.66 17 27 C17 29.64 17 32.28 17 35 C8.16956953 35.46295461 8.16956953 35.46295461 4 33.8125 C0.83818652 30.94710653 0.06918794 28.1028558 -0.1953125 23.88671875 C-0.17210937 22.83097656 -0.14890625 21.77523438 -0.125 20.6875 C-0.10695312 19.61886719 -0.08890625 18.55023437 -0.0703125 17.44921875 C-0.04710937 16.64097656 -0.02390625 15.83273438 0 15 C-1.65 15 -3.3 15 -5 15 C-5 12.69 -5 10.38 -5 8 C-3.35 8 -1.7 8 0 8 C0 5.36 0 2.72 0 0 Z " fill="#0A5489" transform="translate(173,4)"/>
<path d="M0 0 C1.49821059 3.37097383 2 5.20442119 2 9 C-4.19267369 12.37782201 -10.01295764 12.73297311 -17 12 C-19.8671875 10.98046875 -19.8671875 10.98046875 -22 10 C-18.25 8.875 -18.25 8.875 -16 10 C-14.46331135 10.22467831 -12.92031946 10.40796805 -11.375 10.5625 C-10.55773438 10.64628906 -9.74046875 10.73007812 -8.8984375 10.81640625 C-8.27195312 10.87699219 -7.64546875 10.93757813 -7 11 C-7 10.34 -7 9.68 -7 9 C-6.01 9 -5.02 9 -4 9 C-4 7.35 -4 5.7 -4 4 C-7.63 4 -11.26 4 -15 4 C-15 3.67 -15 3.34 -15 3 C-14.39671875 2.95101563 -13.7934375 2.90203125 -13.171875 2.8515625 C-11.97304688 2.73941406 -11.97304688 2.73941406 -10.75 2.625 C-9.56664062 2.52058594 -9.56664062 2.52058594 -8.359375 2.4140625 C-5.32161723 1.88094607 -3.049455 0 0 0 Z " fill="#10517E" transform="translate(30,27)"/>
<path d="M0 0 C3.3 0 6.6 0 10 0 C10 0.33 10 0.66 10 1 C7.03 1 4.06 1 1 1 C1.33 9.25 1.66 17.5 2 26 C3.65 26 5.3 26 7 26 C6.67 24.68 6.34 23.36 6 22 C6.99 21.34 7.98 20.68 9 20 C9.72965366 17.43717258 9.72965366 17.43717258 10 15 C10.33 15 10.66 15 11 15 C11 18.96 11 22.92 11 27 C7.37 27 3.74 27 0 27 C0 18.09 0 9.18 0 0 Z " fill="#14517E" transform="translate(36,12)"/>
<path d="M0 0 C0.721875 0.495 1.44375 0.99 2.1875 1.5 C5.14848659 3.07919285 6.71253029 3.28178312 10 3 C10 3.99 10 4.98 10 6 C6.7 6 3.4 6 0 6 C0 4.02 0 2.04 0 0 Z " fill="#124D78" transform="translate(225,33)"/>
<path d="M0 0 C3.63 0 7.26 0 11 0 C11 2.64 11 5.28 11 8 C10.34 8 9.68 8 9 8 C8.67 5.69 8.34 3.38 8 1 C5.36 1 2.72 1 0 1 C0 0.67 0 0.34 0 0 Z " fill="#164C71" transform="translate(173,4)"/>
<path d="M0 0 C0.66 0.66 1.32 1.32 2 2 C-0.22890995 3.11445498 -1.53055106 3.16480286 -4 3.1875 C-5.051875 3.20876953 -5.051875 3.20876953 -6.125 3.23046875 C-8 3 -8 3 -10 1 C-6.61401171 -0.04184255 -3.53318313 -0.23042499 0 0 Z " fill="#134E79" transform="translate(160,36)"/>
<path d="M0 0 C0.66 0.33 1.32 0.66 2 1 C1.01 3.64 0.02 6.28 -1 9 C-1.66 9 -2.32 9 -3 9 C-3 10.65 -3 12.3 -3 14 C-3.33 14 -3.66 14 -4 14 C-3.66009167 8.62007164 -3.31442207 4.46726453 0 0 Z " fill="#10537C" transform="translate(195,14)"/>
<path d="M0 0 C0.66 0.33 1.32 0.66 2 1 C1.38461538 6.53846154 1.38461538 6.53846154 -0.5625 8.875 C-1.036875 9.24625 -1.51125 9.6175 -2 10 C-2 8.68 -2 7.36 -2 6 C-1.34 6 -0.68 6 0 6 C0 4.02 0 2.04 0 0 Z " fill="#0A446D" transform="translate(30,2)"/>
<path d="M0 0 C0.33 0.99 0.66 1.98 1 3 C0.67 3.66 0.34 4.32 0 5 C-1.65 5 -3.3 5 -5 5 C-4 2 -4 2 -1.9375 0.8125 C-1.298125 0.544375 -0.65875 0.27625 0 0 Z " fill="#035794" transform="translate(75,29)"/>
<path d="M0 0 C-0.33 0.99 -0.66 1.98 -1 3 C-4.96 3 -8.92 3 -13 3 C-13 2.67 -13 2.34 -13 2 C-12.06027344 1.90912109 -12.06027344 1.90912109 -11.1015625 1.81640625 C-9.87566406 1.69072266 -9.87566406 1.69072266 -8.625 1.5625 C-7.81289063 1.48128906 -7.00078125 1.40007813 -6.1640625 1.31640625 C-3.85304959 0.97851447 -2.33455672 0 0 0 Z " fill="#175178" transform="translate(28,28)"/>
<path d="M0 0 C0 0.99 0 1.98 0 3 C-3.3 3 -6.6 3 -10 3 C-10 2.67 -10 2.34 -10 2 C-3.375 0 -3.375 0 0 0 Z " fill="#114E76" transform="translate(133,36)"/>
<path d="M0 0 C0.99 0.66 1.98 1.32 3 2 C2.67 2.99 2.34 3.98 2 5 C0.68 4.67 -0.64 4.34 -2 4 C-1.34 2.68 -0.68 1.36 0 0 Z " fill="#035A7F" transform="translate(214,28)"/>
</svg>
