<?xml version="1.0" encoding="UTF-8"?>
<svg version="1.1" xmlns="http://www.w3.org/2000/svg" width="250" height="90">
<path d="M0 0 C1.32 0 2.64 0 4 0 C4 3.3 4 6.6 4 10 C5.27875 10.144375 6.5575 10.28875 7.875 10.4375 C10.25692894 10.70642746 11.84452691 10.92226346 14 12 C14.5775 11.319375 15.155 10.63875 15.75 9.9375 C16.86375 8.9784375 16.86375 8.9784375 18 8 C20.25 8.25 20.25 8.25 22 9 C20.75023244 12.65316671 20.32901247 13.78065836 17 16 C17.495 17.98 17.495 17.98 18 20 C18.66 20 19.32 20 20 20 C20.66 21.65 21.32 23.3 22 25 C24.64 25 27.28 25 30 25 C30 26.32 30 27.64 30 29 C29.34 29 28.68 29 28 29 C28 29.66 28 30.32 28 31 C26.02 31 24.04 31 22 31 C21.34 32.65 20.68 34.3 20 36 C19.34 36 18.68 36 18 36 C18 37.98 18 39.96 18 42 C18.99 42.33 19.98 42.66 21 43 C21.6875 45.0625 21.6875 45.0625 22 47 C18.17902761 46.46930939 15.93828597 45.50298434 13 43 C12.505 43.99 12.505 43.99 12 45 C9.35139573 45.59355614 6.70802678 45.74209269 4 46 C4 49.63 4 53.26 4 57 C2.68 56.67 1.36 56.34 0 56 C0 52.7 0 49.4 0 46 C-1.3921875 45.814375 -1.3921875 45.814375 -2.8125 45.625 C-6 45 -6 45 -9 43 C-9.763125 43.66 -10.52625 44.32 -11.3125 45 C-14 47 -14 47 -17 47 C-16.37275986 42.35842294 -16.37275986 42.35842294 -14.375 40.4375 C-13.92125 39.963125 -13.4675 39.48875 -13 39 C-13.22757731 36.83700789 -13.22757731 36.83700789 -14 35 C-14.66 35 -15.32 35 -16 35 C-16.33 33.35 -16.66 31.7 -17 30 C-17.33 30.33 -17.66 30.66 -18 31 C-19.99958364 31.04080783 -22.00045254 31.04254356 -24 31 C-24 30.34 -24 29.68 -24 29 C-24.66 29 -25.32 29 -26 29 C-26 27.68 -26 26.36 -26 25 C-23.03 25 -20.06 25 -17 25 C-16.67 23.68 -16.34 22.36 -16 21 C-15.34 21 -14.68 21 -14 21 C-13.34 19.02 -12.68 17.04 -12 15 C-12.66 15 -13.32 15 -14 15 C-14 14.34 -14 13.68 -14 13 C-14.99 12.67 -15.98 12.34 -17 12 C-17 10.68 -17 9.36 -17 8 C-15.68 8 -14.36 8 -13 8 C-13 8.99 -13 9.98 -13 11 C-12.01 11 -11.02 11 -10 11 C-9.67 11.66 -9.34 12.32 -9 13 C-8.2575 12.525625 -7.515 12.05125 -6.75 11.5625 C-4 10 -4 10 0 9 C0 6.03 0 3.06 0 0 Z M7 13 C8 15 8 15 8 15 Z M5 15 C4.34 16.65 3.68 18.3 3 20 C2.34 20 1.68 20 1 20 C-0.38442 21.96498322 -1.71203834 23.97048465 -3 26 C-3.98866506 27.34175973 -4.9838154 28.67896002 -6 30 C-5.67 30.66 -5.34 31.32 -5 32 C-3.35 31.67 -1.7 31.34 0 31 C-0.22816406 31.54269531 -0.45632812 32.08539063 -0.69140625 32.64453125 C-0.97886719 33.35996094 -1.26632813 34.07539062 -1.5625 34.8125 C-1.85253906 35.52019531 -2.14257812 36.22789063 -2.44140625 36.95703125 C-3.25063024 39.1735067 -3.25063024 39.1735067 -2 42 C0.34287418 39.32752366 0.34287418 39.32752366 1 36 C1.99 35.67 2.98 35.34 4 35 C4.165 34.34 4.33 33.68 4.5 33 C4.665 32.34 4.83 31.68 5 31 C5.99 30.67 6.98 30.34 8 30 C9.09166275 28.06669397 9.09166275 28.06669397 10 26 C10.66 25.34 11.32 24.68 12 24 C9.69 23.67 7.38 23.34 5 23 C5 21.35 5 19.7 5 18 C5.66 18 6.32 18 7 18 C7 17.01 7 16.02 7 15 C6.34 15 5.68 15 5 15 Z M-4 42 C-3 44 -3 44 -3 44 Z " fill="#64BC17" transform="translate(182,6)"/>
<path d="M0 0 C9.9 0 19.8 0 30 0 C30 0.66 30 1.32 30 2 C30.639375 2.28875 31.27875 2.5775 31.9375 2.875 C34 4 34 4 35 6 C35.87397081 16.38602518 34.12303675 25.94930175 29 35 C28.34 35 27.68 35 27 35 C27 35.66 27 36.32 27 37 C17.82756451 42.34696476 3.18662822 40.50913011 -7 39 C-6.20096378 29.25175813 -4.57475983 19.646642 -3 10 C-2.34 10 -1.68 10 -1 10 C-0.67 6.7 -0.34 3.4 0 0 Z M9 11 C8.30215669 13.434964 7.61646178 15.87227105 6.9375 18.3125 C6.73833984 19.00279297 6.53917969 19.69308594 6.33398438 20.40429688 C5.13040799 24.69334396 5.13040799 24.69334396 6 29 C10.95 28.67 15.9 28.34 21 28 C22.59162079 22.42932723 23.20674944 17.78898419 23 12 C16.07 11.505 16.07 11.505 9 11 Z " fill="#313031" transform="translate(13,14)"/>
<path d="M0 0 C9.57 0 19.14 0 29 0 C28 9 28 9 27 11 C23.99984088 12.00005304 22.02576244 12.11575585 18.89453125 12.09765625 C17.91162109 12.09443359 16.92871094 12.09121094 15.91601562 12.08789062 C14.89185547 12.07951172 13.86769531 12.07113281 12.8125 12.0625 C11.25885742 12.05573242 11.25885742 12.05573242 9.67382812 12.04882812 C7.11582734 12.0370401 4.55794267 12.02058515 2 12 C2 12.99 2 13.98 2 15 C3.18078125 14.98839844 4.3615625 14.97679687 5.578125 14.96484375 C7.13541508 14.95546248 8.69270688 14.94636264 10.25 14.9375 C11.02730469 14.92912109 11.80460937 14.92074219 12.60546875 14.91210938 C13.73662109 14.90727539 13.73662109 14.90727539 14.890625 14.90234375 C15.92751465 14.89448853 15.92751465 14.89448853 16.98535156 14.88647461 C19.1620463 15.0091313 20.94746102 15.25252025 23 16 C25.73505662 20.28492204 26.29618111 23.10004565 25.5 28.125 C24.39520923 32.63336977 22.77095143 35.14879282 19 38 C15.6978772 39.1007076 13.05916721 39.20627072 9.58203125 39.31640625 C8.32841797 39.35830078 7.07480469 39.40019531 5.78320312 39.44335938 C4.47287109 39.48267578 3.16253906 39.52199219 1.8125 39.5625 C0.47720022 39.60570992 -0.85808652 39.649325 -2.19335938 39.69335938 C-5.46213297 39.79956502 -8.73098333 39.90160997 -12 40 C-11.85892253 38.54119891 -11.71197585 37.08296449 -11.5625 35.625 C-11.48128906 34.81289063 -11.40007812 34.00078125 -11.31640625 33.1640625 C-11 31 -11 31 -10 29 C-7.24332541 28.08110847 -5.70387521 27.89187298 -2.875 27.9375 C-2.08609375 27.94523437 -1.2971875 27.95296875 -0.484375 27.9609375 C1.171875 27.98697917 2.828125 28.01302083 4.484375 28.0390625 C5.27328125 28.04679687 6.0621875 28.05453125 6.875 28.0625 C7.59429687 28.07410156 8.31359375 28.08570312 9.0546875 28.09765625 C11.21841518 28.07623121 11.21841518 28.07623121 14 27 C14.33 26.34 14.66 25.68 15 25 C13.24623047 25.05220703 13.24623047 25.05220703 11.45703125 25.10546875 C9.90886859 25.13361716 8.36069032 25.16091619 6.8125 25.1875 C6.04357422 25.21263672 5.27464844 25.23777344 4.48242188 25.26367188 C-0.15594286 25.32339331 -3.29083205 25.11343161 -7 22 C-9.35299152 16.31360384 -9.21255466 12.63541869 -6.99609375 6.921875 C-5.732833 4.48452486 -4.4750473 3.19760353 -2 2 C-1.34 2 -0.68 2 0 2 C0 1.34 0 0.68 0 0 Z " fill="#2A2829" transform="translate(128,14)"/>
<path d="M0 0 C9.9 0 19.8 0 30 0 C30 8.11111111 30 8.11111111 28 11 C25.703463 12.1482685 24.41686833 12.11561175 21.8671875 12.09765625 C21.06152344 12.09443359 20.25585938 12.09121094 19.42578125 12.08789062 C18.58402344 12.07951172 17.74226563 12.07113281 16.875 12.0625 C15.60076172 12.05573242 15.60076172 12.05573242 14.30078125 12.04882812 C12.20049091 12.03702874 10.1002367 12.01909306 8 12 C8 12.99 8 13.98 8 15 C13.61 15 19.22 15 25 15 C24.67 17.97 24.34 20.94 24 24 C20.38132441 25.2062252 17.07493749 25.10816918 13.3125 25.0625 C12.61060547 25.05798828 11.90871094 25.05347656 11.18554688 25.04882812 C9.45699462 25.03706927 7.72848635 25.01913454 6 25 C6 25.99 6 26.98 6 28 C12.27 28 18.54 28 25 28 C24 37 24 37 22.28125 39.04199219 C19.5244462 40.19970817 17.49036832 40.35726501 14.5 40.328125 C13.448125 40.32296875 12.39625 40.3178125 11.3125 40.3125 C9.6728125 40.2815625 9.6728125 40.2815625 8 40.25 C6.906875 40.24484375 5.81375 40.2396875 4.6875 40.234375 C0.20850037 40.19046324 -3.63207792 40.09198052 -8 39 C-6.68 30.42 -5.36 21.84 -4 13 C-3.34 13 -2.68 13 -2 13 C-1.93941406 12.22914062 -1.87882812 11.45828125 -1.81640625 10.6640625 C-1.73261719 9.66117188 -1.64882813 8.65828125 -1.5625 7.625 C-1.48128906 6.62726562 -1.40007813 5.62953125 -1.31640625 4.6015625 C-1 2 -1 2 0 0 Z " fill="#292728" transform="translate(53,14)"/>
<path d="M0 0 C11 0 11 0 13 1 C13.06058594 2.27617187 13.12117188 3.55234375 13.18359375 4.8671875 C13.26799568 6.53647016 13.35264386 8.20574037 13.4375 9.875 C13.47681641 10.71675781 13.51613281 11.55851562 13.55664062 12.42578125 C13.61948242 13.63427734 13.61948242 13.63427734 13.68359375 14.8671875 C13.72025146 15.61081543 13.75690918 16.35444336 13.79467773 17.12060547 C13.89955865 19.08864312 13.89955865 19.08864312 15 21 C15.33 20.01 15.66 19.02 16 18 C16.66 18 17.32 18 18 18 C18.66 15.36 19.32 12.72 20 10 C20.66 10 21.32 10 22 10 C22.268125 8.906875 22.53625 7.81375 22.8125 6.6875 C24.33861386 1.94851485 24.33861386 1.94851485 27 0 C29.48046875 -0.29296875 29.48046875 -0.29296875 32.1875 -0.1875 C33.08855469 -0.16042969 33.98960938 -0.13335937 34.91796875 -0.10546875 C35.94857422 -0.05326172 35.94857422 -0.05326172 37 0 C36.47731534 2.76276177 35.89130413 5.3260876 35 8 C34.34 8 33.68 8 33 8 C32.731875 9.051875 32.46375 10.10375 32.1875 11.1875 C31.11874951 14.61875158 29.89711011 16.99624232 28 20 C27.30177383 21.65369357 26.62501395 23.31727014 26 25 C25.34 25 24.68 25 24 25 C23.34 27.31 22.68 29.62 22 32 C21.34 32 20.68 32 20 32 C19.34 34.31 18.68 36.62 18 39 C16.58566794 39.2236337 15.16832382 39.42826476 13.75 39.625 C12.96109375 39.74101563 12.1721875 39.85703125 11.359375 39.9765625 C8.67847541 40.00319395 7.27305911 39.36592084 5 38 C5 36.35 5 34.7 5 33 C4.34 33 3.68 33 3 33 C2.01 22.11 1.02 11.22 0 0 Z " fill="#2F2D2E" transform="translate(85,14)"/>
<path d="M0 0 C2.97 0 5.94 0 9 0 C10.19127531 4.356902 9.76679687 7.87957263 9.0625 12.3125 C8.86785156 13.56675781 8.67320312 14.82101563 8.47265625 16.11328125 C8.31667969 17.06589844 8.16070312 18.01851562 8 19 C7.34 19 6.68 19 6 19 C5.67 21.97 5.34 24.94 5 28 C11.27 28 17.54 28 24 28 C24 35 24 35 22 39 C12.1 39 2.2 39 -8 39 C-6.94206897 27.36275862 -6.94206897 27.36275862 -5 22 C-4.25274612 18.41940851 -3.71569297 14.80158025 -3.14453125 11.18945312 C-2.48657728 7.21696761 -1.69578919 3.69126526 0 0 Z " fill="#1F1D1E" transform="translate(220,14)"/>
<path d="M0 0 C1.58206057 0.00667536 3.16410534 0.0186375 4.74609375 0.03515625 C5.55240234 0.03966797 6.35871094 0.04417969 7.18945312 0.04882812 C9.18753131 0.06065107 11.18557158 0.07858711 13.18359375 0.09765625 C13.04264311 1.72308705 12.89567288 3.34799676 12.74609375 4.97265625 C12.66488281 5.87757812 12.58367187 6.7825 12.5 7.71484375 C12.18359375 10.09765625 12.18359375 10.09765625 11.18359375 12.09765625 C7.22359375 12.09765625 3.26359375 12.09765625 -0.81640625 12.09765625 C0.24338308 13.38378301 0.24338308 13.38378301 2.6875 13.1953125 C3.69683594 13.18371094 4.70617187 13.17210938 5.74609375 13.16015625 C6.75800781 13.15113281 7.76992187 13.14210938 8.8125 13.1328125 C9.59496094 13.12121094 10.37742188 13.10960938 11.18359375 13.09765625 C11.30859375 15.47265625 11.30859375 15.47265625 11.18359375 18.09765625 C8.52179335 20.75945665 7.14110112 20.39632227 3.43359375 20.41015625 C-1.53643286 20.34444676 -4.69629146 19.84439944 -8.81640625 17.09765625 C-8.48640625 13.13765625 -8.15640625 9.17765625 -7.81640625 5.09765625 C-7.15640625 5.09765625 -6.49640625 5.09765625 -5.81640625 5.09765625 C-5.59984375 4.13859375 -5.59984375 4.13859375 -5.37890625 3.16015625 C-4.39459154 -0.4489977 -4.08668745 0.10457235 0 0 Z " fill="#6BBB1C" transform="translate(121.81640625,60.90234375)"/>
<path d="M0 0 C1.90845703 0.04060547 1.90845703 0.04060547 3.85546875 0.08203125 C5.31919922 0.13423828 5.31919922 0.13423828 6.8125 0.1875 C8.31596503 3.19443006 7.72998835 5.79875063 7.5 9.125 C7.38205078 10.99478516 7.38205078 10.99478516 7.26171875 12.90234375 C6.8125 16.1875 6.8125 16.1875 4.8125 19.1875 C1.86185852 19.4083564 -0.87118231 19.46810989 -3.8125 19.375 C-4.61429688 19.36146484 -5.41609375 19.34792969 -6.2421875 19.33398438 C-8.22424378 19.29859051 -10.20595551 19.24478234 -12.1875 19.1875 C-12.230221 17.52138095 -12.22813832 15.85367115 -12.1875 14.1875 C-11.8575 13.8575 -11.5275 13.5275 -11.1875 13.1875 C-10.94400989 10.67143551 -10.80386634 8.15663976 -10.6640625 5.6328125 C-10.1875 3.1875 -10.1875 3.1875 -9.09765625 1.37890625 C-6.11978622 -0.47845645 -3.45747368 -0.09515983 0 0 Z M-3.1875 5.1875 C-3.1875 6.5075 -3.1875 7.8275 -3.1875 9.1875 C-1.8675 9.5175 -0.5475 9.8475 0.8125 10.1875 C0.8125 8.5375 0.8125 6.8875 0.8125 5.1875 C-0.5075 5.1875 -1.8275 5.1875 -3.1875 5.1875 Z " fill="#65BC18" transform="translate(210.1875,64.8125)"/>
<path d="M0 0 C1.98 0 3.96 0 6 0 C6 2.97 6 5.94 6 9 C6.66 9 7.32 9 8 9 C8.66 6.03 9.32 3.06 10 0 C12.64 0 15.28 0 18 0 C17.74571916 2.79409766 17.47243244 5.58400819 17.1875 8.375 C17.11724609 9.1690625 17.04699219 9.963125 16.97460938 10.78125 C16.7535771 12.86779466 16.3849376 14.93739317 16 17 C12.95318939 19.03120707 12.39881676 19.24659875 8.98828125 19.1953125 C8.23095703 19.18886719 7.47363281 19.18242188 6.69335938 19.17578125 C5.90767578 19.15902344 5.12199219 19.14226562 4.3125 19.125 C3.51521484 19.11597656 2.71792969 19.10695313 1.89648438 19.09765625 C-0.069139 19.07411585 -2.03460775 19.03824547 -4 19 C-3.66226563 18.23300781 -3.32453125 17.46601562 -2.9765625 16.67578125 C-1.86004637 13.61652706 -2.11948479 12.08180324 -3 9 C-2.34 9 -1.68 9 -1 9 C-1.020625 7.88625 -1.04125 6.7725 -1.0625 5.625 C-1 2 -1 2 0 0 Z " fill="#65BC18" transform="translate(225,65)"/>
<path d="M0 0 C2.10388569 -0.05402274 4.20816714 -0.09280256 6.3125 -0.125 C8.07013672 -0.15980469 8.07013672 -0.15980469 9.86328125 -0.1953125 C13 0 13 0 16 2 C16.1875 5.125 16.1875 5.125 16 8 C15.01 8.495 15.01 8.495 14 9 C14.020625 9.969375 14.04125 10.93875 14.0625 11.9375 C14 15 14 15 13 16 C11.08759516 16.15252309 9.16827201 16.22192773 7.25 16.25 C6.20328125 16.27578125 5.1565625 16.3015625 4.078125 16.328125 C0.60394623 15.95778107 -1.24762834 15.12569323 -4 13 C-5.09908119 7.6267142 -2.8027824 4.37934751 0 0 Z M7 9 C7 9.33 7 9.66 7 10 C8.65 10 10.3 10 12 10 C12 9.67 12 9.34 12 9 C10.35 9 8.7 9 7 9 Z " fill="#65BC18" transform="translate(165,65)"/>
<path d="M0 0 C1.15628906 -0.00515625 2.31257812 -0.0103125 3.50390625 -0.015625 C6.4375 0.25 6.4375 0.25 8.4375 2.25 C8.484375 5 8.484375 5 8.1875 8.25 C8.09984375 9.3225 8.0121875 10.395 7.921875 11.5 C7.4375 14.25 7.4375 14.25 5.4375 16.25 C2.8125 16.375 2.8125 16.375 0.4375 16.25 C-0.82514601 11.95700357 -0.19200412 9.37168689 1.4375 5.25 C0.1175 5.25 -1.2025 5.25 -2.5625 5.25 C-2.500625 5.95125 -2.43875 6.6525 -2.375 7.375 C-2.60506101 10.90260212 -3.85450568 13.18984351 -5.5625 16.25 C-7.5425 16.25 -9.5225 16.25 -11.5625 16.25 C-11.30799519 13.95646253 -11.03338853 11.66514797 -10.75 9.375 C-10.59917969 8.09882812 -10.44835937 6.82265625 -10.29296875 5.5078125 C-8.96765991 -0.40292318 -5.30528481 -0.02371077 0 0 Z " fill="#65BC18" transform="translate(148.5625,64.75)"/>
<path d="M0 0 C2.97 0 5.94 0 9 0 C10.19127531 4.356902 9.76679687 7.87957263 9.0625 12.3125 C8.86785156 13.56675781 8.67320312 14.82101563 8.47265625 16.11328125 C8.31667969 17.06589844 8.16070312 18.01851562 8 19 C7.34 19 6.68 19 6 19 C5.67 21.97 5.34 24.94 5 28 C11.27 28 17.54 28 24 28 C24 35.875 24 35.875 22 39 C21.34 38.67 20.68 38.34 20 38 C20.66 35.69 21.32 33.38 22 31 C15.73 30.67 9.46 30.34 3 30 C4.125 21 4.125 21 4.97265625 16.84375 C5.14990234 15.9671875 5.32714844 15.090625 5.50976562 14.1875 C5.69216797 13.300625 5.87457031 12.41375 6.0625 11.5 C6.24876953 10.5821875 6.43503906 9.664375 6.62695312 8.71875 C7.08198127 6.47861146 7.53971267 4.23906274 8 2 C5.69 2 3.38 2 1 2 C0.67 2.66 0.34 3.32 0 4 C0 2.68 0 1.36 0 0 Z " fill="#6D6C6C" transform="translate(220,14)"/>
<path d="M0 0 C2.01822917 0.06510417 4.03645833 0.13020833 6.0546875 0.1953125 C5.7246875 1.8453125 5.3946875 3.4953125 5.0546875 5.1953125 C4.0646875 5.5253125 3.0746875 5.8553125 2.0546875 6.1953125 C1.3946875 9.4953125 0.7346875 12.7953125 0.0546875 16.1953125 C-1.9253125 16.1953125 -3.9053125 16.1953125 -5.9453125 16.1953125 C-6.12386531 11.01728088 -6.02359488 7.04463806 -3.9453125 2.1953125 C-1.9453125 0.1953125 -1.9453125 0.1953125 0 0 Z " fill="#65BC18" transform="translate(190.9453125,64.8046875)"/>
<path d="M0 0 C0.90492187 0.02320313 1.80984375 0.04640625 2.7421875 0.0703125 C4.10730469 0.09738281 4.10730469 0.09738281 5.5 0.125 C6.19867188 0.14820313 6.89734375 0.17140625 7.6171875 0.1953125 C7.6171875 0.8553125 7.6171875 1.5153125 7.6171875 2.1953125 C4.6471875 2.1953125 1.6771875 2.1953125 -1.3828125 2.1953125 C-1.3828125 3.1853125 -1.3828125 4.1753125 -1.3828125 5.1953125 C4.8871875 5.1953125 11.1571875 5.1953125 17.6171875 5.1953125 C17.2871875 8.1653125 16.9571875 11.1353125 16.6171875 14.1953125 C14.6371875 15.1853125 14.6371875 15.1853125 12.6171875 16.1953125 C13.2771875 15.2053125 13.9371875 14.2153125 14.6171875 13.1953125 C14.9471875 11.2153125 15.2771875 9.2353125 15.6171875 7.1953125 C9.0171875 7.1953125 2.4171875 7.1953125 -4.3828125 7.1953125 C-4.3828125 0.35924693 -4.3828125 0.35924693 0 0 Z " fill="#6F6E6E" transform="translate(60.3828125,36.8046875)"/>
<path d="M0 0 C7.26 0 14.52 0 22 0 C21 9 21 9 20 11 C16.57767028 12.14077657 13.91326783 12.09815117 10.3125 12.0625 C8.54326172 12.04896484 8.54326172 12.04896484 6.73828125 12.03515625 C5.38283203 12.01775391 5.38283203 12.01775391 4 12 C4 11.34 4 10.68 4 10 C8.62 9.67 13.24 9.34 18 9 C18.66 6.69 19.32 4.38 20 2 C13.4 2 6.8 2 0 2 C0 1.34 0 0.68 0 0 Z " fill="#6D6C6C" transform="translate(135,14)"/>
<path d="M0 0 C0.66 0.33 1.32 0.66 2 1 C1.67 1.99 1.34 2.98 1 4 C6.61 4 12.22 4 18 4 C17.67 6.97 17.34 9.94 17 13 C14.69 13.33 12.38 13.66 10 14 C10 13.34 10 12.68 10 12 C11.65 11.67 13.3 11.34 15 11 C15.33 9.35 15.66 7.7 16 6 C10.39 6 4.78 6 -1 6 C-0.67 4.02 -0.34 2.04 0 0 Z " fill="#6E6D6E" transform="translate(60,25)"/>
<path d="M0 0 C1.07859587 3.23578762 0.92669152 4.47402524 0.328125 7.75390625 C0.15796875 8.69169922 -0.0121875 9.62949219 -0.1875 10.59570312 C-0.373125 11.57474609 -0.55875 12.55378906 -0.75 13.5625 C-0.92015625 14.51447266 -1.0903125 15.46644531 -1.265625 16.44726562 C-2.43786631 22.77823066 -4.01985928 28.87446317 -6 35 C-6.33 35 -6.66 35 -7 35 C-6.88444496 33.29100181 -6.75706997 31.58280131 -6.625 29.875 C-6.55539063 28.92367187 -6.48578125 27.97234375 -6.4140625 26.9921875 C-6 24 -6 24 -5.05859375 21.18359375 C-3.74392978 17.22989951 -3.09893584 13.2926018 -2.4375 9.1875 C-1.13169643 1.13169643 -1.13169643 1.13169643 0 0 Z " fill="#696868" transform="translate(219,18)"/>
<path d="M0 0 C1.32 0 2.64 0 4 0 C4 0.99 4 1.98 4 3 C3.44570312 3.17015625 2.89140625 3.3403125 2.3203125 3.515625 C1.23363281 3.87914062 1.23363281 3.87914062 0.125 4.25 C-0.59429687 4.48203125 -1.31359375 4.7140625 -2.0546875 4.953125 C-4.54569147 6.29366529 -5.07460694 7.35261264 -6 10 C-6.60587815 14.98067476 -6.33028534 19.48507216 -4 24 C-6.49495835 21.90745429 -7.85622169 20.41216449 -8.9375 17.3125 C-9.02290398 12.78608912 -7.96305406 9.06974622 -6 5 C-3.9375 2.9375 -3.9375 2.9375 -2 2 C-1.34 2 -0.68 2 0 2 C0 1.34 0 0.68 0 0 Z " fill="#757575" transform="translate(128,14)"/>
<path d="M0 0 C2.64 0 5.28 0 8 0 C8 0.99 8 1.98 8 3 C6.02 3 4.04 3 2 3 C2.16371094 3.55171875 2.32742187 4.1034375 2.49609375 4.671875 C3.05760414 7.26614007 3.09739008 9.59835411 3.0625 12.25 C3.05347656 13.14203125 3.04445313 14.0340625 3.03515625 14.953125 C3.02355469 15.62859375 3.01195313 16.3040625 3 17 C2.67 17 2.34 17 2 17 C1.34 11.39 0.68 5.78 0 0 Z " fill="#555354" transform="translate(85,14)"/>
<path d="M0 0 C0.33 0.99 0.66 1.98 1 3 C-4.61663358 8.92023539 -4.61663358 8.92023539 -9.91796875 9.09765625 C-11.53638672 9.08025391 -11.53638672 9.08025391 -13.1875 9.0625 C-14.81751953 9.04896484 -14.81751953 9.04896484 -16.48046875 9.03515625 C-17.31191406 9.02355469 -18.14335937 9.01195312 -19 9 C-19 8.67 -19 8.34 -19 8 C-18.08476562 7.97421875 -17.16953125 7.9484375 -16.2265625 7.921875 C-15.03804687 7.86515625 -13.84953125 7.8084375 -12.625 7.75 C-11.44164062 7.70359375 -10.25828125 7.6571875 -9.0390625 7.609375 C-8.03617188 7.40828125 -7.03328125 7.2071875 -6 7 C-4.64535428 5.12443673 -4.64535428 5.12443673 -4 3 C-1.875 1.25 -1.875 1.25 0 0 Z " fill="#454445" transform="translate(151,44)"/>
<path d="M0 0 C3.3 0 6.6 0 10 0 C9.47731534 2.76276177 8.89130413 5.3260876 8 8 C7.34 8 6.68 8 6 8 C6.66 6.02 7.32 4.04 8 2 C3.545 2.495 3.545 2.495 -1 3 C-0.67 2.01 -0.34 1.02 0 0 Z " fill="#5E5E5E" transform="translate(112,14)"/>
<path d="M0 0 C0.66 0 1.32 0 2 0 C1.85820962 2.22942748 1.71140302 4.45853628 1.5625 6.6875 C1.48128906 7.92886719 1.40007813 9.17023437 1.31640625 10.44921875 C1.05508683 13.38180337 0.65201621 16.13441617 0 19 C-0.66 18.67 -1.32 18.34 -2 18 C-1.34 12.06 -0.68 6.12 0 0 Z " fill="#464445" transform="translate(13,14)"/>
<path d="M0 0 C-0.33 0.99 -0.66 1.98 -1 3 C-5.62 3 -10.24 3 -15 3 C-14.67 2.34 -14.34 1.68 -14 1 C-11.34765625 0.5859375 -11.34765625 0.5859375 -8.0625 0.375 C-6.98097656 0.30023437 -5.89945313 0.22546875 -4.78515625 0.1484375 C-3.19159853 0.06350736 -1.59581933 0 0 0 Z " fill="#161415" transform="translate(154,21)"/>
<path d="M0 0 C-0.721875 0.391875 -1.44375 0.78375 -2.1875 1.1875 C-5.227326 3.14649898 -7.52127727 5.37963597 -10 8 C-9.8125 5.1875 -9.8125 5.1875 -9 2 C-5.85005089 -0.63914655 -3.88979905 -1.58473295 0 0 Z " fill="#1A1819" transform="translate(132,18)"/>
<path d="M0 0 C0.66 0.33 1.32 0.66 2 1 C1.40477663 2.44122613 0.79842381 3.87785868 0.1875 5.3125 C-0.31716797 6.51326172 -0.31716797 6.51326172 -0.83203125 7.73828125 C-1.98200704 9.96515745 -3.13626961 11.34987767 -5 13 C-4.67 11.02 -4.34 9.04 -4 7 C-3.34 7 -2.68 7 -2 7 C-1.34 4.69 -0.68 2.38 0 0 Z " fill="#6E6E6E" transform="translate(109,17)"/>
<path d="M0 0 C0.99 0.33 1.98 0.66 3 1 C3 3.31 3 5.62 3 8 C2.01 7.67 1.02 7.34 0 7 C0 4.69 0 2.38 0 0 Z " fill="#5F5E5E" transform="translate(95,14)"/>
<path d="M0 0 C1.32 0 2.64 0 4 0 C4 0.99 4 1.98 4 3 C1.69 3.66 -0.62 4.32 -3 5 C-2.67 4.01 -2.34 3.02 -2 2 C-1.34 2 -0.68 2 0 2 C0 1.34 0 0.68 0 0 Z " fill="#545353" transform="translate(128,14)"/>
</svg>
