<?xml version="1.0" encoding="UTF-8"?>
<svg version="1.1" xmlns="http://www.w3.org/2000/svg" width="3833" height="1228">
<path d="M0 0 C2.45582576 0.00056534 4.91165185 0.00024515 7.36747742 -0.00088501 C12.61702022 -0.0013373 17.86651786 0.00425583 23.11604691 0.01559067 C30.70562506 0.03196734 38.29517928 0.03706599 45.88477318 0.03956665 C58.20363207 0.04392486 70.5224642 0.05718262 82.84130859 0.07617188 C94.79540883 0.09457952 106.74950172 0.10868902 118.70361328 0.1171875 C119.82341473 0.11799149 119.82341473 0.11799149 120.96583843 0.11881173 C127.46140465 0.12343852 133.95697108 0.1277436 140.45253754 0.13201714 C168.33475726 0.15077696 196.21690589 0.19063518 224.09912109 0.22705078 C224.09912109 37.51705078 224.09912109 74.80705078 224.09912109 113.22705078 C205.86275391 113.24123047 187.62638672 113.25541016 168.83740234 113.27001953 C157.26642585 113.29008247 145.69547101 113.31137198 134.12451172 113.33837891 C128.04223714 113.35251077 121.95996199 113.36633349 115.87768555 113.37963867 C115.11549691 113.38131886 114.35330828 113.38299905 113.56802303 113.38473016 C101.30439017 113.41131478 89.04080409 113.42048601 76.77714536 113.42309221 C64.16717078 113.42616461 51.5573301 113.44825903 38.94741601 113.48757535 C31.18250954 113.51119907 23.41787134 113.52043774 15.65293404 113.51056389 C9.67286124 113.50455951 3.69316445 113.52517313 -2.28684807 113.55511093 C-4.72103788 113.56327886 -7.15527358 113.5631725 -9.58945847 113.55364799 C-48.40039988 113.41696 -85.27918632 127.78605858 -113.90087891 154.22705078 C-114.66609863 154.92652832 -114.66609863 154.92652832 -115.44677734 155.64013672 C-142.92372702 181.02625954 -160.589006 218.47830495 -162.11962891 255.86376953 C-163.07379551 292.33172786 -151.58765425 326.7470453 -128.90087891 355.22705078 C-128.22025391 356.12294922 -127.53962891 357.01884766 -126.83837891 357.94189453 C-123.23442031 362.62281732 -119.55749633 366.69374371 -115.00634766 370.46142578 C-112.69338108 372.40105638 -110.53168444 374.4658801 -108.33837891 376.53955078 C-86.99634266 395.72780355 -54.93455075 411.23218767 -25.88459778 411.37854004 C-24.7027037 411.3868837 -23.52080963 411.39522736 -22.30310059 411.40382385 C-21.02028198 411.40800827 -19.73746338 411.41219269 -18.41577148 411.41650391 C-17.04045869 411.42445397 -15.66514837 411.43284253 -14.2898407 411.44163513 C-11.33682288 411.45963795 -8.38381032 411.4746724 -5.43076515 411.4874115 C-0.76253888 411.50768655 3.9056261 411.53532915 8.57380676 411.56408691 C19.32113649 411.62917847 30.06851148 411.68473526 40.81589508 411.74007416 C50.67604408 411.79092405 60.53617066 411.84378433 70.3962639 411.90459967 C75.03849739 411.93295191 79.68072356 411.95654564 84.32300031 411.97652435 C87.20647349 411.98990073 90.08991197 412.00731285 92.97335625 412.02583504 C94.95153052 412.03730391 96.92973137 412.04385544 98.90792847 412.05027771 C100.08136307 412.05862137 101.25479767 412.06696503 102.46379089 412.07556152 C103.48564075 412.08071526 104.5074906 412.08586899 105.5603056 412.09117889 C108.09912109 412.22705078 108.09912109 412.22705078 111.09912109 413.22705078 C111.09912109 376.59705078 111.09912109 339.96705078 111.09912109 302.22705078 C101.83333984 302.29666016 92.56755859 302.36626953 83.02099609 302.43798828 C77.16030902 302.46863578 71.29967984 302.49776666 65.43896484 302.52001953 C56.13098354 302.55564492 46.8233277 302.59756235 37.515625 302.6796875 C30.73732299 302.73946637 23.95928457 302.77819422 17.18072629 302.79158175 C13.59092407 302.79940842 10.00187599 302.81781676 6.41231537 302.86143112 C2.40620897 302.90971242 -1.59858418 302.9109917 -5.60498047 302.90820312 C-6.79684464 302.92977478 -7.9887088 302.95134644 -9.21669006 302.97357178 C-12.23181219 302.95077581 -14.95843166 302.88412452 -17.90087891 302.22705078 C-20.5717926 299.37968445 -20.5717926 299.37968445 -21.90087891 296.22705078 C-22.41610107 295.19636475 -22.93132324 294.16567871 -23.4621582 293.10375977 C-23.96142822 291.98815674 -24.46069824 290.87255371 -24.97509766 289.72314453 C-25.25589676 289.10033096 -25.53669586 288.4775174 -25.82600403 287.83583069 C-26.43304267 286.48795388 -27.03767799 285.1389926 -27.64013672 283.7890625 C-28.94948234 280.85550803 -30.27068697 277.92734274 -31.59121704 274.99880981 C-32.29050158 273.44786018 -32.98920225 271.89664717 -33.68734741 270.34518433 C-37.19416573 262.55721605 -40.76133262 254.79745692 -44.33563232 247.0402832 C-46.10931043 243.18865883 -47.87769908 239.33460609 -49.64697266 235.48095703 C-52.16230971 230.00260375 -54.68550866 224.52799088 -57.21755981 219.05734253 C-58.63465417 215.9918294 -60.04557269 212.92350093 -61.45507812 209.85449219 C-62.12178754 208.40645746 -62.79117833 206.95965398 -63.46337891 205.51416016 C-64.38830871 203.52444221 -65.30384325 201.53065663 -66.21728516 199.53564453 C-66.73750244 198.40956787 -67.25771973 197.28349121 -67.79370117 196.12329102 C-68.90087891 193.22705078 -68.90087891 193.22705078 -68.90087891 189.22705078 C28.11912109 189.22705078 125.13912109 189.22705078 225.09912109 189.22705078 C225.09912109 300.10705078 225.09912109 410.98705078 225.09912109 525.22705078 C162.94568359 525.31986328 162.94568359 525.31986328 99.53662109 525.41455078 C86.48542725 525.44186279 73.4342334 525.4691748 59.98754883 525.49731445 C43.96838379 525.51086426 43.96838379 525.51086426 36.45326233 525.51338196 C31.23923073 525.51616069 26.02529417 525.52708413 20.81129456 525.54377747 C14.13472643 525.56512127 7.45831471 525.57048939 0.78170598 525.56626761 C-1.65248259 525.56714879 -4.0866764 525.57298375 -6.52083695 525.58469617 C-25.73344513 525.67275333 -44.62418633 524.27459204 -63.40087891 519.97705078 C-64.33407959 519.76725586 -65.26728027 519.55746094 -66.22875977 519.34130859 C-84.789352 515.03695306 -102.46773767 508.87749307 -119.90087891 501.22705078 C-120.67157715 500.89060547 -121.44227539 500.55416016 -122.23632812 500.20751953 C-162.92649899 482.26201918 -200.55204971 450.73866715 -225.90087891 414.22705078 C-226.39700684 413.52725098 -226.89313477 412.82745117 -227.40429688 412.10644531 C-258.2393465 368.4670944 -274.38700839 316.70899732 -274.27587891 263.41455078 C-274.27506317 261.93578964 -274.27506317 261.93578964 -274.27423096 260.42715454 C-274.09688678 190.24638936 -244.92618947 126.13524642 -195.68310547 76.81884766 C-191.24502142 72.43260512 -186.64645954 68.27742272 -181.90087891 64.22705078 C-181.29373047 63.70780029 -180.68658203 63.1885498 -180.06103516 62.65356445 C-129.24181445 19.60677586 -66.05896984 -0.21510604 0 0 Z " fill="#EF8721" transform="translate(2866.90087890625,230.77294921875)"/>
<path d="M0 0 C146.19 0 292.38 0 443 0 C444.12684716 12.39531878 444.12684716 12.39531878 444.19287109 16.8215332 C444.21661804 18.3283239 444.21661804 18.3283239 444.24084473 19.86555481 C444.25160034 20.91667953 444.26235596 21.96780426 444.2734375 23.05078125 C444.29222961 24.73774361 444.29222961 24.73774361 444.31140137 26.45878601 C444.52441198 50.14754492 444.57609603 72.86125013 439 96 C438.56071724 97.99468587 438.12190685 99.98947583 437.68359375 101.984375 C427.94770549 144.15906798 406.0231159 187.17090395 374.60546875 217.39453125 C372.81696149 219.18303851 371.19775667 221.0707646 369.5625 223 C366.71592057 226.29273205 363.70020633 229.12747229 360.3828125 231.9375 C356.68806205 235.13557908 353.13441532 238.4853777 349.56787109 241.82519531 C346.81714027 244.38544613 344.06789708 246.82566517 341 249 C346.86043061 259.09369877 352.87196227 269.07818729 359.03979492 278.98706055 C362.75087766 284.95786467 366.3976962 290.96301517 370 297 C375.64266369 306.44854689 381.42886127 315.80375788 387.234375 325.15283203 C401.70772056 348.49190226 415.99044753 371.94650371 430.0958252 395.50952148 C437.07764321 407.17222204 444.14721146 418.77433713 451.33105469 430.31396484 C461.91349607 447.34556521 472.34572711 464.46863248 482.73704529 481.61720276 C485.36878317 485.96003974 488.00391831 490.30080319 490.640625 494.640625 C491.02319962 495.27038239 491.40577423 495.90013977 491.79994202 496.54898071 C494.02733645 500.21548886 494.02733645 500.21548886 496.25509644 503.8817749 C497.90049154 506.58953167 499.54437763 509.29817241 501.18505859 512.00878906 C502.38960226 513.99400147 503.60081874 515.97518124 504.81884766 517.95214844 C505.36976074 518.85223633 505.92067383 519.75232422 506.48828125 520.6796875 C506.97466064 521.46843262 507.46104004 522.25717773 507.9621582 523.06982422 C509 525 509 525 509 527 C491.89315935 527.21032707 474.78672264 527.36898928 457.67888451 527.46630955 C449.73519014 527.51270031 441.79229952 527.57593382 433.84912109 527.67895508 C426.92503561 527.76871605 420.00153218 527.82673629 413.07688105 527.84679645 C409.41060169 527.858522 405.74598725 527.88603154 402.08024216 527.95157051 C397.98552681 528.02418378 393.89369696 528.02590618 389.79833984 528.02172852 C387.9792511 528.07026474 387.9792511 528.07026474 386.12341309 528.11978149 C378.08053686 528.03085054 378.08053686 528.03085054 374.9534874 525.04759216 C373.40459778 522.7565968 372.17823825 520.49804808 371 518 C370.309865 516.8547865 369.60724646 515.71694176 368.88867188 514.58935547 C368.25509766 513.52604004 367.62152344 512.46272461 366.96875 511.3671875 C366.61589935 510.77674652 366.26304871 510.18630554 365.89950562 509.57797241 C365.15078012 508.32472674 364.40302139 507.07090303 363.65618896 505.81652832 C361.66390831 502.47099447 359.66344407 499.13035573 357.6640625 495.7890625 C357.26438263 495.12072388 356.86470276 494.45238525 356.45291138 493.76379395 C347.48868582 478.78059003 338.33682298 463.91192949 329.17578125 449.04858398 C324.21210913 440.98798615 319.28399198 432.90645641 314.375 424.8125 C314.0183728 424.2245163 313.66174561 423.63653259 313.29431152 423.0307312 C311.53033783 420.12209479 309.76680207 417.2131931 308.00341797 414.30419922 C299.44390311 400.18715387 290.83895975 386.0993484 282.17382812 372.046875 C276.86423923 363.4270813 271.61212105 354.77354487 266.37075806 346.11221313 C260.69644574 336.74028699 254.93387347 327.42714896 249.08374023 318.16357422 C237 298.97326794 237 298.97326794 237 296 C236.34257812 296.19335938 235.68515625 296.38671875 235.0078125 296.5859375 C196.51938027 307.12071163 150.47283246 302 113 302 C113 376.25 113 450.5 113 527 C75.71 527 38.42 527 0 527 C0 415.46 0 303.92 0 189 C2.97354522 187.51322739 5.99731965 187.87366311 9.2565918 187.89320374 C10.01330831 187.89376044 10.77002481 187.89431715 11.54967213 187.89489073 C14.09955293 187.89794006 16.64935675 187.90813252 19.19921875 187.91821289 C21.02250079 187.92176753 22.8457838 187.92485393 24.66906738 187.92750549 C28.60542942 187.9340708 32.541769 187.94364045 36.4781189 187.95540047 C42.71693428 187.9736835 48.95574416 187.98329172 55.19458008 187.99131775 C72.93964045 188.01546969 90.68466768 188.05111331 108.4296875 188.09594727 C118.22297134 188.12061374 128.01624175 188.13790697 137.80955219 188.14750665 C143.99480826 188.15400407 150.17995339 188.16946981 156.36517143 188.19182408 C160.24250976 188.20367609 164.11982226 188.20692859 167.99717712 188.20792198 C169.77633938 188.21004377 171.55550186 188.21554448 173.3346405 188.2249527 C188.29407356 188.30089558 203.39107141 187.68676852 217.9375 183.875 C218.75831055 183.66327148 219.57912109 183.45154297 220.42480469 183.23339844 C239.76591786 177.97870548 258.33488221 168.48348597 274 156 C274.53834473 155.57380371 275.07668945 155.14760742 275.63134766 154.70849609 C289.23350516 143.83674066 303.1205655 129.758869 311 114 C208.37 113.67 105.74 113.34 0 113 C0 75.71 0 38.42 0 0 Z " fill="#EF8721" transform="translate(2093,229)"/>
<path d="M0 0 C139.92 0.33 279.84 0.66 424 1 C424 38.29 424 75.58 424 114 C321.37 114 218.74 114 113 114 C113 150.63 113 187.26 113 225 C230.81 225 348.62 225 470 225 C470 262.29 470 299.58 470 338 C314.9 338 159.8 338 0 338 C0 226.46 0 114.92 0 0 Z " fill="#EF8721" transform="translate(1545,418)"/>
<path d="M0 0 C4.49932223 -0.20455552 8.99743915 -0.32806276 13.5 -0.4375 C15.40265625 -0.52547852 15.40265625 -0.52547852 17.34375 -0.61523438 C18.58125 -0.63779297 19.81875 -0.66035156 21.09375 -0.68359375 C22.22490234 -0.72025146 23.35605469 -0.75690918 24.52148438 -0.79467773 C29.67259799 0.38211022 32.31671473 3.33628424 36 7 C36.83523602 7.8124294 37.67047205 8.6248588 38.53101826 9.46190727 C41.52162638 12.39415141 44.48276626 15.35406979 47.44006348 18.31980896 C48.58519969 19.4645085 49.73055587 20.60898802 50.87611151 21.75326782 C54.00711704 24.88204721 57.13501256 28.01391937 60.26239014 31.14632452 C63.6415148 34.52978058 67.02354232 37.91033287 70.4052124 41.29124451 C76.25841589 47.14392447 82.10979034 52.99842788 87.95991516 58.8541851 C96.41814508 67.32055315 104.87914548 75.78414801 113.34081763 84.24707557 C127.07031535 97.97876016 140.7975799 111.71267495 154.5234375 125.44799805 C167.85429488 138.78803895 181.18621124 152.12702007 194.51953125 165.46459961 C195.35021811 166.29555446 196.18090496 167.12650931 197.03676414 167.98264462 C203.53359957 174.48155955 210.03049631 180.98041318 216.52741241 187.47924745 C248.35492304 219.31618627 280.17708423 251.15846707 312 283 C312.33 190.6 312.66 98.2 313 3 C350.29 3 387.58 3 426 3 C426 176.91 426 350.82 426 530 C420.29622726 530.71297159 415.05894925 531.20910828 409.375 531.25 C408.65054687 531.270625 407.92609375 531.29125 407.1796875 531.3125 C406.468125 531.31765625 405.7565625 531.3228125 405.0234375 531.328125 C404.39356934 531.3374707 403.76370117 531.34681641 403.11474609 531.35644531 C395.7389646 530.1132404 391.08374439 524.49657333 386.07641602 519.43286133 C385.19920898 518.55769867 384.32200195 517.68253601 383.41821289 516.78085327 C381.02210623 514.38723395 378.63286736 511.98713771 376.24660993 509.58372331 C373.73925214 507.06126736 371.22372903 504.54697882 368.70921326 502.03166199 C364.48526477 497.80402498 360.26698308 493.57080258 356.05249023 489.33374023 C350.66172269 483.91416086 345.26178609 478.50381624 339.85882664 473.09639454 C335.19419205 468.42776103 330.53381614 463.75488282 325.87410998 459.08133101 C324.38632807 457.5894734 322.89797731 456.09818513 321.40954781 454.60697365 C318.62089694 451.8124606 315.83668906 449.01354599 313.05297852 446.21411133 C312.23665451 445.39666946 311.42033051 444.5792276 310.57926941 443.73701477 C309.8126297 442.96466492 309.04598999 442.19231506 308.25611877 441.39656067 C307.59929894 440.73676618 306.94247911 440.07697168 306.26575565 439.39718342 C304.40426398 437.42771378 302.63635529 435.42536708 300.87167931 433.37083817 C296.40843986 428.24421441 291.60708675 423.46822818 286.79701233 418.67002869 C285.77351105 417.64537327 284.75022755 416.62050027 283.72714132 415.59543043 C280.93304945 412.7971855 278.13587356 410.00204177 275.33815157 407.20742691 C272.31448106 404.18602673 269.29369914 401.16174084 266.27253723 398.13783264 C260.36067246 392.22152865 254.44611637 386.30792234 248.53058083 380.39528888 C243.72157893 375.58854827 238.91355751 370.78082897 234.10622978 365.97241402 C233.42119841 365.28722941 232.73616703 364.6020448 232.03037713 363.89609702 C230.63861549 362.50401564 229.24685608 361.11193203 227.8550989 359.7198462 C214.81419264 346.67609056 201.77022689 333.63539793 188.72520792 320.59575558 C177.5397593 309.41477451 166.35693508 298.23117421 155.17602539 287.0456543 C142.1820257 274.04629928 129.18640039 261.04857295 116.18818849 248.05342966 C114.8013189 246.66687861 113.41445139 245.28032547 112.02758598 243.89377022 C111.34527725 243.21161576 110.66296851 242.5294613 109.95998375 241.82663549 C105.15922398 237.02673799 100.3596232 232.22568344 95.56047249 227.42417717 C89.70936842 221.57026428 83.85647732 215.71814513 78.00131042 209.86829584 C75.01579842 206.88540623 72.03108094 203.90173327 69.04853821 200.91587448 C66.31501261 198.17935574 63.57916466 195.44518081 60.84149461 192.71280844 C59.85483174 191.72725691 58.86899845 190.74087396 57.88411058 189.75354861 C52.93332344 184.7914558 47.94431462 179.94507353 42.61533135 175.38864487 C40.57776715 173.63702093 38.65960615 171.78659057 36.75878906 169.88818359 C36.03153625 169.16408295 35.30428345 168.4399823 34.55499268 167.69393921 C33.79950134 166.93642365 33.04401001 166.17890808 32.265625 165.3984375 C31.46517761 164.59894684 30.66473022 163.79945618 29.84002686 162.97573853 C28.16149137 161.29787916 26.48420043 159.61877389 24.80810547 157.93847656 C22.24689592 155.3718894 19.68036448 152.81071087 17.11328125 150.25 C15.4762416 148.61229988 13.83951199 146.97428976 12.203125 145.3359375 C11.43953674 144.57437347 10.67594849 143.81280945 9.88922119 143.02816772 C9.17457703 142.3103714 8.45993286 141.59257507 7.72363281 140.85302734 C7.09934387 140.22794281 6.47505493 139.60285828 5.83184814 138.95883179 C5.22733826 138.3124173 4.62282837 137.66600281 4 137 C3.27256592 136.35715561 2.54513184 135.71431122 1.7956543 135.05198669 C-1.12950177 130.08024051 -0.52100465 124.97369702 -0.45410156 119.31518555 C-0.45468567 118.0269841 -0.45526978 116.73878265 -0.45587158 115.4115448 C-0.45701767 111.88693557 -0.43352617 108.36287257 -0.40557575 104.83839011 C-0.38054418 101.15220149 -0.37821873 97.46599988 -0.37347412 93.77973938 C-0.36104945 86.80283977 -0.32823492 79.82619133 -0.28807616 72.84940225 C-0.24334247 64.90509571 -0.22136743 56.96077707 -0.20129442 49.0163759 C-0.15950167 32.67743698 -0.08915974 16.33875056 0 0 Z " fill="#2B2A29" transform="translate(392,226)"/>
<path d="M0 0 C18.11530377 -0.23382486 36.23021483 -0.41005069 54.34670258 -0.51812172 C62.75899259 -0.56964004 71.17034388 -0.639847 79.58203125 -0.75439453 C86.91558675 -0.85421264 94.24846236 -0.91861551 101.58267832 -0.94088495 C105.46488545 -0.95389946 109.34514801 -0.98437452 113.22673035 -1.05730057 C116.88485209 -1.12546787 120.54023989 -1.14606292 124.19893646 -1.13107681 C126.17299907 -1.13511632 128.14676724 -1.18879051 130.12005615 -1.24420166 C138.66849946 -1.14536694 138.66849946 -1.14536694 142.53898621 2.18405533 C144.57819522 4.70335431 146.31594699 7.23424851 148 10 C148.81596359 11.13065692 149.64011459 12.25550577 150.4765625 13.37109375 C151.18554688 14.38300781 151.89453125 15.39492187 152.625 16.4375 C156.61779792 22.0942931 160.69482302 27.68351075 164.8125 33.25 C169.41305042 39.47313827 173.97941285 45.71853061 178.5 52 C182.96015427 58.19658129 187.46249169 64.35983975 192 70.5 C197.08205078 77.3770356 202.11002797 84.29033083 207.10546875 91.23046875 C211.03392016 96.68083838 215.00705268 102.09674016 219 107.5 C223.53751033 113.64016298 228.0396483 119.80355888 232.5 126 C242.18164652 139.44475744 252.02128617 152.77424436 262 166 C266.44563528 161.84465807 269.93669023 157.232691 273.5 152.3125 C274.11093506 151.475979 274.72187012 150.63945801 275.35131836 149.77758789 C277.23943916 147.18881152 279.12072963 144.59520648 281 142 C281.84522217 140.83452637 281.84522217 140.83452637 282.70751953 139.64550781 C287.54793746 132.96777733 292.36774749 126.27529564 297.17578125 119.57421875 C303.55403905 110.69753356 310.04315937 101.9150747 316.62011719 93.18457031 C321.42057653 86.80137788 326.09107257 80.33858124 330.70605469 73.82080078 C338.27659799 63.16776079 345.99604654 52.62270261 353.76416016 42.11328125 C357.75594922 36.7066949 361.7018183 31.26902134 365.625 25.8125 C369.94301968 19.81076995 374.31388372 13.85254406 378.75 7.9375 C379.26385254 7.25212158 379.77770508 6.56674316 380.30712891 5.8605957 C383.86445984 1.13554016 383.86445984 1.13554016 385 0 C386.80960871 -0.09641497 388.62302128 -0.12187398 390.43519592 -0.12025452 C391.61455215 -0.12162918 392.79390839 -0.12300385 394.00900269 -0.12442017 C395.3145108 -0.12082489 396.62001892 -0.11722961 397.96508789 -0.11352539 C399.34452818 -0.11324352 400.72396861 -0.11340125 402.10340881 -0.1139679 C405.85944118 -0.11425588 409.61544189 -0.10835905 413.37146688 -0.10139394 C417.29260045 -0.09516051 421.21373467 -0.09455661 425.13487244 -0.09336853 C432.56511611 -0.09025518 439.99534514 -0.08204175 447.42558235 -0.07201904 C455.88251638 -0.06085801 464.3394511 -0.05534748 472.79639065 -0.05032361 C490.19760225 -0.03985914 507.59879958 -0.02225963 525 0 C523.90000856 1.74717784 522.7975581 3.49280767 521.6940918 5.23779297 C521.08043259 6.21005829 520.46677338 7.18232361 519.83451843 8.18405151 C517.35319436 11.99283351 514.6254221 15.55835733 511.8125 19.125 C507.41944774 24.78163332 503.16215192 30.50217311 499.0625 36.375 C494.24123815 43.27860605 489.29160071 50.07566883 484.28149414 56.84326172 C480.31686099 62.20240462 476.39347572 67.5889698 472.5 73 C465.16017162 83.19371061 457.69545144 93.29401964 450.22949219 103.39550781 C443.40034581 112.63804661 436.6079307 121.9038828 429.89428711 131.23071289 C425.38568587 137.4862521 420.81319395 143.69318346 416.23046875 149.89453125 C412.28584596 155.23857676 408.38030944 160.60910781 404.5 166 C399.45992181 173.00215242 394.35786615 179.95613256 389.23046875 186.89453125 C385.28584596 192.23857676 381.38030944 197.60910781 377.5 203 C372.45992181 210.00215242 367.35786615 216.95613256 362.23046875 223.89453125 C357.74394146 229.9727312 353.31399566 236.08988234 348.90112305 242.22167969 C344.38102318 248.49368709 339.80182999 254.72090306 335.1953125 260.9296875 C334.11855273 262.38448641 333.05732692 263.85091014 332.01188469 265.32837486 C330 268 330 268 327.50583076 270.69355202 C318.01817897 281.41057009 318.60453181 292.35429457 318.77294922 306.07958984 C318.76589736 308.49543354 318.75445041 310.91126777 318.7389679 313.32707214 C318.71255525 319.17443181 318.73152961 325.02033804 318.77115409 330.86759387 C318.81481384 337.67874579 318.8015451 344.48944223 318.78507616 351.30067106 C318.75720257 363.44444724 318.77361868 375.58773533 318.81835938 387.73144531 C318.86169178 399.51894284 318.88375776 411.30617012 318.87792969 423.09375 C318.87742339 424.19705442 318.87742339 424.19705442 318.87690687 425.32264781 C318.87378718 431.72203576 318.86907035 438.12142236 318.86419678 444.52080917 C318.84532434 472.01424103 318.93123547 499.50632419 319 527 C281.71 527 244.42 527 206 527 C206.05542969 509.48808594 206.11085938 491.97617187 206.16796875 473.93359375 C206.17856969 462.83654621 206.1863879 451.73961215 206.18164062 440.64257812 C206.17925371 434.81127932 206.1775534 428.97998093 206.17700195 423.14868164 C206.17690425 422.4178988 206.17680656 421.68711596 206.1767059 420.93418819 C206.17613154 409.16092708 206.21426343 397.38809686 206.26687535 385.61496698 C206.32006609 373.51798197 206.33123641 361.42147514 206.3040064 349.32440144 C206.28991425 342.53548088 206.29474977 335.74770648 206.34822655 328.95895195 C206.3967203 322.56027022 206.39308195 316.16367294 206.35058594 309.76496887 C206.34402833 307.42497342 206.35602352 305.08483544 206.38863564 302.74505806 C206.59051087 287.26906454 204.62492678 278.41137352 194 267 C192.83171982 265.44128341 191.6816983 263.86811214 190.57421875 262.265625 C190.0954126 261.59990479 189.61660645 260.93418457 189.12329102 260.24829102 C188.41257446 259.25913696 188.41257446 259.25913696 187.6875 258.25 C181.44326939 249.58367362 175.11399061 240.98168533 168.76611328 232.39111328 C165.25687377 227.64000853 161.75538724 222.88318709 158.25244141 218.12744141 C155.32579251 214.15468511 152.39729226 210.18332154 149.46484375 206.21484375 C141.02734891 194.791038 132.69116362 183.29758158 124.39550781 171.77050781 C116.00916631 160.12139515 107.53149634 148.54316631 99 137 C91.57878505 126.95905114 84.18828194 116.89933596 76.89208984 106.76708984 C70.66337597 98.12750396 64.33045986 89.5651506 58 81 C48.37981514 67.98383151 38.84982845 54.90758268 29.39550781 41.77050781 C27.78534503 39.53389872 26.17415351 37.29803511 24.5625 35.0625 C24.03527344 34.33047363 23.50804688 33.59844727 22.96484375 32.84423828 C20.07378836 28.83928655 17.15779753 24.85472852 14.2109375 20.890625 C13.5811499 20.04234131 12.9513623 19.19405762 12.30249023 18.32006836 C11.09452757 16.69590491 9.88330463 15.07415913 8.66821289 13.45532227 C8.11641357 12.71338623 7.56461426 11.9714502 6.99609375 11.20703125 C6.51325928 10.5622583 6.0304248 9.91748535 5.53295898 9.25317383 C3.50090443 6.26641933 1.78161445 3.14294132 0 0 Z " fill="#EF8721" transform="translate(3126,229)"/>
<path d="M0 0 C46.86 0 93.72 0 142 0 C139.86793447 5.33016382 137.34476994 10.29425244 134.6875 15.375 C133.89061768 16.90205566 133.89061768 16.90205566 133.07763672 18.45996094 C128.88586219 26.43599341 124.47644774 34.27141762 119.9987793 42.08935547 C115.80333635 49.46293816 111.86909164 56.95077484 108 64.5 C102.62871563 74.97430177 96.98219515 85.24862598 91.14453125 95.46875 C84.76173238 106.65190053 78.67500887 118.00239598 72.59375 129.3515625 C67.08367796 139.63054095 61.54140979 149.87639036 55.75 160 C49.44122356 171.04378852 43.51082383 182.27683772 37.58520508 193.52880859 C32.97622326 202.2791724 28.30950917 210.99203274 23.54443359 219.65869141 C19.51162908 227.01376526 15.58923511 234.42486616 11.67053223 241.84106445 C5.30330209 253.88808554 -1.21836182 265.82221357 -7.96875 277.66015625 C-14.47015355 289.07285604 -20.69335066 300.64144357 -26.8515625 312.2421875 C-27.3508149 313.18247299 -27.3508149 313.18247299 -27.8601532 314.14175415 C-28.19626114 314.77479462 -28.53236908 315.40783508 -28.87866211 316.06005859 C-29.38718216 317.01776154 -29.38718216 317.01776154 -29.90597534 317.99481201 C-30.59370797 319.2900306 -31.28130968 320.58531871 -31.96878052 321.88067627 C-36.94652383 331.25184799 -42.07854966 340.51877458 -47.34741211 349.73022461 C-51.59270371 357.18795582 -55.5623562 364.76906494 -59.49243164 372.39648438 C-62.91126598 378.99867923 -66.49310306 385.4859546 -70.1875 391.9375 C-75.48582807 401.19345998 -80.52647557 410.56732009 -85.5 420 C-90.9687059 430.37183048 -96.56533903 440.64424805 -102.3918457 450.82104492 C-106.68739288 458.35833617 -110.71183094 466.01937982 -114.69262695 473.7265625 C-118.46347737 481.0149181 -122.39395839 488.19799306 -126.40625 495.35546875 C-129.47871682 500.83943677 -132.49014744 506.35648586 -135.5 511.875 C-136.27537109 513.29437866 -136.27537109 513.29437866 -137.06640625 514.74243164 C-137.54980469 515.62922607 -138.03320312 516.51602051 -138.53125 517.4296875 C-138.95986328 518.21585449 -139.38847656 519.00202148 -139.83007812 519.81201172 C-140.92287009 521.85575162 -141.96355733 523.92711465 -143 526 C-153.89 526 -164.78 526 -176 526 C-184.76924473 510.21535949 -193.06907868 494.22742167 -201.26049805 478.13696289 C-211.75313011 457.44921494 -211.75313011 457.44921494 -222.890625 437.10546875 C-223.73560547 435.61370117 -223.73560547 435.61370117 -224.59765625 434.09179688 C-225.73253374 432.09704176 -226.88179401 430.11042198 -228.04296875 428.13085938 C-232.08451193 420.91789348 -232.08451193 420.91789348 -231.71875 416.9453125 C-231.1515625 415.97335937 -230.584375 415.00140625 -230 414 C-229.41557129 412.90860718 -229.41557129 412.90860718 -228.81933594 411.79516602 C-227.34553864 409.06221489 -225.80383862 406.37571376 -224.25 403.6875 C-223.06713714 401.61881608 -221.8848657 399.54979391 -220.703125 397.48046875 C-220.09146484 396.41231934 -219.47980469 395.34416992 -218.84960938 394.24365234 C-215.86743325 389.01382236 -212.93466545 383.75658952 -210 378.5 C-205.54347861 370.52870108 -201.06478441 362.57053224 -196.5625 354.625 C-189.94398867 342.93720522 -183.42369823 331.19558379 -176.91162109 319.44824219 C-168.39434418 304.08451049 -159.857971 288.73188403 -151.26708984 273.40917969 C-145.11011198 262.4223525 -138.99773839 251.41087288 -132.88671875 240.3984375 C-131.01976523 237.03560196 -129.15085885 233.6738599 -127.28125 230.3125 C-120.49496809 218.10985719 -113.72981217 205.89589973 -106.99002075 193.6675415 C-101.5627363 183.82120396 -96.10951959 173.98953627 -90.64453125 164.1640625 C-86.07915767 155.95213267 -81.53517099 147.72862827 -77 139.5 C-71.85063964 130.15698463 -66.68546128 120.82305142 -61.5 111.5 C-56.33764383 102.21739294 -51.19164365 92.92598426 -46.0625 83.625 C-45.73105988 83.02399475 -45.39961975 82.4229895 -45.05813599 81.80377197 C-42.70484459 77.5361673 -40.35233299 73.268133 -38 69 C-35.31303616 64.12470425 -32.62562642 59.24965483 -29.9375 54.375 C-29.60897034 53.779151 -29.28044067 53.183302 -28.94195557 52.56939697 C-25.27406307 45.91791524 -21.59855018 39.27078067 -17.90625 32.6328125 C-17.5710585 32.03012543 -17.235867 31.42743835 -16.89051819 30.80648804 C-15.30663418 27.95921035 -13.72148007 25.11265593 -12.13452148 22.26708984 C-8.02054706 14.87875128 -4.01026672 7.44763819 0 0 Z " fill="#2B2A29" transform="translate(1342,230)"/>
<path d="M0 0 C155.1 0 310.2 0 470 0 C470 37.29 470 74.58 470 113 C314.9 113 159.8 113 0 113 C0 75.71 0 38.42 0 0 Z " fill="#EF8721" transform="translate(1545,230)"/>
<path d="M0 0 C37.29 0 74.58 0 113 0 C113 126.06 113 252.12 113 382 C75.71 382 38.42 382 0 382 C0 255.94 0 129.88 0 0 Z " fill="#2B2A29" transform="translate(190,370)"/>
<path d="M0 0 C46.86 0 93.72 0 142 0 C146.62 8.58 151.24 17.16 156 26 C160.81925859 34.51564234 160.81925859 34.51564234 165.65234375 43.0234375 C169.70981375 50.21288389 173.57716193 57.50327055 177.45269775 64.79165649 C182.30691566 73.9149481 187.31555858 82.9379993 192.43969727 91.91235352 C195.73018715 97.69442445 198.88415739 103.52719937 201.9375 109.4375 C205.63130654 116.57624495 209.59801292 123.51848111 213.6875 130.4375 C218.86352293 139.2009496 223.79327839 148.07259493 228.5625 157.0625 C233.22748746 165.85402756 237.96166023 174.59440558 242.875 183.25 C243.40448242 184.18521484 243.93396484 185.12042969 244.47949219 186.08398438 C246.89098237 190.33171912 249.32514215 194.56344407 251.80859375 198.76953125 C252.23479004 199.50075195 252.66098633 200.23197266 253.10009766 200.98535156 C253.87645559 202.31544688 254.66300396 203.63967807 255.46240234 204.95605469 C257.74232832 208.88217187 258.34953673 211.50196767 258 216 C257.02880859 218.50341797 257.02880859 218.50341797 255.6484375 220.9921875 C255.13434326 221.93151123 254.62024902 222.87083496 254.09057617 223.83862305 C253.52443604 224.84062744 252.9582959 225.84263184 252.375 226.875 C251.78887939 227.93436768 251.20275879 228.99373535 250.59887695 230.08520508 C246.00393949 238.34265881 241.24077978 246.50090747 236.44702148 254.64404297 C231.81838484 262.52883095 227.34594153 270.49082662 222.9375 278.5 C222.43183502 279.41839661 222.43183502 279.41839661 221.91595459 280.35534668 C218.43240811 286.68834604 214.97427819 293.03452208 211.5546875 299.40234375 C204.35759468 312.80323638 196.84902455 325.96941559 189 339 C185.10295623 337.70098541 184.81135633 336.36918065 182.8828125 332.8046875 C182.28267334 331.70825928 181.68253418 330.61183105 181.06420898 329.48217773 C180.41774058 328.27982032 179.7713393 327.07742682 179.125 325.875 C178.45166851 324.6388229 177.77725789 323.40323302 177.10180664 322.16821289 C176.06817603 320.27822317 175.03513359 318.38794593 174.00544739 316.49580383 C170.88715331 310.76887405 167.67022324 305.10052944 164.4375 299.4375 C159.12884226 290.09861938 154.01715213 280.66118398 148.94458008 271.19238281 C145.56082955 264.88108595 142.13138139 258.60387376 138.59692383 252.37597656 C134.82381376 245.7176469 131.13121482 239.0150711 127.4375 232.3125 C126.92416107 231.38115738 126.92416107 231.38115738 126.40045166 230.43099976 C124.63751819 227.23236698 122.87503651 224.03348558 121.11279297 220.83447266 C118.07492685 215.32032607 115.03303633 209.80840039 111.99130249 204.29638672 C110.33521891 201.29531834 108.67930997 198.29415361 107.0234375 195.29296875 C106.53024269 194.39908951 106.53024269 194.39908951 106.02708435 193.4871521 C103.96622464 189.75181834 101.90595266 186.01616097 99.84606934 182.2802887 C98.10588775 179.12426269 96.36547674 175.96836324 94.625 172.8125 C94.28666138 172.19897675 93.94832275 171.58545349 93.59973145 170.95333862 C89.27623952 163.11417608 84.93838948 155.28323721 80.58007812 147.46337891 C77.90666903 142.65728793 75.27332266 137.83036484 72.64990234 132.99682617 C68.23288859 124.85936583 63.75154935 116.77032391 59.125 108.75 C54.62790231 100.94897248 50.30885973 93.06514305 46.0625 85.125 C40.09126199 73.96269807 33.92014002 62.928345 27.66064453 51.92578125 C20.0543784 38.52479723 12.54960614 25.06492326 5.125 11.5625 C4.60671631 10.62656006 4.08843262 9.69062012 3.55444336 8.72631836 C3.08530518 7.86917236 2.61616699 7.01202637 2.1328125 6.12890625 C1.71918457 5.37681885 1.30555664 4.62473145 0.87939453 3.84985352 C0 2 0 2 0 0 Z " fill="#2B2A29" transform="translate(879,230)"/>
<path d="M0 0 C7.77464789 6.6639839 7.77464789 6.6639839 10.4375 9.4375 C12.77237843 11.82159219 15.1735247 14.05239317 17.71069336 16.21899414 C22.05056647 19.99382341 26.13132969 23.98681542 30.19140625 28.05859375 C30.94034653 28.8065773 31.6892868 29.55456085 32.46092224 30.32521057 C34.03271225 31.89632464 35.60325849 33.46868392 37.17260742 35.04223633 C39.55601304 37.43099846 41.94471068 39.81437446 44.33398438 42.19726562 C45.87011237 43.7340545 47.40593009 45.2711536 48.94140625 46.80859375 C49.64576309 47.51092636 50.35011993 48.21325897 51.07582092 48.93687439 C54.98987924 52.86922775 58.70855648 56.9074224 62.33363342 61.10679626 C64.87944909 63.99916569 67.57963095 66.72287866 70.30859375 69.44140625 C70.87900894 70.01277817 71.44942413 70.58415009 72.03712463 71.1728363 C73.2316122 72.36799774 74.42733676 73.56192411 75.62426758 74.75463867 C77.43360933 76.55862085 79.23754319 78.36788665 81.04101562 80.17773438 C86.36915339 85.50871543 91.69637304 90.77177294 97.43676758 95.66381836 C99.42016373 97.35913729 101.28439615 99.15142816 103.125 101 C104.02605469 101.8971875 104.02605469 101.8971875 104.9453125 102.8125 C105.62335938 103.534375 106.30140625 104.25625 107 105 C107.49143808 105.37702088 107.98287617 105.75404177 108.48920631 106.14248753 C112.22153829 109.46967307 113.36364464 112.47889903 113.66600108 117.47217929 C113.76753693 121.36196081 113.73361372 125.24421717 113.68115234 129.13452148 C113.67945875 130.88922568 113.68041215 132.64393413 113.68380737 134.39863586 C113.68552612 139.15051049 113.65029589 143.90147302 113.60836363 148.65313601 C113.57080937 153.62320734 113.56732756 158.5933005 113.56021118 163.56349182 C113.54157614 172.96994088 113.49235722 182.37597063 113.43211424 191.78223521 C113.35245511 204.49660518 113.32011168 217.21109013 113.28510094 229.92564678 C113.22871392 249.95074516 113.10917236 269.97495875 113 290 C75.71 290 38.42 290 0 290 C0 194.3 0 98.6 0 0 Z " fill="#2B2A29" transform="translate(392,466)"/>
<path d="M0 0 C11.52564077 9.71769712 19.77300775 24.8183701 21.15234375 39.93359375 C22.21166483 58.95438717 20.05162685 76.75170198 7.29150391 91.82763672 C-4.4075766 104.82615815 -19.58832013 111.30064736 -36.84765625 112.93359375 C-37.96333984 113.041875 -37.96333984 113.041875 -39.1015625 113.15234375 C-55.74214782 113.91016927 -72.33923682 107.62021636 -84.84765625 96.93359375 C-97.64773828 84.96127727 -103.67482207 69.11039097 -104.32055664 51.79980469 C-104.51429574 34.43659276 -99.28818299 16.62375031 -87.00390625 3.890625 C-62.89141977 -17.9940774 -26.10164606 -18.94070064 0 0 Z " fill="#EF8721" transform="translate(285.84765625,232.06640625)"/>
<path d="M0 0 C7.89382836 -0.09082601 15.78724186 -0.1640155 23.68145466 -0.20724869 C27.34813866 -0.22801169 31.01444276 -0.25611844 34.6809082 -0.30175781 C38.22766472 -0.3456244 41.77405877 -0.36922168 45.3210659 -0.37950897 C47.31445154 -0.39035921 49.30769393 -0.42151824 51.30085754 -0.45318604 C62.10655003 -0.45581786 71.21051818 1.36117239 79.21484375 9.00390625 C86.82392974 17.51209649 89.87177521 25.63073565 90 37 C89.30808558 44.35845495 86.67827523 51.16129724 84 58 C84.60328125 58.59425781 85.2065625 59.18851563 85.828125 59.80078125 C94.92947429 69.23976124 97.62820249 77.47544469 97.47119141 90.36499023 C97.0496485 100.95597688 93.5101672 109.41350996 86 117 C79.3083432 122.38757408 72.25842974 124.25760581 63.68774414 124.22705078 C62.98313521 124.22729185 62.27852629 124.22753292 61.55256557 124.2277813 C59.296629 124.22630162 57.04103284 124.21113166 54.78515625 124.1953125 C53.3824479 124.19236787 51.97973736 124.19033002 50.57702637 124.18920898 C45.40548382 124.17877026 40.23398848 124.15084772 35.0625 124.125 C17.7065625 124.063125 17.7065625 124.063125 0 124 C0 91.99 0 59.98 0 27 C5.28 27 10.56 27 16 27 C17 28 17 28 17.11352539 30.31665039 C17.10828857 31.31688232 17.10305176 32.31711426 17.09765625 33.34765625 C17.09443359 34.42724609 17.09121094 35.50683594 17.08789062 36.61914062 C17.07951172 37.75544922 17.07113281 38.89175781 17.0625 40.0625 C17.05798828 41.20267578 17.05347656 42.34285156 17.04882812 43.51757812 C17.03699747 46.34510351 17.0205141 49.1725264 17 52 C23.46002257 51.95833098 29.91918358 51.88600527 36.37866211 51.79248047 C38.57552306 51.7642761 40.77248539 51.74305893 42.96948242 51.72900391 C46.1299223 51.70756751 49.28914396 51.6609122 52.44921875 51.609375 C53.42960617 51.60814636 54.40999359 51.60691772 55.42008972 51.60565186 C59.74260521 51.51306418 62.30223664 51.4283776 66.04614258 49.12988281 C70.21782493 44.58236853 71.57057772 40.37652423 71.35546875 34.3125 C70.64097461 29.66436232 68.75396758 25.64143342 65.31072998 22.41911316 C62.31131747 20.57705208 60.27255712 20.60272557 56.76269531 20.56762695 C55.50169006 20.54783279 54.24068481 20.52803864 52.94146729 20.50764465 C51.57035471 20.50087541 50.19924051 20.49442848 48.828125 20.48828125 C47.42135043 20.47143099 46.01459089 20.45328027 44.60784912 20.43388367 C40.91225886 20.38641461 37.21672952 20.35658559 33.52093506 20.33044434 C29.74690724 20.30062295 25.97308926 20.25409811 22.19921875 20.20898438 C14.79956535 20.12298642 7.39994257 20.05717046 0 20 C0 13.4 0 6.8 0 0 Z M17 72 C17 82.56 17 93.12 17 104 C24.56363086 104.13793856 32.12287983 104.257328 39.68676758 104.32958984 C42.25820725 104.35971821 44.82954454 104.40062942 47.40063477 104.45263672 C51.10198253 104.52561903 54.80196896 104.55949789 58.50390625 104.5859375 C59.64896133 104.61690521 60.79401642 104.64787292 61.97377014 104.67977905 C67.30902091 104.68201659 70.99303959 104.61645743 75.19116211 101.10400391 C79.19219321 97.0627375 80.09434282 93.67585194 80.3125 88.0625 C80.20798179 83.6662027 79.54887274 80.69147086 77 77 C72.82994274 73.23677759 70.46311833 71.87331015 64.90771484 71.88647461 C63.84676605 71.88655014 62.78581726 71.88662567 61.69271851 71.88670349 C60.54373077 71.89186478 59.39474304 71.89702606 58.2109375 71.90234375 C56.45059677 71.90446617 56.45059677 71.90446617 54.6546936 71.90663147 C50.89477015 71.91224311 47.13490555 71.92479762 43.375 71.9375 C40.83073002 71.9425135 38.28645912 71.94707667 35.7421875 71.95117188 C29.49475057 71.96136678 23.24744142 71.98094001 17 72 Z " fill="#2B2A29" transform="translate(2250,885)"/>
<path d="M0 0 C6.27 0 12.54 0 19 0 C23.5 9 23.5 9 24.99536133 12.84521484 C25.3328389 13.70746674 25.67031647 14.56971863 26.01802063 15.45809937 C26.54470589 16.82075424 26.54470589 16.82075424 27.08203125 18.2109375 C27.45929855 19.17794586 27.83656586 20.14495422 28.2252655 21.14126587 C29.42458323 24.2178001 30.61863295 27.29634709 31.8125 30.375 C32.60186492 32.40247951 33.39157573 34.4298244 34.18164062 36.45703125 C35.72419395 40.41635967 37.26308002 44.37708383 38.79931641 48.33886719 C40.23400169 52.03635671 41.67892239 55.72954401 43.13427734 59.41894531 C43.62730598 60.67295639 43.62730598 60.67295639 44.1302948 61.95230103 C44.74370451 63.51146296 45.35970126 65.06961046 45.97871399 66.6265564 C48 71.77576572 48 71.77576572 48 74 C48.66 74 49.32 74 50 74 C50.11375977 73.14613205 50.22751953 72.2922641 50.34472656 71.41252136 C51.03246897 67.83090869 52.12102194 64.78033422 53.484375 61.3996582 C53.73650757 60.76961884 53.98864014 60.13957947 54.24841309 59.490448 C55.07661478 57.424899 55.91326364 55.36288589 56.75 53.30078125 C57.32965502 51.85944996 57.90874806 50.41789254 58.48730469 48.97612 C60.00725664 45.19238726 61.53428511 41.41155171 63.06298828 37.63134766 C64.92124297 33.03267568 66.77155802 28.43080504 68.62261963 23.82923412 C70.06226106 20.25067212 71.5032184 16.67266015 72.94824219 13.0962677 C73.21334595 12.43929398 73.47844971 11.78232025 73.75158691 11.10543823 C74.46696254 9.33274339 75.1831584 7.56037961 75.89941406 5.78804016 C76.65304 3.87893037 77.35095052 1.94714843 78 0 C79.86254883 0.18969727 79.86254883 0.18969727 82 1 C83.1940918 3.10913086 83.1940918 3.10913086 84.19921875 5.96484375 C84.5957666 7.05571289 84.99231445 8.14658203 85.40087891 9.27050781 C85.82546387 10.48061523 86.25004883 11.69072266 86.6875 12.9375 C87.63721975 15.55965475 88.60124756 18.17646278 89.56640625 20.79296875 C89.82677673 21.50224518 90.08714722 22.21152161 90.35540771 22.94229126 C93.70137402 31.99798876 97.33321417 40.93977825 100.96255493 49.88479614 C102.11970772 52.73695555 103.27220099 55.5909696 104.42456055 58.44506836 C105.1394179 60.20833008 105.85465083 61.97143959 106.5703125 63.734375 C106.90212021 64.5559761 107.23392792 65.37757721 107.57579041 66.22407532 C108.85183977 69.87813546 108.85183977 69.87813546 111 73 C111.23057602 72.40992157 111.46115204 71.81984314 111.69871521 71.21188354 C114.14724344 64.94675624 116.5982413 58.68259884 119.05053711 52.41894531 C119.95967137 50.09594005 120.8682211 47.77270592 121.77612305 45.44921875 C127.71828141 30.24360709 133.76791058 15.08921911 140 0 C146.27 0 152.54 0 159 0 C156.69942274 8.21100733 153.71128484 16.0325857 150.51171875 23.9296875 C149.97030832 25.27567534 149.42933855 26.6218405 148.88877869 27.96817017 C147.74786777 30.8077698 146.60450863 33.64636454 145.45904541 36.48413086 C142.78947182 43.09827142 140.13216562 49.7173401 137.4753952 56.33663177 C136.89038359 57.7941343 136.30522436 59.25157758 135.7199173 60.70896149 C130.3818779 74.00243263 125.14178517 87.33179226 120.01049805 100.70654297 C117.50651042 107.22153984 114.91066128 113.65448252 112 120 C109.04536239 117.48168991 107.88750925 114.82518053 106.42578125 111.26171875 C105.93037842 110.06619385 105.43497559 108.87066895 104.92456055 107.63891602 C104.38716505 106.32179447 103.84981272 105.00465532 103.3125 103.6875 C102.75190189 102.32899714 102.19044171 100.97084973 101.62817383 99.61303711 C100.72796644 97.43871462 99.82840715 95.2641428 98.9315033 93.0884552 C95.42561899 84.58634511 91.84993112 76.11378336 88.2749939 67.64053345 C86.8530921 64.26974635 85.43312618 60.8981454 84.01321411 57.52651978 C82.67582455 54.35086633 81.33791006 51.17543418 80 48 C79.63867477 48.8442025 79.63867477 48.8442025 79.27005005 49.70545959 C76.70653181 55.69451851 74.14208193 61.68317793 71.57714844 67.67163086 C70.6267259 69.8909346 69.67652196 72.11033198 68.7265625 74.32983398 C62.20121389 89.57523267 55.63031534 104.7999441 49 120 C48.34 120 47.68 120 47 120 C46.80180664 119.43869385 46.60361328 118.8773877 46.39941406 118.29907227 C40.50261828 101.73428876 33.98960739 85.45082667 27.3125 69.1875 C20.91190891 53.59644711 14.55722247 37.99161156 8.375 22.3125 C8.05931061 21.51363373 7.74362122 20.71476746 7.41836548 19.89169312 C6.53460683 17.65388174 5.6533924 15.41509071 4.7734375 13.17578125 C4.39204369 12.20887863 4.39204369 12.20887863 4.00294495 11.22244263 C2.54855748 7.50569188 1.26463727 3.79391182 0 0 Z " fill="#2B2A29" transform="translate(1374,888)"/>
<path d="M0 0 C30.03 0 60.06 0 91 0 C91 21.50128378 88.6366685 35.88272704 73.69506836 50.94165039 C70.22023625 54.42734629 70.22023625 54.42734629 69 59 C70.0594873 61.89121625 70.0594873 61.89121625 71.76171875 64.9609375 C72.06367157 65.53958054 72.36562439 66.11822357 72.67672729 66.71440125 C73.66868151 68.60765771 74.67775604 70.49118036 75.6875 72.375 C76.37778438 73.68368244 77.06714907 74.99285037 77.75561523 76.30249023 C82.43082703 85.16890394 87.21818365 93.97541457 92.04467773 102.76025391 C102 120.88806112 102 120.88806112 102 124 C95.4 124 88.8 124 82 124 C81.17757812 122.40414062 80.35515625 120.80828125 79.5078125 119.1640625 C73.96633891 108.44137366 68.39214123 97.75192799 62.48144531 87.22753906 C58.54144604 80.21114664 54.75720114 73.11559323 51 66 C48.36 66.33 45.72 66.66 43 67 C34.75 67 26.5 67 18 67 C18 85.81 18 104.62 18 124 C12.06 124 6.12 124 0 124 C0 83.08 0 42.16 0 0 Z M18 19 C18 28.57 18 38.14 18 48 C23.630625 48.0928125 23.630625 48.0928125 29.375 48.1875 C30.53692871 48.21481201 31.69885742 48.24212402 32.89599609 48.27026367 C45.72546387 48.37149738 53.83172657 44.95577521 62.9765625 36.08203125 C67.20427039 31.57547454 72 25.47948195 72 19 C54.18 19 36.36 19 18 19 Z " fill="#2B2A29" transform="translate(2063,885)"/>
<path d="M0 0 C30.03 0 60.06 0 91 0 C91 19.32499091 87.61376904 37.34495117 74 52 C69.6 56 69.6 56 67 56 C70.96869467 64.18892633 75.17501335 72.21581859 79.5625 80.1875 C84.36321167 88.92189228 89.03224106 97.71760165 93.625 106.5625 C94.22900635 107.72225342 94.8330127 108.88200684 95.45532227 110.0769043 C96.01920654 111.16656494 96.58309082 112.25622559 97.1640625 113.37890625 C97.66373535 114.3438501 98.1634082 115.30879395 98.67822266 116.30297852 C99.90798158 118.81224094 100.96218366 121.40545916 102 124 C95.4 124 88.8 124 82 124 C80.91203125 121.94523438 79.8240625 119.89046875 78.703125 117.7734375 C77.21940103 114.97361294 75.7347543 112.17427829 74.25 109.375 C73.86617157 108.65114105 73.48234314 107.9272821 73.08688354 107.18148804 C67.66318123 96.95732633 62.19264287 86.76282034 56.58105469 76.64013672 C54.4795249 72.82762025 52.46631038 69.11404797 51 65 C47.04 65.99 47.04 65.99 43 67 C34.75 67 26.5 67 18 67 C18 85.81 18 104.62 18 124 C12.06 124 6.12 124 0 124 C0 83.08 0 42.16 0 0 Z M18 19 C18 28.57 18 38.14 18 48 C21.733125 48.0825 25.46625 48.165 29.3125 48.25 C31.04173706 48.30462402 31.04173706 48.30462402 32.8059082 48.36035156 C44.97097938 48.48867728 54.23334883 44.55865984 62.90625 36.15234375 C67.15659325 31.62284659 72 25.51961401 72 19 C54.18 19 36.36 19 18 19 Z " fill="#2B2A29" transform="translate(1652,885)"/>
<path d="M0 0 C30.03 0 60.06 0 91 0 C89.84331498 19.66364533 87.83727344 37.17613053 73 51 C71.5459375 52.2684375 71.5459375 52.2684375 70.0625 53.5625 C69.381875 54.366875 68.70125 55.17125 68 56 C68.35152395 59.83141017 69.7449496 62.80642313 71.51953125 66.18359375 C72.30239502 67.6826123 72.30239502 67.6826123 73.10107422 69.21191406 C73.66584473 70.27635742 74.23061523 71.34080078 74.8125 72.4375 C75.39273926 73.5419043 75.97297852 74.64630859 76.57080078 75.78417969 C83.00285463 87.98536891 89.60917078 100.09391315 96.3046875 112.15234375 C96.9531867 113.33069521 97.60162969 114.50907761 98.25 115.6875 C98.79140625 116.66074219 99.3328125 117.63398437 99.890625 118.63671875 C101 121 101 121 101 124 C94.4 124 87.8 124 81 124 C80.2575 122.47375 79.515 120.9475 78.75 119.375 C75.76566601 113.39932654 72.59019741 107.54168345 69.375 101.6875 C64.92825884 93.57881959 60.54776748 85.43871058 56.25 77.25 C55.46181885 75.75859497 55.46181885 75.75859497 54.65771484 74.23706055 C54.1777002 73.31836182 53.69768555 72.39966309 53.203125 71.453125 C52.77676758 70.64004883 52.35041016 69.82697266 51.91113281 68.98925781 C51 67 51 67 51 65 C47.04 65.99 47.04 65.99 43 67 C34.42 67 25.84 67 17 67 C17 85.81 17 104.62 17 124 C11.39 124 5.78 124 0 124 C0 83.08 0 42.16 0 0 Z M17 19 C17 28.57 17 38.14 17 48 C22.630625 48.0928125 22.630625 48.0928125 28.375 48.1875 C29.53692871 48.21481201 30.69885742 48.24212402 31.89599609 48.27026367 C42.57595914 48.35453625 51.04617846 46.34690343 59 39 C64.22766255 33.82978429 68.18128144 28.8119032 71 22 C71 21.01 71 20.02 71 19 C53.18 19 35.36 19 17 19 Z " fill="#2B2A29" transform="translate(3441,885)"/>
<path d="M0 0 C1.1007637 0.00007553 2.2015274 0.00015106 3.33564758 0.00022888 C5.10152473 0.00797081 5.10152473 0.00797081 6.90307617 0.01586914 C8.11678391 0.01728409 9.33049164 0.01869904 10.58097839 0.02015686 C14.45269244 0.02574874 18.32434839 0.03829981 22.19604492 0.05102539 C24.82299721 0.05604144 27.44995041 0.06060416 30.0769043 0.06469727 C36.51247351 0.07571552 42.94799937 0.09297464 49.38354492 0.11352539 C49.38354492 6.38352539 49.38354492 12.65352539 49.38354492 19.11352539 C47.78027344 19.11763428 46.17700195 19.12174316 44.52514648 19.12597656 C38.53117482 19.14787995 32.53784914 19.20228666 26.54418945 19.26611328 C23.95864083 19.28919565 21.37299949 19.30366586 18.78735352 19.30908203 C15.05321106 19.31844259 11.32050765 19.35959236 7.58666992 19.40649414 C6.44554749 19.40256149 5.30442505 19.39862885 4.12872314 19.39457703 C-6.24877514 19.57985218 -16.06870235 22.53224402 -23.73364258 29.82836914 C-33.06744189 41.15673553 -36.74325311 53.43697739 -35.8503418 67.99047852 C-34.68965997 78.52627093 -28.37528219 89.32571921 -20.27661133 96.05883789 C-13.23798352 100.90741013 -7.61549946 102.41544574 0.84057617 102.52758789 C1.74353928 102.54695404 2.64650238 102.56632019 3.576828 102.58627319 C6.44980539 102.64586621 9.32282329 102.69237308 12.19604492 102.73852539 C14.14853598 102.77672384 16.10101051 102.81577666 18.0534668 102.85571289 C22.83007167 102.95315319 27.60650892 103.0328824 32.38354492 103.11352539 C32.38354492 91.23352539 32.38354492 79.35352539 32.38354492 67.11352539 C22.15354492 67.11352539 11.92354492 67.11352539 1.38354492 67.11352539 C0.39354492 64.74165039 -0.59645508 62.36977539 -1.61645508 59.92602539 C-1.92969727 59.18843994 -2.24293945 58.45085449 -2.56567383 57.69091797 C-4.16667196 53.77048439 -4.61645508 51.46146317 -4.61645508 47.11352539 C13.20354492 47.11352539 31.02354492 47.11352539 49.38354492 47.11352539 C49.38354492 72.19352539 49.38354492 97.27352539 49.38354492 123.11352539 C36.63729492 123.20633789 36.63729492 123.20633789 23.63354492 123.30102539 C19.64695801 123.34199341 19.64695801 123.34199341 15.57983398 123.38378906 C13.4362839 123.39256374 11.29272875 123.40020534 9.14916992 123.40649414 C7.52470947 123.42951599 7.52470947 123.42951599 5.86743164 123.45300293 C-9.97403942 123.45834756 -23.87580392 118.50653554 -35.37036133 107.45336914 C-48.09152275 94.20123751 -54.17033016 77.94624952 -54.03833008 59.63330078 C-53.47785439 43.20066974 -47.3529557 26.83136703 -35.61645508 15.11352539 C-25.3446333 6.24343662 -13.86932993 -0.03188352 0 0 Z " fill="#2B2A29" transform="translate(1043.616455078125,885.886474609375)"/>
<path d="M0 0 C1.08074295 0.00007553 2.1614859 0.00015106 3.27497864 0.00022888 C5.00804512 0.00797081 5.00804512 0.00797081 6.77612305 0.01586914 C8.56339058 0.01799156 8.56339058 0.01799156 10.38676453 0.02015686 C14.1871493 0.02574811 17.98747487 0.03829907 21.7878418 0.05102539 C24.36661699 0.05604152 26.9453931 0.06060423 29.52416992 0.06469727 C35.84124998 0.07571469 42.15828585 0.09297338 48.4753418 0.11352539 C48.4753418 6.38352539 48.4753418 12.65352539 48.4753418 19.11352539 C46.10016357 19.12754395 46.10016357 19.12754395 43.67700195 19.1418457 C37.76884443 19.18189639 31.86119936 19.247698 25.95336914 19.32104492 C23.40265516 19.3491671 20.85185545 19.37042488 18.30102539 19.38452148 C14.62170803 19.40607157 10.94341199 19.45278674 7.2644043 19.50415039 C6.13483307 19.50537903 5.00526184 19.50660767 3.84146118 19.50787354 C-6.675318 19.69982385 -15.73848417 22.61493456 -23.48950195 29.98071289 C-32.19078744 39.08708616 -36.29710686 49.97733604 -36.8371582 62.48852539 C-36.48801875 74.13335288 -32.13631434 84.23998428 -24.3996582 92.86352539 C-13.02609687 102.98387688 -1.76227951 103.01354287 12.7253418 102.98852539 C14.64594186 103.00668403 16.56651876 103.02749655 18.48706055 103.05102539 C23.15084222 103.10736098 27.81007436 103.10926098 32.4753418 103.11352539 C32.4753418 91.23352539 32.4753418 79.35352539 32.4753418 67.11352539 C22.2453418 67.11352539 12.0153418 67.11352539 1.4753418 67.11352539 C-4.5246582 54.11352539 -4.5246582 54.11352539 -5.5246582 47.11352539 C12.2953418 47.11352539 30.1153418 47.11352539 48.4753418 47.11352539 C48.4753418 72.19352539 48.4753418 97.27352539 48.4753418 123.11352539 C35.7290918 123.20633789 35.7290918 123.20633789 22.7253418 123.30102539 C18.73875488 123.34199341 18.73875488 123.34199341 14.67163086 123.38378906 C12.52808077 123.39256374 10.38452562 123.40020534 8.2409668 123.40649414 C6.61650635 123.42951599 6.61650635 123.42951599 4.95922852 123.45300293 C-10.82135881 123.45832701 -24.79702595 118.52698547 -36.2746582 107.52758789 C-48.08600846 94.85499334 -54.15492405 78.91807286 -53.8996582 61.67602539 C-53.88805664 60.66540039 -53.87645508 59.65477539 -53.86450195 58.61352539 C-53.48695154 41.40166812 -47.19481646 26.87167372 -35.1574707 14.48461914 C-25.45556376 5.74714508 -13.18722088 -0.03088342 0 0 Z " fill="#2B2A29" transform="translate(446.524658203125,885.886474609375)"/>
<path d="M0 0 C29.7 0 59.4 0 90 0 C90 22.21699411 86.95050037 34.91662138 73.2109375 51.85546875 C70.86666035 54.12933475 69.02581746 54.8905753 66 56 C74.81946645 73.17569954 74.81946645 73.17569954 84.0625 90.125 C88.03443552 97.18897012 91.85952948 104.32382138 95.625 111.5 C96.15875244 112.51078613 96.69250488 113.52157227 97.24243164 114.56298828 C97.73219482 115.50126465 98.22195801 116.43954102 98.7265625 117.40625 C99.38519287 118.66405273 99.38519287 118.66405273 100.05712891 119.94726562 C101 122 101 122 101 124 C97.93372294 124.21665549 94.88272762 124.37459318 91.8125 124.5 C90.51602539 124.60054687 90.51602539 124.60054687 89.19335938 124.703125 C82.96205852 124.89412273 82.96205852 124.89412273 80.49951172 122.60546875 C79.13438292 120.47076309 78.07257995 118.29592504 77 116 C75.97549015 114.12130866 74.943726 112.24656221 73.90625 110.375 C72.76821462 108.25140129 71.63292073 106.12633173 70.5 104 C69.26853225 101.70035851 68.03675348 99.40088354 66.8046875 97.1015625 C66.49268402 96.51847321 66.18068054 95.93538391 65.85922241 95.33462524 C62.47020743 89.00260712 59.04881974 82.68826405 55.625 76.375 C55.05974609 75.33214844 54.49449219 74.28929687 53.91210938 73.21484375 C52.6083855 70.80972612 51.304361 68.40477214 50 66 C46.535 66.495 46.535 66.495 43 67 C34.09 67 25.18 67 16 67 C16 85.81 16 104.62 16 124 C10.72 124 5.44 124 0 124 C0 83.08 0 42.16 0 0 Z M16 20 C15.91232888 22.07262076 15.89304127 24.14820294 15.90234375 26.22265625 C15.90556641 27.48271484 15.90878906 28.74277344 15.91210938 30.04101562 C15.92046597 31.38151109 15.92893093 32.72200588 15.9375 34.0625 C15.9425134 35.40689942 15.94707658 36.7513006 15.95117188 38.09570312 C15.96300512 41.39717941 15.97949029 44.69856803 16 48 C19.9790243 48.08802152 23.95779388 48.14073233 27.9375 48.1875 C29.05447266 48.21263672 30.17144531 48.23777344 31.32226562 48.26367188 C42.18906277 48.3592742 51.38101805 45.87301454 60 39 C64.68373452 33.66530576 71 26.38031171 71 19 C63.32788798 18.97473395 55.6557866 18.95716877 47.98364258 18.94506836 C45.37133381 18.94002623 42.75902789 18.93319275 40.14672852 18.92456055 C36.40119732 18.91248964 32.65570328 18.90677065 28.91015625 18.90234375 C27.14612206 18.89460182 27.14612206 18.89460182 25.34645081 18.88670349 C24.26540573 18.88662796 23.18436066 18.88655243 22.07055664 18.88647461 C21.11347305 18.884254 20.15638947 18.88203339 19.17030334 18.87974548 C17.02082376 18.75687501 17.02082376 18.75687501 16 20 Z " fill="#2B2A29" transform="translate(2810,885)"/>
<path d="M0 0 C29.7 0 59.4 0 90 0 C90 21.32409523 86.16713844 37.67509932 71.859375 53.4609375 C69.84886614 55.12509819 68.50800268 55.46238512 66 56 C72.36370116 68.44250746 78.80096454 80.81030564 85.75 92.9375 C89.77975637 99.97958101 93.67622688 107.05832621 97.3125 114.3125 C97.88145996 115.4425647 97.88145996 115.4425647 98.46191406 116.59545898 C101 121.73985248 101 121.73985248 101 124 C97.93372294 124.21665549 94.88272762 124.37459318 91.8125 124.5 C90.51602539 124.60054687 90.51602539 124.60054687 89.19335938 124.703125 C82.97779203 124.89364047 82.97779203 124.89364047 80.5390625 122.66479492 C79.16498244 120.51380041 78.09603468 118.30583116 77 116 C75.80826707 113.86616198 74.60688095 111.73770035 73.3984375 109.61328125 C72.0499725 107.18370858 70.712931 104.74788601 69.375 102.3125 C69.02638916 101.67970123 68.67777832 101.04690247 68.31860352 100.39492798 C62.05050079 89.01417531 55.94936158 77.55090842 50 66 C46.535 66.495 46.535 66.495 43 67 C34.09 67 25.18 67 16 67 C16 85.81 16 104.62 16 124 C10.72 124 5.44 124 0 124 C0 83.08 0 42.16 0 0 Z M16 19 C16 28.57 16 38.14 16 48 C21.878125 48.0928125 21.878125 48.0928125 27.875 48.1875 C29.08913574 48.21481201 30.30327148 48.24212402 31.55419922 48.27026367 C43.2236317 48.35856776 51.41389513 45.99928476 60 38 C64.92246782 33.12916646 68.87146314 28.65167769 71 22 C71 21.01 71 20.02 71 19 C52.85 19 34.7 19 16 19 Z " fill="#2B2A29" transform="translate(510,885)"/>
<path d="M0 0 C5.56458879 -0.04635011 11.12848594 -0.08604005 16.69311523 -0.10986328 C18.57920625 -0.11981288 20.4652823 -0.13337739 22.35131836 -0.15087891 C45.16639709 -0.35702099 64.36472319 0.857539 81.75 17.3125 C95.19769482 31.39943383 98.52159656 49.33046208 98.2734375 68.140625 C97.73203789 84.94009398 89.84322525 99.34745279 78 111 C77.41347656 111.58523438 76.82695313 112.17046875 76.22265625 112.7734375 C65.97673351 122.27201058 54.09769349 124.32024183 40.625 124.1953125 C39.07425781 124.19229126 39.07425781 124.19229126 37.4921875 124.18920898 C33.66141265 124.17881149 29.83070147 124.15088931 26 124.125 C17.42 124.08375 8.84 124.0425 0 124 C0 91.99 0 59.98 0 27 C5.61 27 11.22 27 17 27 C17 52.41 17 77.82 17 104 C48.00311004 105.45699685 48.00311004 105.45699685 69.6640625 92.6328125 C78.5540633 82.61297882 80.91527527 70.02564943 80.19091797 57.02929688 C79.10325152 45.46832053 73.46344366 36.06915042 65.25 28.125 C57.16024714 21.66015383 48.05978588 20.4025587 37.98828125 20.390625 C36.89404343 20.37408875 35.7998056 20.35755249 34.67240906 20.34051514 C31.21904687 20.29240144 27.76612381 20.27074538 24.3125 20.25 C21.95375438 20.22180976 19.59502889 20.19187812 17.23632812 20.16015625 C11.49092163 20.08665216 5.74575371 20.03685416 0 20 C0 13.4 0 6.8 0 0 Z " fill="#2B2A29" transform="translate(748,885)"/>
<path d="M0 0 C12.07557104 11.44109189 19.24109581 26.39178325 19.85546875 43.046875 C19.87487563 44.77984366 19.87846298 46.51305311 19.8671875 48.24609375 C19.86154785 49.16253662 19.8559082 50.07897949 19.85009766 51.02319336 C19.55473135 67.61195936 14.04487144 81.80960963 2.5546875 93.93359375 C-9.29004916 104.98220876 -22.77516482 110.61356448 -39.015625 110.22265625 C-53.63417319 108.99056904 -65.13227813 101.75758258 -75.1328125 91.30859375 C-87.13397199 76.86748221 -90.96368946 57.25754891 -89.4453125 38.93359375 C-86.88810695 21.01652268 -78.47438001 6.78285383 -64.4453125 -4.50390625 C-43.62023436 -18.88211702 -18.95173873 -16.01512745 0 0 Z M-62.70703125 18.7578125 C-70.78511611 28.86903333 -73.55515748 41.23974182 -72.4453125 53.93359375 C-70.16775678 67.81244891 -63.91260104 78.12001488 -52.3828125 86.41796875 C-44.2046337 91.2825751 -32.75417951 91.45432616 -23.609375 89.25 C-21.38727395 88.31048008 -19.46262806 87.25371845 -17.4453125 85.93359375 C-16.76339844 85.52109375 -16.08148437 85.10859375 -15.37890625 84.68359375 C-6.06002446 78.4592173 -0.51443487 68.29340361 2.13671875 57.58203125 C4.23214072 44.30449766 2.13815994 31.9414747 -5.82421875 20.9609375 C-11.76493857 13.53145898 -18.80978681 7.72330678 -28.4453125 5.93359375 C-42.26047481 4.79169009 -53.01641908 8.72340921 -62.70703125 18.7578125 Z " fill="#2B2A29" transform="translate(1360.4453125,899.06640625)"/>
<path d="M0 0 C13.26623267 12.47383727 18.41596718 28.51507867 19.77734375 46.15625 C19.885625 47.38794922 19.885625 47.38794922 19.99609375 48.64453125 C20.66717491 63.4922019 14.87309635 79.3007906 5.33984375 90.65625 C4.17455711 91.84510424 2.98639029 93.01192757 1.77734375 94.15625 C1.12378906 94.82914063 0.47023438 95.50203125 -0.203125 96.1953125 C-9.72488818 105.45691822 -21.89946525 110.04337141 -35.03515625 110.46875 C-50.92377058 110.12597533 -63.27316826 103.36822571 -74.22265625 92.15625 C-87.80914951 77.7610369 -89.84231301 60.13118604 -89.53125 41.2890625 C-88.97116998 25.99260321 -82.47683599 11.68506269 -71.22265625 1.15625 C-49.17924045 -17.27066789 -22.51016461 -18.67275517 0 0 Z M-61.22265625 17.15625 C-68.91525752 26.93163066 -73.83100713 38.588611 -73.22265625 51.15625 C-71.42355179 64.19893208 -66.78726661 74.94588756 -56.51171875 83.46875 C-48.13648709 89.64298221 -39.25385978 91.97395976 -28.9140625 90.6796875 C-18.18968422 88.59395936 -10.1006027 81.48843731 -3.78515625 72.78125 C3.11670268 61.34332514 3.60148021 46.65696073 1.12109375 33.73828125 C-2.39105484 23.00503404 -10.32100491 14.45474833 -20.17578125 9.09375 C-34.694845 2.52860813 -50.15573933 6.0687626 -61.22265625 17.15625 Z " fill="#2B2A29" transform="translate(2030.22265625,898.84375)"/>
<path d="M0 0 C1.8871875 0.00773438 1.8871875 0.00773438 3.8125 0.015625 C5.070625 0.01046875 6.32875 0.0053125 7.625 0 C10.8125 0.265625 10.8125 0.265625 12.8125 2.265625 C13.04627991 4.6897583 13.04627991 4.6897583 13.02368164 7.77832031 C13.02030289 8.93422668 13.01692413 10.09013306 13.01344299 11.28106689 C12.99998337 12.53925232 12.98652374 13.79743774 12.97265625 15.09375 C12.96470447 17.074568 12.95675836 19.05538604 12.94912624 21.03620529 C12.93596816 23.82440163 12.91379228 26.61249838 12.89154053 29.40063477 C12.85378849 34.22788098 12.82487162 39.05516046 12.80381775 43.88250732 C12.79172547 46.44931282 12.77429123 49.01610095 12.75050354 51.58282471 C12.43615356 74.98053214 12.43615356 74.98053214 22.8125 95.265625 C30.65872033 102.5793673 38.53517839 103.85294678 48.9609375 103.56640625 C56.38779558 102.98641835 59.99282299 100.36983166 65.0625 95.078125 C74.70384661 83.52741367 75.11120217 70.31671127 75.19140625 55.890625 C75.20760442 54.31403598 75.2247868 52.7374568 75.24290466 51.16088867 C75.28830949 47.03831512 75.32327476 42.91572811 75.35510254 38.79302979 C75.40726793 32.16690451 75.4719865 25.54092206 75.54331779 18.91497803 C75.56617978 16.60104693 75.5824214 14.28713443 75.59803772 11.97314453 C75.61143479 10.56672957 75.62504875 9.16031665 75.63891602 7.75390625 C75.65318382 5.90599487 75.65318382 5.90599487 75.66773987 4.02075195 C75.8125 1.265625 75.8125 1.265625 76.8125 0.265625 C79.12324168 0.16630108 81.43712942 0.13592882 83.75 0.140625 C85.01714844 0.13804687 86.28429688 0.13546875 87.58984375 0.1328125 C90.8125 0.265625 90.8125 0.265625 92.8125 1.265625 C92.9056089 11.86288565 92.97647108 22.46004731 93.01974869 33.05763531 C93.04053075 37.97973373 93.06867482 42.90155015 93.11425781 47.82348633 C93.15805294 52.58272342 93.18170745 57.34169105 93.19200897 62.10111427 C93.19934041 63.90741015 93.21365517 65.71369304 93.23542023 67.51987267 C93.42319264 83.76368956 91.2528646 97.68344524 80.00390625 110.29296875 C69.01952192 120.7292757 54.59650049 124.36708383 39.8125 124.265625 C24.05586139 122.43614081 12.37688008 115.66494349 2.4375 103.328125 C-3.84791181 94.38966401 -5.33952972 84.90477348 -5.33276367 74.15893555 C-5.33612228 73.3808403 -5.3394809 72.60274506 -5.34294128 71.80107117 C-5.35237444 69.25147878 -5.35438979 66.70195246 -5.35546875 64.15234375 C-5.35868404 62.37351963 -5.36204832 60.59469577 -5.36555481 58.81587219 C-5.37152503 55.09981675 -5.37339662 51.38378451 -5.37280273 47.66772461 C-5.37270063 42.89819458 -5.38641157 38.12881181 -5.40357494 33.35931683 C-5.41466503 29.69199432 -5.41672295 26.02470794 -5.41619301 22.35737038 C-5.41737539 20.59784241 -5.42181153 18.83831357 -5.42952538 17.07880211 C-5.43927526 14.62754126 -5.43646847 12.17660741 -5.43041992 9.7253418 C-5.43603943 8.99547058 -5.44165894 8.26559937 -5.44744873 7.51361084 C-5.41662946 2.62185624 -5.37908427 0.44825702 0 0 Z " fill="#2B2A29" transform="translate(3111.1875,884.734375)"/>
<path d="M0 0 C0.69416016 -0.01224609 1.38832031 -0.02449219 2.10351562 -0.03710938 C3.92470901 -0.04239842 5.7453692 0.06580793 7.5625 0.1875 C9.5625 2.1875 9.5625 2.1875 9.78955078 4.93553162 C9.77907715 6.10592484 9.76860352 7.27631805 9.7578125 8.48217773 C9.75489197 9.12804337 9.75197144 9.773909 9.7489624 10.43934631 C9.74134215 11.84495015 9.72910024 13.25053467 9.71282959 14.65606499 C9.68728594 16.88981323 9.67426432 19.12332339 9.66455078 21.35719299 C9.63780522 26.91376931 9.58976149 32.47012393 9.54174805 38.02655029 C9.50202026 42.70880478 9.47083037 47.39097023 9.45062256 52.07335091 C9.43780084 54.25735021 9.41277087 56.44098115 9.38720703 58.62486267 C9.28862777 72.01227109 10.69632082 83.49120332 18.8125 94.5 C24.72449129 100.27762785 32.39033432 104.09916847 40.74609375 104.21875 C48.72732366 103.6654585 56.05550532 100.51710088 61.9296875 95.06640625 C71.59644586 83.94269628 71.87804767 70.4508117 71.71282959 56.38654709 C71.68689148 54.15867062 71.67417258 51.93103682 71.66455078 49.70303345 C71.64193636 44.98941092 71.60333444 40.27599512 71.5625 35.5625 C71.5152255 30.06113841 71.47458089 24.55988519 71.45062256 19.05836868 C71.43766224 16.86341497 71.41267289 14.6688076 71.38720703 12.47396851 C71.37994744 11.13808493 71.3732433 9.80219817 71.3671875 8.46630859 C71.35671387 7.29893158 71.34624023 6.13155457 71.33544922 4.92880249 C71.5625 2.1875 71.5625 2.1875 73.5625 0.1875 C76.75 -0.04296875 76.75 -0.04296875 80.5625 0 C81.820625 0.00644531 83.07875 0.01289062 84.375 0.01953125 C87.5625 0.1875 87.5625 0.1875 89.5625 1.1875 C89.6322924 11.80206479 89.68545891 22.41657416 89.71793652 33.03132248 C89.73353134 37.96123158 89.75465547 42.89098262 89.78881836 47.82080078 C89.82163384 52.58650496 89.83939941 57.35205799 89.84713173 62.11786652 C89.85263568 63.92776109 89.86338252 65.73764825 89.87969017 67.54747772 C90.01855831 83.61137447 88.77947942 96.97982797 77.52734375 109.44140625 C67.48470948 119.0466118 54.37257023 123.85429127 40.5625 124.5625 C24.82593959 123.75376884 12.29875661 117.54532937 1.5625 106.1875 C-5.97717364 96.9776455 -8.59871147 86.85312248 -8.56689453 75.10839844 C-8.56864685 74.30948181 -8.57039917 73.51056519 -8.57220459 72.68743896 C-8.57659206 70.05722864 -8.57369718 67.42708596 -8.5703125 64.796875 C-8.57098616 62.96795641 -8.57195671 61.13903791 -8.57321167 59.31011963 C-8.57468421 55.48375595 -8.57254734 51.65741565 -8.56787109 47.83105469 C-8.56215791 42.91568021 -8.56546563 38.00036015 -8.57144356 33.08498764 C-8.5750474 29.31219061 -8.57391169 25.5394066 -8.57131577 21.76660919 C-8.57064684 19.9532292 -8.57147373 18.13984805 -8.57379532 16.32646942 C-8.57632068 13.8006219 -8.57248367 11.27486422 -8.56689453 8.74902344 C-8.56891876 7.99371338 -8.57094299 7.23840332 -8.57302856 6.46020508 C-8.5431679 -0.78420471 -6.57675436 0.00607272 0 0 Z " fill="#2B2A29" transform="translate(3337.4375,884.8125)"/>
<path d="M0 0 C1.65356255 -0.01441132 1.65356255 -0.01441132 3.3405304 -0.02911377 C4.54452988 -0.03336365 5.74852936 -0.03761353 6.98901367 -0.04199219 C8.2243132 -0.04769226 9.45961273 -0.05339233 10.73234558 -0.05926514 C13.35952434 -0.06873934 15.98658827 -0.075622 18.61376953 -0.07910156 C22.60164658 -0.08559883 26.58914848 -0.11970459 30.5769043 -0.15136719 C33.1309377 -0.1579044 35.68497479 -0.16315204 38.23901367 -0.16699219 C40.01161308 -0.18551239 40.01161308 -0.18551239 41.82002258 -0.20440674 C53.01142407 -0.17486843 63.58849141 1.06184292 71.87182617 9.13769531 C79.92651775 17.61478482 82.04756815 25.47693413 81.84448242 37.16113281 C80.70772148 46.06759964 77.61666508 55.03892486 70.66479492 61.04394531 C62.91919167 66.44239606 56.24478958 67.45279994 46.97729492 67.35644531 C46.05940186 67.35443115 45.14150879 67.35241699 44.19580078 67.3503418 C40.78697672 67.33992587 37.37822423 67.31200344 33.96948242 67.28613281 C26.33823242 67.24488281 18.70698242 67.20363281 10.84448242 67.16113281 C10.84448242 85.97113281 10.84448242 104.78113281 10.84448242 124.16113281 C5.23448242 124.16113281 -0.37551758 124.16113281 -6.15551758 124.16113281 C-6.17863664 108.1411969 -6.19649684 92.12126783 -6.20732975 76.10131931 C-6.21249267 68.66348771 -6.21953529 61.22566664 -6.23095703 53.7878418 C-6.24090399 47.30731939 -6.24737103 40.82680462 -6.24960607 34.34627479 C-6.25091316 30.91282739 -6.25399888 27.47940181 -6.26124763 24.04596138 C-6.26926174 20.21919461 -6.26950871 16.39244946 -6.26904297 12.56567383 C-6.27263824 11.41912827 -6.27623352 10.2725827 -6.27993774 9.09129333 C-6.27856308 8.05497772 -6.27718842 7.01866211 -6.27577209 5.95094299 C-6.27669389 5.04482049 -6.27761568 4.13869799 -6.27856541 3.20511723 C-6.03375286 -0.86153749 -3.49712883 0.02451119 0 0 Z M10.84448242 20.16113281 C10.84448242 29.40113281 10.84448242 38.64113281 10.84448242 48.16113281 C17.00164696 48.25310705 23.15641581 48.33270276 29.3137207 48.38085938 C31.40690195 48.40093941 33.50002734 48.42820922 35.59301758 48.46289062 C38.60666711 48.51156715 41.61957316 48.53413793 44.63354492 48.55175781 C46.03076279 48.58272552 46.03076279 48.58272552 47.45620728 48.61431885 C54.36994513 48.61669125 57.5780055 47.20233546 62.65698242 42.47363281 C64.53013485 38.82591492 64.95107291 35.23999568 64.84448242 31.16113281 C63.24499266 26.26857588 60.37763622 22.65014873 55.84448242 20.16113281 C52.35520773 19.49229979 48.95667282 19.57697598 45.41479492 19.67285156 C44.42446259 19.6799263 43.43413025 19.68700104 42.41378784 19.69429016 C39.26490281 19.72217689 36.11782582 19.78490603 32.96948242 19.84863281 C30.82888318 19.87372302 28.68825595 19.89653492 26.54760742 19.91699219 C21.31198331 19.96772498 16.08024533 20.06558969 10.84448242 20.16113281 Z " fill="#2B2A29" transform="translate(304.155517578125,884.8388671875)"/>
<path d="M0 0 C1.10883041 -0.00637985 2.21766083 -0.0127597 3.36009216 -0.01933289 C5.17550255 -0.02100212 5.17550255 -0.02100212 7.02758789 -0.02270508 C8.26763077 -0.02603348 9.50767365 -0.02936188 10.78529358 -0.03279114 C13.42086345 -0.03786879 16.05633038 -0.04063024 18.69189453 -0.04003906 C21.38141664 -0.03995818 24.07076707 -0.04683255 26.76025391 -0.06054688 C30.64108455 -0.07896665 34.52171773 -0.08378091 38.40258789 -0.08520508 C39.5946434 -0.09239059 40.78669891 -0.09957611 42.01487732 -0.10697937 C53.29142678 -0.07647131 62.71810854 1.04547906 71.81274414 8.14526367 C79.11594269 15.58683861 81.33532132 23.92764176 81.25024414 34.08276367 C81.27022461 34.92516602 81.29020508 35.76756836 81.31079102 36.63549805 C81.30373021 45.80748914 77.9235727 52.68669663 71.75024414 59.35229492 C66.57188306 64.14436697 61.20769862 67.27753389 54.06591797 67.25878906 C53.09174927 67.25866821 52.11758057 67.25854736 51.1138916 67.25842285 C49.58230408 67.2507489 49.58230408 67.2507489 48.01977539 67.24291992 C47.07920288 67.24191284 46.13863037 67.24090576 45.16955566 67.23986816 C41.65477276 67.23463468 38.14000723 67.22067341 34.62524414 67.20776367 C26.76711914 67.18713867 18.90899414 67.16651367 10.81274414 67.14526367 C10.81274414 85.95526367 10.81274414 104.76526367 10.81274414 124.14526367 C5.20274414 124.14526367 -0.40725586 124.14526367 -6.18725586 124.14526367 C-6.21037492 108.12532776 -6.22823512 92.10539869 -6.23906803 76.08545017 C-6.24423095 68.64761857 -6.25127357 61.2097975 -6.26269531 53.77197266 C-6.27264227 47.29145025 -6.27910931 40.81093548 -6.28134435 34.33040565 C-6.28265144 30.89695825 -6.28573716 27.46353267 -6.29298592 24.03009224 C-6.30100002 20.20332547 -6.30124699 16.37658032 -6.30078125 12.54980469 C-6.30437653 11.40325912 -6.3079718 10.25671356 -6.31167603 9.07542419 C-6.31030136 8.03910858 -6.3089267 7.00279297 -6.30751038 5.93507385 C-6.30843217 5.02895135 -6.30935396 4.12282885 -6.31030369 3.18924809 C-6.06466964 -0.89105279 -3.50335732 0.01362362 0 0 Z M10.81274414 20.14526367 C10.81274414 29.38526367 10.81274414 38.62526367 10.81274414 48.14526367 C16.9878874 48.21418838 23.16169242 48.27390672 29.33691406 48.31005859 C31.436895 48.32513139 33.53684454 48.34559308 35.63671875 48.37158203 C38.65771238 48.40803121 41.67828925 48.42500526 44.69946289 48.43823242 C45.63610275 48.45371628 46.57274261 48.46920013 47.5377655 48.4851532 C53.93425506 48.48679924 57.3218106 47.49781201 62.06274414 43.02026367 C64.45666469 39.0873942 65.13345569 35.73449324 64.81274414 31.14526367 C63.63347095 27.14267173 62.12101024 24.21632121 58.87109375 21.55566406 C54.41107649 19.49886517 50.33283638 19.77391358 45.48071289 19.85229492 C44.48896561 19.85653976 43.49721832 19.86078461 42.47541809 19.86515808 C39.3167473 19.88191244 36.15872118 19.9195592 33.00024414 19.95776367 C30.85507108 19.97281468 28.70988799 19.98650236 26.56469727 19.9987793 C21.31359976 20.02924988 16.06389114 20.08797843 10.81274414 20.14526367 Z " fill="#2B2A29" transform="translate(1184.187255859375,884.854736328125)"/>
<path d="M0 0 C5.28 0 10.56 0 16 0 C16.01981934 2.06290283 16.03963867 4.12580566 16.06005859 6.2512207 C16.12728194 13.10447403 16.20491467 19.95758187 16.28752708 26.81066608 C16.33724914 30.96139058 16.38357908 35.11209256 16.421875 39.26293945 C16.45903495 43.27662091 16.5054733 47.29010198 16.55806351 51.30360985 C16.57644581 52.82678868 16.59161183 54.3500102 16.60334396 55.87325478 C16.72436965 71.05804296 17.69347577 84.84158177 28.390625 96.53125 C35.65330547 103.15932732 43.73011238 103.45984461 53.078125 103.265625 C60.44533742 102.76665045 64.10271006 100.17877866 69.1875 95 C76.04166108 86.86405682 79.08066212 77.22438161 79.20532227 66.75292969 C79.21522186 66.03058136 79.22512146 65.30823303 79.23532104 64.56399536 C79.26683484 62.18332158 79.2916533 59.80262787 79.31640625 57.421875 C79.33698453 55.76848846 79.35798123 54.11510709 79.37937927 52.46173096 C79.43450974 48.11511417 79.48395873 43.76845062 79.53222656 39.42175293 C79.58250757 34.9842514 79.63815916 30.54681758 79.69335938 26.109375 C79.80083055 17.40630576 79.90180349 8.70317883 80 0 C85.61 0 91.22 0 97 0 C97.09073128 10.85809141 97.16396293 21.7159269 97.20724869 32.57431316 C97.22803419 37.61747626 97.25618478 42.66036429 97.30175781 47.70336914 C97.34554035 52.57931496 97.36920489 57.45499788 97.37950897 62.33112526 C97.38684262 64.18207748 97.40116184 66.03301696 97.42292023 67.88385582 C97.60190408 83.75450524 96.11936106 96.6899647 85 109 C75.07957809 118.62428991 63.23862512 123.91125785 49.39453125 124.03125 C34.47694615 123.42298965 20.82034675 118.5798946 10 108 C2.8450646 99.24137219 -0.49301674 91.11307706 -0.34057617 79.80834961 C-0.34101425 78.93896759 -0.34145233 78.06958557 -0.34190369 77.17385864 C-0.33983284 74.33311594 -0.31658323 71.49298187 -0.29296875 68.65234375 C-0.28736672 66.66980817 -0.28309949 64.68726841 -0.28010559 62.70472717 C-0.26870463 57.51136615 -0.23927866 52.31826072 -0.20599365 47.125 C-0.17518999 41.81579037 -0.16157832 36.50653905 -0.14648438 31.19726562 C-0.11440413 20.79806539 -0.0632657 10.39905403 0 0 Z " fill="#2B2A29" transform="translate(187,885)"/>
<path d="M0 0 C5.61 0 11.22 0 17 0 C17 6.93 17 13.86 17 21 C39.77 21 62.54 21 86 21 C86 27.27 86 33.54 86 40 C63.23 40 40.46 40 17 40 C17 52.21 17 64.42 17 77 C22.60742188 76.96519531 28.21484375 76.93039062 33.9921875 76.89453125 C37.53777078 76.87920848 41.08331343 76.86476707 44.62890625 76.85351562 C50.26066532 76.83555958 55.89227852 76.81428393 61.52392578 76.77368164 C66.0626498 76.74116255 70.60121748 76.72316277 75.14004898 76.71536827 C76.87447701 76.70981132 78.60889617 76.69896037 80.3432579 76.68280983 C82.76662658 76.66113413 85.18934347 76.65802887 87.61279297 76.65942383 C88.33496002 76.648638 89.05712708 76.63785217 89.80117798 76.6267395 C91.79830933 76.63923645 91.79830933 76.63923645 95 77 C97.22436504 80.33654756 97.24663678 81.42560103 97.1875 85.3125 C97.18105469 86.23675781 97.17460937 87.16101563 97.16796875 88.11328125 C97 91 97 91 96 97 C64.32 97 32.64 97 0 97 C-1.66580516 93.66838969 -1.13802309 89.93040031 -1.12939453 86.26757812 C-1.13114685 85.3634166 -1.13289917 84.45925507 -1.13470459 83.5276947 C-1.13911803 80.52886047 -1.13618689 77.53008487 -1.1328125 74.53125 C-1.13348568 72.45381662 -1.13445583 70.37638331 -1.13571167 68.2989502 C-1.13718795 63.94099173 -1.1350363 59.58305374 -1.13037109 55.22509766 C-1.12467385 49.62928895 -1.12795323 44.0335282 -1.13394356 38.43772125 C-1.13755103 34.14674516 -1.13640972 29.85578051 -1.13381577 25.56480408 C-1.13314701 23.5010528 -1.13397312 21.43730049 -1.13629532 19.37355042 C-1.13882488 16.49314611 -1.13497692 13.61282031 -1.12939453 10.73242188 C-1.13141876 9.87313583 -1.13344299 9.01384979 -1.13552856 8.12852478 C-1.11426389 2.22852779 -1.11426389 2.22852779 0 0 Z " fill="#2B2A29" transform="translate(2699,912)"/>
<path d="M0 0 C5.61 0 11.22 0 17 0 C17 6.93 17 13.86 17 21 C40.1 21 63.2 21 87 21 C87 27.27 87 33.54 87 40 C63.9 40 40.8 40 17 40 C17 52.21 17 64.42 17 77 C25.41113281 76.96519531 25.41113281 76.96519531 33.9921875 76.9296875 C37.53776502 76.91947233 41.08332449 76.90984469 44.62890625 76.90234375 C50.2606176 76.89037316 55.89226412 76.87618936 61.52392578 76.84912109 C66.06264076 76.82744174 70.60128624 76.81544177 75.14004898 76.81024551 C76.87446309 76.80654091 78.60887326 76.79930706 80.3432579 76.78853989 C82.76652086 76.77409005 85.18949409 76.7720193 87.61279297 76.77294922 C88.69604355 76.76216339 88.69604355 76.76216339 89.80117798 76.75115967 C94.77189568 76.77189568 94.77189568 76.77189568 97 79 C97 84.94 97 90.88 97 97 C64.99 97 32.98 97 0 97 C0 64.99 0 32.98 0 0 Z " fill="#2B2A29" transform="translate(3549,912)"/>
<path d="M0 0 C5.28 0 10.56 0 16 0 C20.95535625 4.95535625 17 13.99206799 17 21 C39.44 21 61.88 21 85 21 C85 27.27 85 33.54 85 40 C62.56 40 40.12 40 17 40 C17 52.21 17 64.42 17 77 C43.07 77 69.14 77 96 77 C96 83.6 96 90.2 96 97 C64.32 97 32.64 97 0 97 C0 64.99 0 32.98 0 0 Z " fill="#2B2A29" transform="translate(2364,912)"/>
<path d="M0 0 C5.28 0 10.56 0 16 0 C16 6.93 16 13.86 16 21 C39.1 21 62.2 21 86 21 C86 27.27 86 33.54 86 40 C63.23 40.33 40.46 40.66 17 41 C16.67 52.88 16.34 64.76 16 77 C42.4 77 68.8 77 96 77 C96 83.6 96 90.2 96 97 C64.32 97 32.64 97 0 97 C0 64.99 0 32.98 0 0 Z " fill="#2B2A29" transform="translate(1542,912)"/>
<path d="M0 0 C5.61 0 11.22 0 17 0 C17 40.59 17 81.18 17 123 C13.13419556 121.06709778 11.59073861 119.72533995 8.8125 116.5625 C8.0184375 115.66015625 7.224375 114.7578125 6.40625 113.828125 C4.16177629 111.19013967 1.98001967 108.51381182 -0.1875 105.8125 C-4.4917034 100.48312731 -9.129547 95.53195894 -13.83544922 90.5612793 C-18.10510169 86.02716068 -22.04098866 81.34511957 -25.92578125 76.4765625 C-28.67236011 73.19721975 -31.70427733 70.27514363 -34.765625 67.29296875 C-37.09242623 64.90515 -39.16762079 62.41547401 -41.25 59.8125 C-44.86601754 55.29565003 -48.67163799 51.03140731 -52.625 46.8125 C-53.18533936 46.2141333 -53.74567871 45.6157666 -54.32299805 44.99926758 C-55.4003321 43.84922902 -56.47772219 42.69924296 -57.55517578 41.54931641 C-59.41562836 39.55431268 -61.24995689 37.53862376 -63.0625 35.5 C-63.54847656 34.9534375 -64.03445313 34.406875 -64.53515625 33.84375 C-65.26025391 32.93109375 -65.26025391 32.93109375 -66 32 C-66.71542969 31.20335937 -67.43085937 30.40671875 -68.16796875 29.5859375 C-71.35079988 24.73490037 -70.41310806 18.6832207 -70.25 13.125 C-70.23195313 11.9596875 -70.21390625 10.794375 -70.1953125 9.59375 C-70.1483382 6.72831751 -70.08266293 3.86458832 -70 1 C-66.02874238 2.81522135 -63.54523177 5.39404588 -60.6875 8.625 C-60.20039551 9.16624512 -59.71329102 9.70749023 -59.21142578 10.26513672 C-56.02271294 13.81742835 -52.86964892 17.40150531 -49.7421875 21.0078125 C-47.68499601 23.36020635 -45.59403085 25.68034966 -43.5 28 C-40.22927077 31.62432158 -36.9983078 35.27883178 -33.79296875 38.9609375 C-31.82158957 41.20289813 -29.81837309 43.41385803 -27.8125 45.625 C-23.68265761 50.1973255 -19.66549175 54.85757836 -15.6887207 59.56298828 C-10.92072804 65.17444042 -5.96542807 70.53802913 -1 76 C-0.67 50.92 -0.34 25.84 0 0 Z " fill="#2B2A29" transform="translate(961,885)"/>
<path d="M0 0 C5.61 0 11.22 0 17 0 C17 6.93 17 13.86 17 21 C39.77 21 62.54 21 86 21 C86 27.27 86 33.54 86 40 C63.23 40 40.46 40 17 40 C17 58.81 17 77.62 17 97 C11.39 97 5.78 97 0 97 C0 64.99 0 32.98 0 0 Z " fill="#2B2A29" transform="translate(1839,912)"/>
<path d="M0 0 C1.4883163 0.00574353 2.97660671 0.01875734 4.46484375 0.03515625 C7.08421875 0.05578125 9.70359375 0.07640625 12.40234375 0.09765625 C12.40234375 7.02765625 12.40234375 13.95765625 12.40234375 21.09765625 C35.17234375 21.09765625 57.94234375 21.09765625 81.40234375 21.09765625 C81.40234375 27.36765625 81.40234375 33.63765625 81.40234375 40.09765625 C58.63234375 40.09765625 35.86234375 40.09765625 12.40234375 40.09765625 C12.40234375 58.90765625 12.40234375 77.71765625 12.40234375 97.09765625 C7.12234375 97.09765625 1.84234375 97.09765625 -3.59765625 97.09765625 C-5.48423296 95.21107954 -4.72432813 92.46593122 -4.73318481 89.95552063 C-4.73116058 89.07236679 -4.72913635 88.18921295 -4.72705078 87.27929688 C-4.7288031 86.35416794 -4.73055542 85.429039 -4.73236084 84.47587585 C-4.73678092 81.4018672 -4.73384082 78.32791555 -4.73046875 75.25390625 C-4.73114174 73.1278075 -4.73211173 71.00170883 -4.73336792 68.87561035 C-4.73484511 64.41332265 -4.73268967 59.95105492 -4.72802734 55.48876953 C-4.72233005 49.75495056 -4.72560894 44.0211784 -4.73159981 38.28736115 C-4.73520486 33.89519902 -4.73406709 29.50304808 -4.73147202 25.11088562 C-4.73080259 22.99606826 -4.7316317 20.88124991 -4.73395157 18.76643372 C-4.73647718 15.81626679 -4.73263879 12.86617679 -4.72705078 9.91601562 C-4.72907501 9.03286179 -4.73109924 8.14970795 -4.73318481 7.23979187 C-4.70809383 0.12779842 -4.70809383 0.12779842 0 0 Z " fill="#2B2A29" transform="translate(3000.59765625,911.90234375)"/>
<path d="M0 0 C0.66 0 1.32 0 2 0 C2.25990723 0.55010742 2.51981445 1.10021484 2.78759766 1.66699219 C8.68094694 14.11787403 14.71434936 26.48872435 20.90292358 38.79559326 C25.28913056 47.52301592 29.55807804 56.29652027 33.73950195 65.12353516 C37.61180135 73.26362687 41.64104108 81.32064483 45.6875 89.375 C54.14859316 106.23459959 54.14859316 106.23459959 57.9375 114.1875 C58.26129639 114.85765137 58.58509277 115.52780273 58.91870117 116.21826172 C60.23781011 119.02150887 61 120.85750149 61 124 C53.74 124 46.48 124 39 124 C33.6197529 114.03331275 28.49968684 104.00823887 23.64892578 93.7746582 C19.70564984 85.4577965 15.69663844 77.17451091 11.66815186 68.89871216 C10.56652785 66.63328306 9.46764443 64.36654524 8.36962891 62.09936523 C5.31326605 55.79170836 2.25548849 49.48617702 -0.88630676 43.22052002 C-1.76644873 41.46310971 -2.63932149 39.70206472 -3.51196289 37.94091797 C-4.55692604 35.83327775 -5.61398142 33.73157231 -6.68530273 31.63720703 C-9.97195898 24.96192882 -9.97195898 24.96192882 -10.08984375 20.91796875 C-8.4989481 16.65847394 -6.5360989 12.65508119 -4.4375 8.625 C-4.01275391 7.79355469 -3.58800781 6.96210937 -3.15039062 6.10546875 C-2.10745654 4.06647401 -1.05721708 2.0316151 0 0 Z " fill="#2B2A29" transform="translate(676,885)"/>
<path d="M0 0 C1.32237419 0.00067978 1.32237419 0.00067978 2.67146301 0.00137329 C4.05674698 -0.00366463 4.05674698 -0.00366463 5.47001648 -0.00880432 C8.53921331 -0.01834503 11.60835577 -0.02025898 14.67756653 -0.02133179 C16.80126977 -0.02454216 18.92497278 -0.02790606 21.04867554 -0.03141785 C25.50676486 -0.0374169 29.96483478 -0.03925695 34.42292786 -0.03866577 C40.14771516 -0.0385641 45.87237858 -0.05221853 51.5971365 -0.06943798 C55.98505225 -0.08053264 60.37293782 -0.08258576 64.76086617 -0.08205605 C66.87207021 -0.08323991 68.98327494 -0.08768427 71.09446526 -0.09538841 C74.04209554 -0.10513748 76.98945376 -0.10233049 79.93708801 -0.09628296 C80.81664658 -0.10190247 81.69620514 -0.10752197 82.60241699 -0.11331177 C88.64065756 -0.08167826 88.64065756 -0.08167826 90.86897278 2.14663696 C90.86897278 8.08663696 90.86897278 14.02663696 90.86897278 20.14663696 C58.52897278 20.14663696 26.18897278 20.14663696 -7.13102722 20.14663696 C-7.13102722 0.0381206 -7.13102722 0.0381206 0 0 Z " fill="#2B2A29" transform="translate(2481.1310272216797,884.8533630371094)"/>
<path d="M0 0 C5.28 0 10.56 0 16 0 C16 40.26 16 80.52 16 122 C10.72 122 5.44 122 0 122 C0 81.74 0 41.48 0 0 Z " fill="#2B2A29" transform="translate(861,886)"/>
<path d="M0 0 C0.92352264 -0.0049649 1.84704529 -0.00992981 2.79855347 -0.01504517 C5.86774426 -0.02970602 8.93688339 -0.03647488 12.00610352 -0.04199219 C14.12980655 -0.04773989 16.25350955 -0.05349766 18.37721252 -0.05926514 C22.8352991 -0.06978595 27.29336759 -0.07562171 31.75146484 -0.07910156 C37.47630494 -0.08459214 43.20090788 -0.10862772 48.92567348 -0.13707352 C53.31359058 -0.15565512 57.70145002 -0.16090307 62.08940315 -0.16243744 C64.20061606 -0.16547405 66.31182771 -0.17353623 68.42300224 -0.18662262 C71.3707292 -0.20359168 74.31786964 -0.20182549 77.265625 -0.1953125 C78.14518356 -0.20452728 79.02474213 -0.21374207 79.93095398 -0.22323608 C82.35716248 -0.20635986 82.35716248 -0.20635986 86.19750977 0.16113281 C88.57976518 3.73451593 88.43784085 5.36734295 88.38500977 9.59863281 C88.37856445 10.73171875 88.37211914 11.86480469 88.36547852 13.03222656 C88.19750977 16.16113281 88.19750977 16.16113281 87.19750977 20.16113281 C55.18750977 20.16113281 23.17750977 20.16113281 -9.80249023 20.16113281 C-9.80249023 0.01242969 -9.80249023 0.01242969 0 0 Z " fill="#2B2A29" transform="translate(3227.802490234375,884.8388671875)"/>
<path d="M0 0 C1.30295517 0.00371613 1.30295517 0.00371613 2.63223267 0.00750732 C3.54614777 0.00239639 4.46006287 -0.00271454 5.40167236 -0.00798035 C8.43301885 -0.02191983 11.46413913 -0.02091646 14.49551392 -0.01861572 C16.5953683 -0.02249995 18.6952219 -0.02683405 20.79507446 -0.03160095 C25.20012965 -0.03907232 29.6051047 -0.03876502 34.01016235 -0.0335083 C39.66661567 -0.02770921 45.32274202 -0.04465096 50.97914124 -0.06785297 C55.31645641 -0.08255421 59.65369216 -0.08346701 63.99102783 -0.08034325 C66.07711434 -0.08085817 68.1632051 -0.08612778 70.24926758 -0.09615517 C73.16099572 -0.10843393 76.07207807 -0.10177988 78.98379517 -0.09014893 C79.85243195 -0.09779266 80.72106873 -0.1054364 81.61602783 -0.11331177 C84.01235962 -0.09205627 84.01235962 -0.09205627 87.80801392 0.28216553 C90.03237895 3.61871308 90.05465069 4.70776656 89.99551392 8.59466553 C89.9890686 9.51892334 89.98262329 10.44318115 89.97598267 11.39544678 C89.80801392 14.28216553 89.80801392 14.28216553 88.80801392 20.28216553 C57.12801392 20.28216553 25.44801392 20.28216553 -7.19198608 20.28216553 C-8.77176317 17.12261136 -8.37645692 13.74752735 -8.37948608 10.28216553 C-8.39173218 9.54482178 -8.40397827 8.80747803 -8.41659546 8.04779053 C-8.42186004 6.12446495 -8.31402055 4.2016229 -8.19198608 2.28216553 C-5.54617676 -0.36364379 -3.6006914 0.03225916 0 0 Z " fill="#2B2A29" transform="translate(2706.1919860839844,884.7178344726563)"/>
<path d="M0 0 C1.32708733 0.00539291 1.32708733 0.00539291 2.6809845 0.01089478 C4.07108734 0.01067574 4.07108734 0.01067574 5.48927307 0.01045227 C8.56809285 0.01115178 11.64685295 0.01894595 14.72566223 0.02676392 C16.85415616 0.02862796 18.98265051 0.03005193 21.11114502 0.03105164 C26.72537919 0.03487789 32.33958766 0.04470909 37.95381165 0.05575562 C43.67788851 0.06596743 49.40196951 0.07054876 55.12605286 0.07559204 C66.36629855 0.08633126 77.60652513 0.10340896 88.84675598 0.12442017 C90.84675598 4.12442017 90.84675598 4.12442017 89.84675598 20.12442017 C57.83675598 20.12442017 25.82675598 20.12442017 -7.15324402 20.12442017 C-7.15324402 0.01228059 -7.15324402 0.01228059 0 0 Z " fill="#2B2A29" transform="translate(2593.1532440185547,884.8755798339844)"/>
<path d="M0 0 C0.87223206 0.00045319 1.74446411 0.00090637 2.64312744 0.00137329 C3.55689651 -0.00198532 4.47066559 -0.00534393 5.41212463 -0.00880432 C8.44885599 -0.01834489 11.4855324 -0.02025897 14.52227783 -0.02133179 C16.62356082 -0.02454217 18.72484359 -0.02790607 20.8261261 -0.03141785 C25.23713703 -0.03741687 29.64812834 -0.03925695 34.05914307 -0.03866577 C39.72339676 -0.0385641 45.38752524 -0.05221848 51.05174923 -0.06943798 C55.3933419 -0.0805328 59.73490407 -0.08258576 64.07650948 -0.08205605 C66.16538487 -0.08323989 68.25426096 -0.08768412 70.34312248 -0.09538841 C73.2596207 -0.1051378 76.17584397 -0.10233037 79.09234619 -0.09628296 C79.96255402 -0.10190247 80.83276184 -0.10752197 81.7293396 -0.11331177 C87.70411884 -0.08167828 87.70411884 -0.08167828 89.93243408 2.14663696 C89.93243408 8.08663696 89.93243408 14.02663696 89.93243408 20.14663696 C58.25243408 20.14663696 26.57243408 20.14663696 -6.06756592 20.14663696 C-8.24132215 15.7991245 -8.16585292 13.10147179 -7.75506592 8.45913696 C-7.70672607 7.77013306 -7.65838623 7.08112915 -7.60858154 6.37124634 C-7.10275045 -0.14052862 -6.44401846 0.0348152 0 0 Z " fill="#2B2A29" transform="translate(3003.0675659179688,884.8533630371094)"/>
<path d="M0 0 C1.30834808 0.00303635 1.30834808 0.00303635 2.64312744 0.00613403 C3.55689651 0.00438171 4.47066559 0.00262939 5.41212463 0.00082397 C8.44886139 -0.0035965 11.48554043 -0.00065562 14.52227783 0.00271606 C16.6235607 0.00204302 18.7248435 0.001073 20.8261261 -0.00018311 C25.23713927 -0.00166039 29.64813224 0.00049524 34.05914307 0.00515747 C39.72336151 0.01085128 45.38753253 0.00757815 51.05174923 0.00158501 C55.39333963 -0.00202276 59.73491874 -0.00088096 64.07650948 0.0017128 C66.16538053 0.00238165 68.25425261 0.0015551 70.34312248 -0.00076675 C73.25955816 -0.00329641 76.17591631 0.00055195 79.09234619 0.00613403 C79.96255402 0.0041098 80.83276184 0.00208557 81.7293396 0 C87.70390787 0.02126546 87.70390787 0.02126546 89.93243408 1.13552856 C89.93243408 7.40552856 89.93243408 13.67552856 89.93243408 20.13552856 C57.92243408 20.13552856 25.91243408 20.13552856 -7.06756592 20.13552856 C-7.06756592 0.02524565 -7.06756592 0.02524565 0 0 Z " fill="#2B2A29" transform="translate(3556.0675659179688,884.8644714355469)"/>
<path d="M0 0 C31.68 0 63.36 0 96 0 C96 6.6 96 13.2 96 20 C64.32 20 32.64 20 0 20 C0 13.4 0 6.8 0 0 Z " fill="#2B2A29" transform="translate(1839,885)"/>
<path d="M0 0 C31.68 0 63.36 0 96 0 C96 6.6 96 13.2 96 20 C64.32 20 32.64 20 0 20 C0 13.4 0 6.8 0 0 Z " fill="#2B2A29" transform="translate(1542,885)"/>
<path d="M0 0 C1.32708733 0.00539291 1.32708733 0.00539291 2.6809845 0.01089478 C4.07108734 0.01067574 4.07108734 0.01067574 5.48927307 0.01045227 C8.56809285 0.01115178 11.64685295 0.01894595 14.72566223 0.02676392 C16.85415616 0.02862796 18.98265051 0.03005193 21.11114502 0.03105164 C26.72537919 0.03487789 32.33958766 0.04470909 37.95381165 0.05575562 C43.67788851 0.06596743 49.40196951 0.07054876 55.12605286 0.07559204 C66.36630036 0.08633126 77.60652202 0.10392892 88.84675598 0.12442017 C88.84675598 6.72442017 88.84675598 13.32442017 88.84675598 20.12442017 C57.16675598 20.12442017 25.48675598 20.12442017 -7.15324402 20.12442017 C-7.15324402 0.01228059 -7.15324402 0.01228059 0 0 Z " fill="#2B2A29" transform="translate(2371.1532440185547,884.8755798339844)"/>
<path d="M0 0 C2.94195856 2.94195856 4.3863048 6.46880206 6.1875 10.1875 C6.56841797 10.93064453 6.94933594 11.67378906 7.34179688 12.43945312 C9.73335331 17.39184131 10.59656733 20.52861756 9 26 C7.54197148 29.42526329 5.85567192 32.70557076 4.125 36 C3.11667691 37.96651953 2.11022335 39.93399858 1.10546875 41.90234375 C0.58903809 42.91022949 0.07260742 43.91811523 -0.45947266 44.95654297 C-2.90511476 49.78813956 -5.2377969 54.67183138 -7.5625 59.5625 C-8.01004639 60.50230713 -8.45759277 61.44211426 -8.91870117 62.41040039 C-9.82125614 64.30740862 -10.72303143 66.204788 -11.62402344 68.10253906 C-13.48339186 72.01790181 -15.34847327 75.93053411 -17.21337891 79.84326172 C-19.14359779 83.89486723 -21.07158574 87.94753525 -23 92 C-30.59 92 -38.18 92 -46 92 C-44.56701564 87.70104692 -43.17726134 84.10588509 -41.17773438 80.11254883 C-40.60953979 78.97308304 -40.04134521 77.83361725 -39.45593262 76.65962219 C-38.83534406 75.42535532 -38.21461261 74.19116029 -37.59375 72.95703125 C-36.94766429 71.66605544 -36.30187733 70.37493008 -35.65637207 69.08366394 C-34.30040628 66.37329451 -32.94177385 63.6642849 -31.58105469 60.95629883 C-29.86708365 57.54511709 -28.15824173 54.13140018 -26.45118713 50.71675301 C-8.12771524 14.07116428 -8.12771524 14.07116428 0 0 Z " fill="#2B2A29" transform="translate(662,917)"/>
<path d="M0 0 C5.61 0 11.22 0 17 0 C17 32.01 17 64.02 17 97 C11.39 97 5.78 97 0 97 C0 64.99 0 32.98 0 0 Z " fill="#2B2A29" transform="translate(2514,912)"/>
<path d="M0 0 C5.28 0 10.56 0 16 0 C16 32.01 16 64.02 16 97 C10.72 97 5.44 97 0 97 C-1.88657671 95.11342329 -1.12667188 92.36827497 -1.13552856 89.85786438 C-1.13350433 88.97471054 -1.1314801 88.0915567 -1.12939453 87.18164062 C-1.13114685 86.25651169 -1.13289917 85.33138275 -1.13470459 84.3782196 C-1.13912467 81.30421095 -1.13618457 78.2302593 -1.1328125 75.15625 C-1.13348549 73.03015125 -1.13445548 70.90405258 -1.13571167 68.7779541 C-1.13718886 64.3156664 -1.13503342 59.85339867 -1.13037109 55.39111328 C-1.1246738 49.65729431 -1.12795269 43.92352215 -1.13394356 38.1897049 C-1.13754861 33.79754277 -1.13641084 29.40539183 -1.13381577 25.01322937 C-1.13314634 22.89841201 -1.13397545 20.78359366 -1.13629532 18.66877747 C-1.13882093 15.71861054 -1.13498254 12.76852054 -1.12939453 9.81835938 C-1.13141876 8.93520554 -1.13344299 8.0520517 -1.13552856 7.14213562 C-1.11426234 1.11426234 -1.11426234 1.11426234 0 0 Z " fill="#2B2A29" transform="translate(2626,912)"/>
<path d="M0 0 C5.28 0 10.56 0 16 0 C16 32.01 16 64.02 16 97 C10.72 97 5.44 97 0 97 C0 64.99 0 32.98 0 0 Z " fill="#2B2A29" transform="translate(3258,912)"/>
<path d="M0 0 C4.16868164 2.08434082 6.59704146 4.53307068 9.625 7.9375 C10.11484375 8.47568359 10.6046875 9.01386719 11.109375 9.56835938 C15.51410828 14.44846688 17.25078001 16.95714576 17.24291992 23.56689453 C17.24481827 24.22896912 17.24671661 24.8910437 17.24867249 25.57318115 C17.252375 27.75984567 17.24168563 29.94617755 17.23046875 32.1328125 C17.22927676 33.65070558 17.22882383 35.1685994 17.2290802 36.68649292 C17.22751636 39.86574935 17.21923285 43.04489302 17.20581055 46.22412109 C17.1887919 50.30778083 17.18499708 54.39131696 17.18575573 58.47500801 C17.18548442 61.60787139 17.18001005 64.74070752 17.17275429 67.87356186 C17.16956352 69.37992013 17.16759927 70.8862815 17.16686058 72.39264297 C17.16470294 74.49244756 17.15597223 76.59211846 17.14526367 78.69189453 C17.13954597 80.48700974 17.13954597 80.48700974 17.13371277 82.31838989 C17 85 17 85 16 86 C10.72 86 5.44 86 0 86 C0 57.62 0 29.24 0 0 Z " fill="#2B2A29" transform="translate(891,923)"/>
</svg>
