<?xml version="1.0" encoding="UTF-8"?>
<svg version="1.1" xmlns="http://www.w3.org/2000/svg" width="300" height="126">
<path d="M0 0 C9.735 -0.0825 19.47 -0.165 29.5 -0.25 C32.55958984 -0.28641602 35.61917969 -0.32283203 38.77148438 -0.36035156 C41.21223246 -0.37204036 43.65298836 -0.38223173 46.09375 -0.390625 C47.34833008 -0.41108887 48.60291016 -0.43155273 49.89550781 -0.45263672 C56.6754819 -0.45532932 62.533374 -0.3892129 68 4 C71.76410637 8.41777753 73.42496934 13.40734694 75.22265625 18.8359375 C75.5171315 19.70100922 75.81160675 20.56608093 76.11500549 21.45736694 C76.75048698 23.32566741 77.38238177 25.19519094 78.01104736 27.0657959 C79.01629214 30.04833848 80.03676804 33.02525319 81.06201172 36.00097656 C82.83837673 41.15742429 84.60380486 46.31750876 86.36401367 51.47949219 C87.0908296 53.60919343 87.81906155 55.73841185 88.54858398 57.8671875 C89.61736575 60.98598189 90.68220684 64.10609552 91.74609375 67.2265625 C92.07411484 68.18156647 92.40213593 69.13657043 92.74009705 70.12051392 C93.03783524 70.99678436 93.33557343 71.87305481 93.64233398 72.77587891 C93.90545883 73.54606354 94.16858368 74.31624817 94.43968201 75.10977173 C95 77 95 77 95 79 C90.28611295 79.09940876 85.57284558 79.17172034 80.8581543 79.21972656 C79.25680909 79.23975347 77.6555362 79.26698354 76.05444336 79.30175781 C73.74314463 79.35067419 71.43281846 79.37305711 69.12109375 79.390625 C68.41351425 79.41127014 67.70593475 79.43191528 66.97691345 79.45318604 C61.41914905 79.45565471 58.40802701 78.1760391 54 75 C47.04577544 65.73187325 44.16184986 52.39178169 40.52636719 41.52612305 C39.70051097 39.06784341 38.86246232 36.61396653 38.0234375 34.16015625 C37.77854584 33.4142775 37.53365417 32.66839874 37.28134155 31.8999176 C35.8149476 27.62352345 34.52689138 23.98548564 31 21 C27.37 20.34 23.74 19.68 20 19 C20 38.8 20 58.6 20 79 C13.4 79 6.8 79 0 79 C0 52.93 0 26.86 0 0 Z " fill="#002870" transform="translate(53,47)"/>
<path d="M0 0 C4.73222455 -0.07445407 9.46410411 -0.1287447 14.19677734 -0.16479492 C15.80491072 -0.17983176 17.41300344 -0.20026672 19.02099609 -0.22631836 C21.33962064 -0.26292822 23.65770049 -0.27977722 25.9765625 -0.29296875 C27.04567368 -0.31619453 27.04567368 -0.31619453 28.13638306 -0.33988953 C32.84505167 -0.34145799 36.0182383 0.48822999 40 3 C45.95843296 10.38246096 48.30109918 19.86553722 51.25 28.75 C51.79597106 30.36619106 52.3428389 31.98207947 52.890625 33.59765625 C56.93180236 45.57113617 56.93180236 45.57113617 58 50 C58.18125931 49.46208832 58.36251862 48.92417664 58.54927063 48.3699646 C60.44225062 42.75512002 62.34132402 37.14236298 64.24389648 31.53076172 C64.95248318 29.43818882 65.65953166 27.34509438 66.36499023 25.25146484 C67.38117818 22.23655911 68.40294269 19.22359246 69.42578125 16.2109375 C69.73840408 15.27945892 70.05102692 14.34798035 70.37312317 13.38827515 C70.67320786 12.50781525 70.97329254 11.62735535 71.2824707 10.72021484 C71.54228226 9.95188324 71.80209381 9.18355164 72.06977844 8.39193726 C73.18936041 5.51308566 74.61860576 2.76278849 76 0 C82.93 0 89.86 0 97 0 C88.28568383 26.43504848 79.2291911 52.7404826 70 79 C64.98294279 79.07442006 59.96621028 79.12872908 54.94873047 79.16479492 C53.24359537 79.17983738 51.53849868 79.20027653 49.83349609 79.22631836 C47.37587988 79.26290284 44.91877731 79.27977173 42.4609375 79.29296875 C41.70444916 79.30845261 40.94796082 79.32393646 40.16854858 79.33988953 C35.37215189 79.3413984 32.17870275 78.59907331 28 76 C24.53306495 72.44020062 22.72146955 68.53027146 21 63.9375 C20.71656738 63.19725586 20.43313477 62.45701172 20.14111328 61.69433594 C16.24205427 51.27939979 12.82395201 40.68387084 9.3515625 30.12084961 C8.85679468 28.61701689 8.36200334 27.11319192 7.8671875 25.609375 C7.6279657 24.88069717 7.3887439 24.15201935 7.14227295 23.40126038 C5.18171455 17.46400406 3.06810187 11.59105066 0.88720703 5.73144531 C0 3 0 3 0 0 Z " fill="#002870" transform="translate(137,47)"/>
<path d="M0 0 C1.56047445 0.00015913 3.12095416 0.00585397 4.68139648 0.01586914 C5.5012352 0.01728409 6.32107391 0.01869904 7.16575623 0.02015686 C9.79470406 0.0257725 12.42356797 0.0383276 15.05249023 0.05102539 C16.8304838 0.05603838 18.60847869 0.06060163 20.38647461 0.06469727 C24.75434569 0.07574701 29.12215371 0.09302208 33.48999023 0.11352539 C33.48999023 4.07352539 33.48999023 8.03352539 33.48999023 12.11352539 C39.09999023 12.44352539 44.70999023 12.77352539 50.48999023 13.11352539 C50.48999023 19.38352539 50.48999023 25.65352539 50.48999023 32.11352539 C44.87999023 32.11352539 39.26999023 32.11352539 33.48999023 32.11352539 C33.98499023 52.40852539 33.98499023 52.40852539 34.48999023 73.11352539 C39.76999023 73.44352539 45.04999023 73.77352539 50.48999023 74.11352539 C50.48999023 80.05352539 50.48999023 85.99352539 50.48999023 92.11352539 C44.04879213 92.21258558 37.60803989 92.28508551 31.16625977 92.33325195 C28.976077 92.35333646 26.78594765 92.38060956 24.59594727 92.4152832 C21.44330648 92.46393948 18.29137619 92.48652617 15.13842773 92.50415039 C14.1632016 92.52479553 13.18797546 92.54544067 12.18319702 92.56671143 C6.29180262 92.56864508 2.96549124 92.05425179 -1.51000977 88.11352539 C-5.90190666 81.14706825 -5.65175357 73.85925164 -5.60766602 65.90258789 C-5.60625107 64.9344516 -5.60483612 63.96631531 -5.6033783 62.96884155 C-5.59780342 59.8920374 -5.58525554 56.81530736 -5.57250977 53.73852539 C-5.56749152 51.64607853 -5.56292918 49.55363052 -5.55883789 47.46118164 C-5.54784221 42.34526789 -5.53059491 37.22940918 -5.51000977 32.11352539 C-8.48000977 32.11352539 -11.45000977 32.11352539 -14.51000977 32.11352539 C-12.6723169 24.76275391 -10.38114516 17.6370404 -7.88500977 10.48852539 C-7.57168701 9.58714844 -7.25836426 8.68577148 -6.93554688 7.75708008 C-6.637854 6.91306641 -6.34016113 6.06905273 -6.03344727 5.19946289 C-5.63005127 4.05550049 -5.63005127 4.05550049 -5.21850586 2.88842773 C-3.95090917 -0.287116 -3.76215914 0.12168074 0 0 Z " fill="#002870" transform="translate(249.510009765625,33.886474609375)"/>
<path d="M0 0 C12.54 0 25.08 0 38 0 C38 26.07 38 52.14 38 79 C25.46 79 12.92 79 0 79 C0 52.93 0 26.86 0 0 Z " fill="#002870" transform="translate(1,47)"/>
<path d="M0 0 C5.05280981 2.68813944 8.30297496 6.6951669 11.14453125 11.56640625 C12.79767783 18.17899256 12.63974628 24.4886159 9.2421875 30.4921875 C6.02292269 34.6567212 1.80211065 37.65971312 -3.16796875 39.31640625 C-10.00429378 40.05710932 -15.52536203 39.41326547 -21.16796875 35.31640625 C-24.95610454 31.71141189 -27.90392989 27.7784829 -28.46875 22.51171875 C-28.50960872 11.80673496 -28.50960872 11.80673496 -25.16796875 7.31640625 C-17.93618615 0.08462365 -10.37364378 -3.27096876 0 0 Z " fill="#D7132E" transform="translate(28.16796875,0.68359375)"/>
</svg>
