<?xml version="1.0" encoding="UTF-8"?>
<svg version="1.1" xmlns="http://www.w3.org/2000/svg" width="148" height="35">
<path d="M0 0 C2.97 0 5.94 0 9 0 C9.66 2.31 10.32 4.62 11 7 C11.66 4.69 12.32 2.38 13 0 C19.15234375 -0.09765625 19.15234375 -0.09765625 21 0 C23.09467928 2.09467928 22.42145708 6.47710378 22.5625 9.375 C22.6049585 10.18759277 22.64741699 11.00018555 22.69116211 11.83740234 C22.98997939 17.89431443 23.12021817 23.93566123 23 30 C20.69 30 18.38 30 16 30 C15.67 28.02 15.34 26.04 15 24 C14.67 25.98 14.34 27.96 14 30 C12.02 30 10.04 30 8 30 C7.67 29.34 7.34 28.68 7 28 C6.67 28.66 6.34 29.32 6 30 C3.36 30 0.72 30 -2 30 C-1.34 20.1 -0.68 10.2 0 0 Z " fill="#0047BA" transform="translate(37,3)"/>
<path d="M0 0 C2.64 0 5.28 0 8 0 C8.66 2.31 9.32 4.62 10 7 C10 4.69 10 2.38 10 0 C12.64 0 15.28 0 18 0 C18 9.9 18 19.8 18 30 C15.36 30 12.72 30 10 30 C9.34 28.02 8.68 26.04 8 24 C7.67 25.98 7.34 27.96 7 30 C4.69 30 2.38 30 0 30 C0 20.1 0 10.2 0 0 Z " fill="#0047BA" transform="translate(71,3)"/>
<path d="M0 0 C2.64 0 5.28 0 8 0 C8 7.26 8 14.52 8 22 C8.66 22 9.32 22 10 22 C10 14.74 10 7.48 10 0 C12.64 0 15.28 0 18 0 C18.08732726 3.89569135 18.14050185 7.79112982 18.1875 11.6875 C18.21263672 12.79029297 18.23777344 13.89308594 18.26367188 15.02929688 C18.27333984 16.09599609 18.28300781 17.16269531 18.29296875 18.26171875 C18.3086792 19.24100342 18.32438965 20.22028809 18.34057617 21.22924805 C17.93894729 24.4966933 16.92800879 26.35539654 15 29 C11.81496713 30.59251643 8.4667595 30.39129761 5 30 C1.76386646 28.25746655 1.17604685 27.52814056 0 24 C-0.08239169 22.15389468 -0.10743359 20.30494836 -0.09765625 18.45703125 C-0.09443359 17.38388672 -0.09121094 16.31074219 -0.08789062 15.20507812 C-0.07951172 14.08552734 -0.07113281 12.96597656 -0.0625 11.8125 C-0.05798828 10.68134766 -0.05347656 9.55019531 -0.04882812 8.38476562 C-0.03703498 5.58979073 -0.0205765 2.7949218 0 0 Z " fill="#0047BA" transform="translate(17,3)"/>
<path d="M0 0 C3.03553973 0.04887273 3.98068252 0.17099331 6.5625 1.9375 C10.47616641 7.65747398 10.87205288 13.57069135 10.1875 20.3125 C9.1138596 24.73942821 8.11170006 27.69636663 4.1875 30.3125 C-0.98830071 30.88758897 -0.98830071 30.88758897 -3.8125 30.3125 C-8.54455174 25.70178292 -9.03967313 21.91081921 -9.125 15.5625 C-9.15400391 14.85867187 -9.18300781 14.15484375 -9.21289062 13.4296875 C-9.27535712 8.25938353 -8.13846862 5.45883182 -4.8125 1.3125 C-3.8125 0.3125 -3.8125 0.3125 0 0 Z M0.1875 7.3125 C-1.17782549 8.44951597 -1.17782549 8.44951597 -0.91015625 11.47265625 C-0.89855469 12.76042969 -0.88695313 14.04820313 -0.875 15.375 C-0.86597656 16.66535156 -0.85695313 17.95570312 -0.84765625 19.28515625 C-0.83605469 20.28417969 -0.82445313 21.28320312 -0.8125 22.3125 C0.1775 22.8075 0.1775 22.8075 1.1875 23.3125 C2.55021133 20.58707733 2.35673601 18.35162726 2.375 15.3125 C2.38917969 14.24 2.40335938 13.1675 2.41796875 12.0625 C2.47335786 9.16796904 2.47335786 9.16796904 0.1875 7.3125 Z " fill="#0047BA" transform="translate(98.8125,2.6875)"/>
<path d="M0 0 C2.31 0 4.62 0 7 0 C7 7.26 7 14.52 7 22 C9.19302257 20.22398157 9.19302257 20.22398157 9.22705078 17.93701172 C9.21134033 16.69588623 9.21134033 16.69588623 9.1953125 15.4296875 C9.18886719 14.53378906 9.18242188 13.63789063 9.17578125 12.71484375 C9.15902344 11.77769531 9.14226562 10.84054687 9.125 9.875 C9.11597656 8.93011719 9.10695313 7.98523438 9.09765625 7.01171875 C9.07404522 4.67422708 9.04111516 2.33723877 9 0 C11.64 0 14.28 0 17 0 C17.14547545 4.06212212 17.23413226 8.12357287 17.3125 12.1875 C17.35439453 13.33798828 17.39628906 14.48847656 17.43945312 15.67382812 C17.5628572 24.18870928 17.5628572 24.18870928 14.734375 28.265625 C10.58373699 30.8983154 8.84699366 30.69242767 4 30 C1.13462348 27.86513705 0.11537219 26.72175852 -0.45410156 23.15917969 C-0.4331543 22.09086914 -0.41220703 21.02255859 -0.390625 19.921875 C-0.37773438 18.76171875 -0.36484375 17.6015625 -0.3515625 16.40625 C-0.31804687 15.1996875 -0.28453125 13.993125 -0.25 12.75 C-0.22292969 10.91695312 -0.22292969 10.91695312 -0.1953125 9.046875 C-0.148181 6.03045922 -0.08239413 3.01562509 0 0 Z " fill="#0047BA" transform="translate(110,3)"/>
<path d="M0 0 C3.875 0.375 3.875 0.375 5.875 1.375 C5.875 4.015 5.875 6.655 5.875 9.375 C3.895 8.715 1.915 8.055 -0.125 7.375 C1.28834938 9.79788465 2.63487488 12.0920803 4.453125 14.234375 C6.94806748 17.9904972 6.5021364 22.03550444 5.875 26.375 C4.375 29 4.375 29 1.875 30.375 C-1.61039659 30.83650508 -4.9113589 30.98182055 -8.125 29.375 C-8.125 26.405 -8.125 23.435 -8.125 20.375 C-5.815 21.035 -3.505 21.695 -1.125 22.375 C-2.0221875 21.0446875 -2.0221875 21.0446875 -2.9375 19.6875 C-4.0203125 18.0478125 -4.0203125 18.0478125 -5.125 16.375 C-5.7025 15.55 -6.28 14.725 -6.875 13.875 C-8.45079577 10.72340846 -8.63319674 8.85977764 -8.125 5.375 C-6.02500257 1.35000492 -4.44872806 0.06470877 0 0 Z " fill="#0047BA" transform="translate(136.125,2.625)"/>
<path d="M0 0 C2.31 0 4.62 0 7 0 C7 7.26 7 14.52 7 22 C8.65 22 10.3 22 12 22 C12 24.64 12 27.28 12 30 C8.04 30 4.08 30 0 30 C0 20.1 0 10.2 0 0 Z " fill="#0047BA" transform="translate(4,3)"/>
<path d="M0 0 C2.64 0 5.28 0 8 0 C8 9.9 8 19.8 8 30 C5.36 30 2.72 30 0 30 C0 20.1 0 10.2 0 0 Z " fill="#0047BA" transform="translate(61,3)"/>
</svg>
