<?xml version="1.0" encoding="UTF-8"?>
<svg version="1.1" xmlns="http://www.w3.org/2000/svg" width="300" height="72">
<path d="M0 0 C99 0 198 0 300 0 C300 23.76 300 47.52 300 72 C201 72 102 72 0 72 C0 48.24 0 24.48 0 0 Z " fill="#F8F8F8" transform="translate(0,0)"/>
<path d="M0 0 C1.08809212 0.01061211 1.08809212 0.01061211 2.19816589 0.0214386 C4.50167578 0.04929719 6.80270126 0.11200934 9.10546875 0.17578125 C10.67249078 0.20087562 12.23955115 0.22368681 13.80664062 0.24414062 C17.63636531 0.29909444 21.46424672 0.38529899 25.29296875 0.48828125 C25.29296875 2.79828125 25.29296875 5.10828125 25.29296875 7.48828125 C16.05296875 7.81828125 6.81296875 8.14828125 -2.70703125 8.48828125 C-3.03703125 9.80828125 -3.36703125 11.12828125 -3.70703125 12.48828125 C6.19296875 12.48828125 16.09296875 12.48828125 26.29296875 12.48828125 C26.29296875 14.79828125 26.29296875 17.10828125 26.29296875 19.48828125 C16.39296875 19.48828125 6.49296875 19.48828125 -3.70703125 19.48828125 C-3.37703125 20.80828125 -3.04703125 22.12828125 -2.70703125 23.48828125 C11.15296875 23.98328125 11.15296875 23.98328125 25.29296875 24.48828125 C25.29296875 26.79828125 25.29296875 29.10828125 25.29296875 31.48828125 C20.66656722 31.58729873 16.04078488 31.65981774 11.41357422 31.70800781 C9.84022271 31.72810005 8.26694567 31.75537924 6.69384766 31.79003906 C4.42982603 31.83866619 2.16679302 31.8612726 -0.09765625 31.87890625 C-0.79884583 31.89955139 -1.5000354 31.92019653 -2.22247314 31.94146729 C-5.65434503 31.94303736 -7.38615295 31.74085441 -10.12011719 29.58886719 C-13.46451323 25.16191587 -12.99856896 21.05909926 -13.08203125 15.67578125 C-13.11941406 14.77279297 -13.15679687 13.86980469 -13.1953125 12.93945312 C-13.20691406 12.06224609 -13.21851563 11.18503906 -13.23046875 10.28125 C-13.25028809 9.48227295 -13.27010742 8.6832959 -13.29052734 7.86010742 C-11.58243235 0.91695143 -6.32598765 -0.2345467 0 0 Z " fill="#080808" transform="translate(142.70703125,9.51171875)"/>
<path d="M0 0 C1.02787125 0.00212242 1.02787125 0.00212242 2.07650757 0.00428772 C4.26719511 0.0098895 6.4577808 0.02244219 8.6484375 0.03515625 C10.13281102 0.04017103 11.61718615 0.04473397 13.1015625 0.04882812 C16.74222065 0.05985948 20.38281914 0.07712526 24.0234375 0.09765625 C24.0234375 2.07765625 24.0234375 4.05765625 24.0234375 6.09765625 C10.6584375 6.59265625 10.6584375 6.59265625 -2.9765625 7.09765625 C-2.6465625 8.41765625 -2.3165625 9.73765625 -1.9765625 11.09765625 C-1.01617065 11.11953003 -1.01617065 11.11953003 -0.03637695 11.1418457 C2.87998581 11.21657007 5.79523437 11.31314918 8.7109375 11.41015625 C9.71833984 11.43271484 10.72574219 11.45527344 11.76367188 11.47851562 C21.17968451 11.82035107 21.17968451 11.82035107 25.0234375 15.09765625 C26.55558638 18.16195401 26.25282298 20.71422045 26.0234375 24.09765625 C24.61883053 26.97071597 23.27832751 28.84276624 21.0234375 31.09765625 C18.51422904 31.27261231 16.11718809 31.32935194 13.609375 31.29296875 C12.87973541 31.29013885 12.15009583 31.28730896 11.39834595 31.28439331 C9.06487722 31.27318627 6.73179047 31.24808135 4.3984375 31.22265625 C2.81771387 31.2126271 1.23698423 31.20350114 -0.34375 31.1953125 C-4.22150164 31.1732453 -8.09896728 31.1387124 -11.9765625 31.09765625 C-11.9765625 28.78765625 -11.9765625 26.47765625 -11.9765625 24.09765625 C-2.7365625 23.76765625 6.5034375 23.43765625 16.0234375 23.09765625 C16.0234375 22.10765625 16.0234375 21.11765625 16.0234375 20.09765625 C15.3528833 20.09354736 14.6823291 20.08943848 13.99145508 20.08520508 C10.93873359 20.05220982 7.8879922 19.98156005 4.8359375 19.91015625 C3.78083984 19.90435547 2.72574219 19.89855469 1.63867188 19.89257812 C-6.17786285 19.67065758 -6.17786285 19.67065758 -10.18359375 16.796875 C-12.70467101 13.00152776 -12.8112369 10.4930161 -11.9765625 6.09765625 C-9.05862913 -0.13611049 -6.5826185 -0.02675861 0 0 Z " fill="#080808" transform="translate(272.9765625,9.90234375)"/>
<path d="M0 0 C11.33183857 -1.0735426 11.33183857 -1.0735426 15.421875 1.55859375 C17.11244582 3.29457246 18.60930363 5.01762554 20 7 C22.91144022 5.70736886 23.95830886 5.05836759 25.875 2.375 C30.98458287 -1.50828298 36.80158925 -0.37744044 43 0 C38.59156563 5.29012124 33.92440206 10.18808428 29 15 C32.93803747 19.72564497 37.04515378 24.11496191 41.4609375 28.3984375 C43 30 43 30 43 31 C38.38 31 33.76 31 29 31 C28.34 29.68 27.68 28.36 27 27 C26.01 26.67 25.02 26.34 24 26 C23.67 25.34 23.34 24.68 23 24 C19.382569 24.60417981 19.04059905 24.94899094 16.5625 28.0625 C14.25473154 30.57407139 13.18553914 30.97766454 9.72265625 31.39453125 C6.46307338 31.37683536 3.24872843 31.26028388 0 31 C1.76349546 27.20046888 3.95664743 24.90501836 7 22 C8.10676776 20.89844056 9.21094056 19.79426776 10.3125 18.6875 C11.199375 17.800625 12.08625 16.91375 13 16 C11.39586451 11.93168047 8.46854052 9.2764887 5.375 6.3125 C3.56148942 4.56019541 1.77313991 2.79389573 0 1 C0 0.67 0 0.34 0 0 Z " fill="#040404" transform="translate(172,10)"/>
<path d="M0 0 C1.07185547 -0.01611328 2.14371094 -0.03222656 3.24804688 -0.04882812 C13.32661892 -0.05506873 13.32661892 -0.05506873 18.0625 3.3125 C21.10695944 6.55849792 21.422722 8.77799622 21.35546875 13.171875 C21.3409668 14.84443359 21.3409668 14.84443359 21.32617188 16.55078125 C21.30103516 17.70964844 21.27589844 18.86851563 21.25 20.0625 C21.22969727 21.82400391 21.22969727 21.82400391 21.20898438 23.62109375 C21.1736478 26.51869298 21.12430979 29.41536427 21.0625 32.3125 C18.0925 32.3125 15.1225 32.3125 12.0625 32.3125 C11.7325 24.7225 11.4025 17.1325 11.0625 9.3125 C7.783125 9.291875 4.50375 9.27125 1.125 9.25 C0.08996338 9.240896 -0.94507324 9.23179199 -2.01147461 9.22241211 C-2.82108643 9.21991455 -3.63069824 9.21741699 -4.46484375 9.21484375 C-5.29749756 9.20960693 -6.13015137 9.20437012 -6.98803711 9.19897461 C-8.94266798 9.09606708 -8.94266798 9.09606708 -9.9375 10.3125 C-10.09464654 11.94506758 -10.18835414 13.58385338 -10.25390625 15.22265625 C-10.29580078 16.21201172 -10.33769531 17.20136719 -10.38085938 18.22070312 C-10.42017578 19.26162109 -10.45949219 20.30253906 -10.5 21.375 C-10.54318359 22.41978516 -10.58636719 23.46457031 -10.63085938 24.54101562 C-10.73731105 27.13133972 -10.83794308 29.72190175 -10.9375 32.3125 C-14.2375 32.3125 -17.5375 32.3125 -20.9375 32.3125 C-21.05418214 28.43775543 -21.12491231 24.56346604 -21.1875 20.6875 C-21.22101563 19.59308594 -21.25453125 18.49867187 -21.2890625 17.37109375 C-21.3996522 8.24744378 -21.3996522 8.24744378 -19.234375 4.6640625 C-13.8505575 -0.84794113 -7.20771863 -0.02159293 0 0 Z " fill="#0C0C0C" transform="translate(104.9375,8.6875)"/>
<path d="M0 0 C2.97 0 5.94 0 9 0 C9.01981934 0.62567871 9.03963867 1.25135742 9.06005859 1.89599609 C9.15514226 4.72276519 9.26488746 7.54877815 9.375 10.375 C9.4059375 11.35984375 9.436875 12.3446875 9.46875 13.359375 C9.50742188 14.30039062 9.54609375 15.24140625 9.5859375 16.2109375 C9.6173584 17.08024902 9.6487793 17.94956055 9.68115234 18.84521484 C9.81229433 21.20961794 9.81229433 21.20961794 12 23 C14.54535141 23.19849071 16.95716759 23.27851775 19.5 23.25 C20.53447266 23.26160156 20.53447266 23.26160156 21.58984375 23.2734375 C25.75214386 23.3761305 25.75214386 23.3761305 29 21 C29.37004294 18.77341846 29.37004294 18.77341846 29.4140625 16.2109375 C29.45273438 15.26992188 29.49140625 14.32890625 29.53125 13.359375 C29.5621875 12.37453125 29.593125 11.3896875 29.625 10.375 C29.66367188 9.38242187 29.70234375 8.38984375 29.7421875 7.3671875 C29.8366314 4.91164615 29.92219875 2.4561159 30 0 C32.97 0 35.94 0 39 0 C39.08732726 3.89569135 39.14050185 7.79112982 39.1875 11.6875 C39.21263672 12.79029297 39.23777344 13.89308594 39.26367188 15.02929688 C39.27333984 16.09599609 39.28300781 17.16269531 39.29296875 18.26171875 C39.3086792 19.24100342 39.32438965 20.22028809 39.34057617 21.22924805 C38.93247053 24.5493849 38.02491454 26.34988275 36 29 C31.18778604 32.41745359 24.69979365 31.3688625 19.0625 31.375 C17.88236328 31.39949219 16.70222656 31.42398438 15.48632812 31.44921875 C14.34744141 31.45308594 13.20855469 31.45695312 12.03515625 31.4609375 C10.47873413 31.47326416 10.47873413 31.47326416 8.89086914 31.48583984 C5.27768739 30.87860805 3.6172187 29.51049489 1 27 C-0.3308911 24.33821779 -0.11268993 22.31260604 -0.09765625 19.3359375 C-0.09443359 18.21445312 -0.09121094 17.09296875 -0.08789062 15.9375 C-0.07951172 14.761875 -0.07113281 13.58625 -0.0625 12.375 C-0.05798828 11.19164062 -0.05347656 10.00828125 -0.04882812 8.7890625 C-0.03701467 5.85932493 -0.02054258 2.92968728 0 0 Z " fill="#040404" transform="translate(218,10)"/>
<path d="M0 0 C4.29183459 1.64557388 8.04580299 3.67400176 12 6 C10.30126869 10.58739519 7.93873865 14.47373745 5.33984375 18.59765625 C3.77647109 21.15538957 3.77647109 21.15538957 3 25 C9.6 25 16.2 25 23 25 C23 29.62 23 34.24 23 39 C19.74861456 39.13497449 16.5028234 39.23409172 13.25 39.3125 C12.32960938 39.35439453 11.40921875 39.39628906 10.4609375 39.43945312 C3.64102138 39.56300233 3.64102138 39.56300233 0.625 36.9140625 C0.08875 35.95242187 -0.4475 34.99078125 -1 34 C-1.70640625 32.89785156 -2.4128125 31.79570313 -3.140625 30.66015625 C-3.84831946 29.46362839 -4.5513958 28.26435796 -5.25 27.0625 C-5.79527344 26.17014648 -5.79527344 26.17014648 -6.3515625 25.25976562 C-8.64381552 21.31726277 -9.77359058 18.53019335 -9 14 C-7.73221886 11.37104883 -6.16371692 9.01815437 -4.5 6.625 C-4.07074219 5.98433594 -3.64148437 5.34367188 -3.19921875 4.68359375 C-2.14507459 3.11409022 -1.07418162 1.5558583 0 0 Z " fill="#070707" transform="translate(45,5)"/>
<path d="M0 0 C1.55654297 -0.08701172 1.55654297 -0.08701172 3.14453125 -0.17578125 C10.64707239 -0.30034451 10.64707239 -0.30034451 13.72119141 2.27880859 C15.27764825 4.32384795 16.53899557 6.36078545 17.75 8.625 C18.58144531 9.95144531 18.58144531 9.95144531 19.4296875 11.3046875 C20.02136719 12.39136719 20.02136719 12.39136719 20.625 13.5 C21.03492188 14.23992188 21.44484375 14.97984375 21.8671875 15.7421875 C22.75 17.625 22.75 17.625 22.75 19.625 C18.79 21.605 14.83 23.585 10.75 25.625 C10.13511719 24.48160156 9.52023438 23.33820313 8.88671875 22.16015625 C8.07080404 20.66900177 7.25437081 19.17813093 6.4375 17.6875 C6.03337891 16.93275391 5.62925781 16.17800781 5.21289062 15.40039062 C4.81650391 14.68173828 4.42011719 13.96308594 4.01171875 13.22265625 C3.65037842 12.55758057 3.28903809 11.89250488 2.91674805 11.20727539 C1.74804854 9.30442239 1.74804854 9.30442239 -1.25 8.625 C-1.63285156 9.66720703 -1.63285156 9.66720703 -2.0234375 10.73046875 C-4.24517806 15.97349345 -7.34788887 20.73440531 -10.25 25.625 C-14.21 23.645 -18.17 21.665 -22.25 19.625 C-20.63342076 15.58355191 -18.93668571 12.166911 -16.75 8.4375 C-16.1415625 7.39207031 -15.533125 6.34664062 -14.90625 5.26953125 C-11.05324745 -0.88255065 -6.7561131 0.12404124 0 0 Z " fill="#080808" transform="translate(34.25,43.375)"/>
<path d="M0 0 C2.60701443 2.09415913 3.97635285 4.39527284 5.65625 7.28125 C6.26984375 8.30734375 6.8834375 9.3334375 7.515625 10.390625 C9.09846372 13.96535065 9.52713981 15.67218101 8.90625 19.53125 C7.51926342 22.60180221 5.810304 25.42398146 4.03125 28.28125 C3.57105469 29.04824219 3.11085938 29.81523438 2.63671875 30.60546875 C-0.74445452 36.18195452 -0.74445452 36.18195452 -3.09375 38.53125 C-5.15673828 38.75830078 -5.15673828 38.75830078 -7.6640625 38.7265625 C-8.55996094 38.72011719 -9.45585937 38.71367188 -10.37890625 38.70703125 C-11.31605469 38.69027344 -12.25320313 38.67351563 -13.21875 38.65625 C-14.16363281 38.64722656 -15.10851562 38.63820312 -16.08203125 38.62890625 C-18.41937827 38.60529668 -20.75659549 38.56942494 -23.09375 38.53125 C-23.09375 33.91125 -23.09375 29.29125 -23.09375 24.53125 C-13.19375 24.03625 -13.19375 24.03625 -3.09375 23.53125 C-5.11684144 18.47352139 -7.64183363 14.46791571 -10.6328125 9.95703125 C-12.09375 7.53125 -12.09375 7.53125 -12.09375 5.53125 C-10.046875 3.953125 -10.046875 3.953125 -7.34375 2.28125 C-6.46203125 1.71921875 -5.5803125 1.1571875 -4.671875 0.578125 C-2.09375 -0.46875 -2.09375 -0.46875 0 0 Z " fill="#070707" transform="translate(24.09375,5.46875)"/>
<path d="M0 0 C0.28012939 0.57741943 0.56025879 1.15483887 0.84887695 1.74975586 C1.95120467 3.90461366 3.14715246 5.94478403 4.41796875 8.00390625 C4.86720703 8.74447266 5.31644531 9.48503906 5.77929688 10.24804688 C6.72300881 11.79908521 7.67361833 13.34594646 8.63085938 14.88867188 C9.07623047 15.62794922 9.52160156 16.36722656 9.98046875 17.12890625 C10.39192139 17.79994385 10.80337402 18.47098145 11.22729492 19.16235352 C12 21 12 21 11 24 C9.97060303 23.99214478 9.97060303 23.99214478 8.92041016 23.98413086 C5.82194936 23.96339044 2.72350314 23.95034924 -0.375 23.9375 C-1.99535156 23.92493164 -1.99535156 23.92493164 -3.6484375 23.91210938 C-4.6796875 23.90888672 -5.7109375 23.90566406 -6.7734375 23.90234375 C-7.72653809 23.89710693 -8.67963867 23.89187012 -9.66162109 23.88647461 C-12.02324406 23.84357401 -12.02324406 23.84357401 -14 25 C-12.3018598 20.3116564 -9.93837777 16.08143144 -7.5 11.75 C-7.09652344 11.0178125 -6.69304688 10.285625 -6.27734375 9.53125 C-5.88675781 8.83515625 -5.49617188 8.1390625 -5.09375 7.421875 C-4.56297852 6.47199707 -4.56297852 6.47199707 -4.02148438 5.50292969 C-3 4 -3 4 -1 3 C-0.67 2.01 -0.34 1.02 0 0 Z " fill="#FBFBFB" transform="translate(35,21)"/>
<path d="M0 0 C1.05960937 0.00676758 1.05960937 0.00676758 2.140625 0.01367188 C3.88545275 0.02546125 5.630237 0.04339676 7.375 0.0625 C7.42884521 2.35391286 7.46772087 4.64568188 7.5 6.9375 C7.52320313 8.21367188 7.54640625 9.48984375 7.5703125 10.8046875 C7.375 14.0625 7.375 14.0625 5.375 16.0625 C2.1171875 16.2578125 2.1171875 16.2578125 -1.75 16.1875 C-3.67199219 16.16042969 -3.67199219 16.16042969 -5.6328125 16.1328125 C-7.11394531 16.09800781 -7.11394531 16.09800781 -8.625 16.0625 C-8.625 14.7425 -8.625 13.4225 -8.625 12.0625 C-4.335 12.3925 -0.045 12.7225 4.375 13.0625 C4.375 12.0725 4.375 11.0825 4.375 10.0625 C3.45976562 10.08570313 2.54453125 10.10890625 1.6015625 10.1328125 C-0.18121094 10.15988281 -0.18121094 10.15988281 -2 10.1875 C-3.77503906 10.22230469 -3.77503906 10.22230469 -5.5859375 10.2578125 C-8.625 10.0625 -8.625 10.0625 -10.625 8.0625 C-10.375 4.5 -10.375 4.5 -9.625 1.0625 C-6.55966836 -0.47016582 -3.35745728 -0.04026471 0 0 Z " fill="#0B0B0B" transform="translate(271.625,47.9375)"/>
<path d="M0 0 C2.625 1.625 2.625 1.625 4 4 C4.48251058 7.30864396 4.42933153 9.19664067 2.84765625 12.15625 C1 14 1 14 -1.8125 14.53125 C-2.864375 14.5209375 -3.91625 14.510625 -5 14.5 C-6.5778125 14.51546875 -6.5778125 14.51546875 -8.1875 14.53125 C-11 14 -11 14 -12.84765625 12.15625 C-14.42933153 9.19664067 -14.48251058 7.30864396 -14 4 C-10.91630141 -1.32638848 -5.49945179 -0.89525959 0 0 Z " fill="#0C0C0C" transform="translate(121,48)"/>
<path d="M0 0 C5.28 0 10.56 0 16 0 C16 4.62 16 9.24 16 14 C13.37472811 14.05382106 10.75055287 14.09358313 8.125 14.125 C7.37863281 14.14175781 6.63226563 14.15851562 5.86328125 14.17578125 C3.90805539 14.1933959 1.95257979 14.10320189 0 14 C-2 12 -2 12 -2.25 9.5 C-2 7 -2 7 0 5 C3.0390625 4.8046875 3.0390625 4.8046875 6.625 4.875 C8.40777344 4.90207031 8.40777344 4.90207031 10.2265625 4.9296875 C11.14179688 4.95289063 12.05703125 4.97609375 13 5 C13 4.34 13 3.68 13 3 C8.71 3 4.42 3 0 3 C0 2.01 0 1.02 0 0 Z " fill="#111111" transform="translate(139,48)"/>
<path d="M0 0 C1.05445313 0.01289062 2.10890625 0.02578125 3.1953125 0.0390625 C5.875 0.375 5.875 0.375 7.875 2.375 C8 6 8 6 7.875 9.375 C1.44 9.87 1.44 9.87 -5.125 10.375 C-1.165 10.705 2.795 11.035 6.875 11.375 C6.875 12.365 6.875 13.355 6.875 14.375 C4.60520335 14.48294277 2.33394804 14.56056176 0.0625 14.625 C-1.20207031 14.67140625 -2.46664062 14.7178125 -3.76953125 14.765625 C-7.125 14.375 -7.125 14.375 -9.046875 12.546875 C-10.52250604 9.57422696 -10.60293778 7.65228761 -10.125 4.375 C-7.08581834 0.37569681 -4.9306443 -0.13326066 0 0 Z " fill="#161616" transform="translate(235.125,47.625)"/>
<path d="M0 0 C0.74362793 0.01047363 1.48725586 0.02094727 2.25341797 0.03173828 C3.46191406 0.04140625 3.46191406 0.04140625 4.69482422 0.05126953 C5.95746094 0.07640625 5.95746094 0.07640625 7.24560547 0.10205078 C8.51984375 0.11558594 8.51984375 0.11558594 9.81982422 0.12939453 C11.9202043 0.15299431 14.02043991 0.18886595 16.12060547 0.22705078 C16.12060547 1.21705078 16.12060547 2.20705078 16.12060547 3.22705078 C10.84060547 3.22705078 5.56060547 3.22705078 0.12060547 3.22705078 C0.12060547 4.21705078 0.12060547 5.20705078 0.12060547 6.22705078 C1.18021484 6.20384766 2.23982422 6.18064453 3.33154297 6.15673828 C4.71955677 6.13798134 6.10757817 6.11978106 7.49560547 6.10205078 C8.54361328 6.07691406 8.54361328 6.07691406 9.61279297 6.05126953 C11.44958033 6.03360811 13.28662509 6.12401818 15.12060547 6.22705078 C17.12060547 8.22705078 17.12060547 8.22705078 17.37060547 10.72705078 C17.12060547 13.22705078 17.12060547 13.22705078 15.12060547 15.22705078 C13.14941406 15.45410156 13.14941406 15.45410156 10.76904297 15.42236328 C9.91826172 15.41591797 9.06748047 15.40947266 8.19091797 15.40283203 C6.85673828 15.37769531 6.85673828 15.37769531 5.49560547 15.35205078 C4.14982422 15.33851562 4.14982422 15.33851562 2.77685547 15.32470703 C0.55783961 15.30110048 -1.66064531 15.26817388 -3.87939453 15.22705078 C-3.54939453 14.23705078 -3.21939453 13.24705078 -2.87939453 12.22705078 C2.40060547 12.22705078 7.68060547 12.22705078 13.12060547 12.22705078 C13.12060547 11.23705078 13.12060547 10.24705078 13.12060547 9.22705078 C12.06099609 9.25025391 11.00138672 9.27345703 9.90966797 9.29736328 C8.52165417 9.31612022 7.13363276 9.33432051 5.74560547 9.35205078 C4.69759766 9.3771875 4.69759766 9.3771875 3.62841797 9.40283203 C1.79163061 9.42049345 -0.04541416 9.33008339 -1.87939453 9.22705078 C-3.87939453 7.22705078 -3.87939453 7.22705078 -4.12939453 4.72705078 C-3.82602091 1.69331453 -3.16372552 0.38221158 0 0 Z " fill="#0E0E0E" transform="translate(87.87939453125,46.77294921875)"/>
<path d="M0 0 C6.93 0 13.86 0 21 0 C21 0.99 21 1.98 21 3 C15.06 3 9.12 3 3 3 C3 3.99 3 4.98 3 6 C6.96 6 10.92 6 15 6 C15 6.99 15 7.98 15 9 C11.04 9 7.08 9 3 9 C3 9.99 3 10.98 3 12 C8.94 12 14.88 12 21 12 C21 12.99 21 13.98 21 15 C14.07 15 7.14 15 0 15 C0 10.05 0 5.1 0 0 Z " fill="#040404" transform="translate(182,47)"/>
<path d="M0 0 C3.0625 1.875 3.0625 1.875 5 5 C5.39189688 8.37753234 5.29553853 11.61772566 5 15 C3.68 15 2.36 15 1 15 C0.93941406 14.28972656 0.87882813 13.57945313 0.81640625 12.84765625 C0.73261719 11.92855469 0.64882812 11.00945313 0.5625 10.0625 C0.48128906 9.14597656 0.40007812 8.22945312 0.31640625 7.28515625 C0.23955024 5.03840268 0.23955024 5.03840268 -1 4 C-3.67058851 3.85884839 -6.32432238 3.95752893 -9 4 C-9.33 7.3 -9.66 10.6 -10 14 C-10.99 14 -11.98 14 -13 14 C-13.6104394 5.11471542 -13.6104394 5.11471542 -11.5625 1.375 C-7.69172986 -0.70199861 -4.28696987 -0.84671469 0 0 Z " fill="#1B1B1B" transform="translate(218,48)"/>
<path d="M0 0 C0.99 0 1.98 0 3 0 C3.66 1.98 4.32 3.96 5 6 C7.64 6 10.28 6 13 6 C13.66 4.02 14.32 2.04 15 0 C15.99 0 16.98 0 18 0 C18.3327958 3.66075376 18.46170299 5.39500988 16.1875 8.375 C14 10 14 10 11 10 C11 11.98 11 13.96 11 16 C9.68 16 8.36 16 7 16 C6.938125 15.2575 6.87625 14.515 6.8125 13.75 C6.23475954 10.78726335 6.23475954 10.78726335 3.5 9.125 C1 7 1 7 0.1875 3.25 C0.125625 2.1775 0.06375 1.105 0 0 Z " fill="#141414" transform="translate(281,48)"/>
<path d="M0 0 C3.625 0.25 3.625 0.25 5.625 1.5 C6.625 3.25 6.625 3.25 6.375 5.375 C5.625 7.25 5.625 7.25 4.625 8.25 C-1.11111111 8.52314815 -1.11111111 8.52314815 -3.375 8.25 C-4.035 7.59 -4.695 6.93 -5.375 6.25 C-4.65485415 0.34480401 -4.65485415 0.34480401 0 0 Z " fill="#EDEDED" transform="translate(115.375,50.75)"/>
<path d="M0 0 C2.475 0.495 2.475 0.495 5 1 C5.125 3.375 5.125 3.375 5 6 C3 8 3 8 1.02880859 8.22705078 C0.24328613 8.21657715 -0.54223633 8.20610352 -1.3515625 8.1953125 C-2.20234375 8.18886719 -3.053125 8.18242188 -3.9296875 8.17578125 C-5.26386719 8.15064453 -5.26386719 8.15064453 -6.625 8.125 C-7.97078125 8.11146484 -7.97078125 8.11146484 -9.34375 8.09765625 C-11.56276586 8.0740497 -13.78125077 8.0411231 -16 8 C-15.67 7.01 -15.34 6.02 -15 5 C-9.72 5 -4.44 5 1 5 C0.67 3.35 0.34 1.7 0 0 Z " fill="#080808" transform="translate(100,54)"/>
<path d="M0 0 C0 0.99 0 1.98 0 3 C-3.63 3.33 -7.26 3.66 -11 4 C-11.33 7.3 -11.66 10.6 -12 14 C-12.99 14 -13.98 14 -15 14 C-15.60402685 5.20805369 -15.60402685 5.20805369 -13.6875 1.375 C-9.32237279 -0.8583209 -4.80626028 -0.2983196 0 0 Z " fill="#090909" transform="translate(260,48)"/>
<path d="M0 0 C0 0.99 0 1.98 0 3 C-0.71027344 3.06058594 -1.42054688 3.12117188 -2.15234375 3.18359375 C-3.07144531 3.26738281 -3.99054688 3.35117187 -4.9375 3.4375 C-6.31228516 3.55931641 -6.31228516 3.55931641 -7.71484375 3.68359375 C-9.96159732 3.76044976 -9.96159732 3.76044976 -11 5 C-11.23192865 6.51469448 -11.41215238 8.03754562 -11.5625 9.5625 C-11.64628906 10.38878906 -11.73007813 11.21507812 -11.81640625 12.06640625 C-11.87699219 12.70449219 -11.93757812 13.34257813 -12 14 C-12.99 14 -13.98 14 -15 14 C-15.60402685 5.20805369 -15.60402685 5.20805369 -13.6875 1.375 C-9.32237279 -0.8583209 -4.80626028 -0.2983196 0 0 Z " fill="#090909" transform="translate(173,48)"/>
<path d="M0 0 C0.99 0 1.98 0 3 0 C3.33 4.62 3.66 9.24 4 14 C5.32 14 6.64 14 8 14 C8 14.99 8 15.98 8 17 C5.125 17.1875 5.125 17.1875 2 17 C-0.49118953 13.2632157 -0.2065226 11.25548181 -0.125 6.8125 C-0.10695313 5.54019531 -0.08890625 4.26789062 -0.0703125 2.95703125 C-0.04710938 1.98121094 -0.02390625 1.00539062 0 0 Z " fill="#0E0E0E" transform="translate(127,45)"/>
<path d="M0 0 C0.66 0 1.32 0 2 0 C2 2.31 2 4.62 2 7 C-0.88415883 8.44207941 -3.41721528 8.09394887 -6.625 8.0625 C-7.81351563 8.05347656 -9.00203125 8.04445313 -10.2265625 8.03515625 C-11.14179688 8.02355469 -12.05703125 8.01195312 -13 8 C-13 7.67 -13 7.34 -13 7 C-9.04 7 -5.08 7 -1 7 C-1 6.01 -1 5.02 -1 4 C-4.96 4 -8.92 4 -13 4 C-13.33 3.34 -13.66 2.68 -14 2 C-9.38 2 -4.76 2 0 2 C0 1.34 0 0.68 0 0 Z " fill="#DBDBDB" transform="translate(243,55)"/>
<path d="M0 0 C3.63 0 7.26 0 11 0 C11 1.32 11 2.64 11 4 C7.37 4 3.74 4 0 4 C0 2.68 0 1.36 0 0 Z " fill="#ECECEC" transform="translate(265,51)"/>
<path d="M0 0 C3.63 0 7.26 0 11 0 C11 0.99 11 1.98 11 3 C7.37 3 3.74 3 0 3 C0 2.01 0 1.02 0 0 Z " fill="#FCFCFC" transform="translate(141,56)"/>
<path d="M0 0 C2.97 0 5.94 0 9 0 C9.33 0.99 9.66 1.98 10 3 C6.37 3 2.74 3 -1 3 C-0.67 2.01 -0.34 1.02 0 0 Z " fill="#DBDBDB" transform="translate(230,51)"/>
</svg>
