<?xml version="1.0" encoding="UTF-8"?>
<svg version="1.1" xmlns="http://www.w3.org/2000/svg" width="133" height="37">
<path d="M0 0 C1.98 0 3.96 0 6 0 C6.33 1.98 6.66 3.96 7 6 C7.53625 5.01 8.0725 4.02 8.625 3 C9.40875 2.01 10.1925 1.02 11 0 C14.25 -0.375 14.25 -0.375 17 0 C17.33 1.98 17.66 3.96 18 6 C18.556875 5.01 19.11375 4.02 19.6875 3 C22 0 22 0 24.75 -0.375 C25.86375 -0.189375 25.86375 -0.189375 27 0 C25.68773508 4.23962514 24.01806376 8.05233556 22 12 C22.98735996 9.98326477 24.01621012 7.98680099 25.0625 6 C25.63097656 4.88625 26.19945313 3.7725 26.78515625 2.625 C27.51605469 1.75875 28.24695313 0.8925 29 0 C31.31 0 33.62 0 36 0 C36.33 6.6 36.66 13.2 37 20 C37.71027344 18.64003906 38.42054687 17.28007812 39.15234375 15.87890625 C40.08063186 14.10671986 41.00902257 12.33458721 41.9375 10.5625 C42.64036133 9.21575195 42.64036133 9.21575195 43.35742188 7.84179688 C43.80537109 6.98779297 44.25332031 6.13378906 44.71484375 5.25390625 C45.12855225 4.46314697 45.54226074 3.6723877 45.96850586 2.85766602 C47 1 47 1 48 0 C50.31 0 52.62 0 55 0 C55.495 9.405 55.495 9.405 56 19 C57.65 12.73 59.3 6.46 61 0 C63.578125 -0.061875 66.15625 -0.12375 68.8125 -0.1875 C70.02450073 -0.22846802 70.02450073 -0.22846802 71.26098633 -0.27026367 C76.49711979 -0.33135518 76.49711979 -0.33135518 79.015625 1.328125 C80 3 80 3 79.9375 5.9375 C78.88944433 9.36114852 77.78969296 10.80206009 75 13 C74.34 13 73.68 13 73 13 C73.495 13.78375 73.99 14.5675 74.5 15.375 C76 18 76 18 76 20 C76.66 20 77.32 20 78 20 C78.103125 18.9275 78.20625 17.855 78.3125 16.75 C79.1314319 11.09192503 80.61341592 5.5463363 82 0 C96.19 0 110.38 0 125 0 C124.67 1.65 124.34 3.3 124 5 C122.39318359 5.07347656 122.39318359 5.07347656 120.75390625 5.1484375 C119.35674361 5.22345294 117.9596095 5.2990013 116.5625 5.375 C115.85544922 5.4059375 115.14839844 5.436875 114.41992188 5.46875 C112.60760812 5.57280629 110.80182012 5.77919892 109 6 C108.67 6.66 108.34 7.32 108 8 C112.95 8 117.9 8 123 8 C122.67 9.65 122.34 11.3 122 13 C120.39318359 13.07347656 120.39318359 13.07347656 118.75390625 13.1484375 C117.35674361 13.22345294 115.9596095 13.2990013 114.5625 13.375 C113.85544922 13.4059375 113.14839844 13.436875 112.41992188 13.46875 C110.60760812 13.57280629 108.80182012 13.77919892 107 14 C106.67 14.66 106.34 15.32 106 16 C110.62 16 115.24 16 120 16 C119.67 18.31 119.34 20.62 119 23 C79.4 23 39.8 23 -1 23 C-1 7 -1 7 0 0 Z M66 5 C65.67 5.99 65.34 6.98 65 8 C67.64 8 70.28 8 73 8 C73.33 7.01 73.66 6.02 74 5 C71.36 5 68.72 5 66 5 Z M102 3 C102 3.66 102 4.32 102 5 C97.05 5 92.1 5 87 5 C87 5.99 87 6.98 87 8 C91.62 8 96.24 8 101 8 C100.67 9.65 100.34 11.3 100 13 C95.05 13 90.1 13 85 13 C84.67 13.99 84.34 14.98 84 16 C88.95 16 93.9 16 99 16 C99.33 16.66 99.66 17.32 100 18 C100.53293835 16.25364835 101.05090663 14.50272348 101.5625 12.75 C101.85253906 11.77546875 102.14257812 10.8009375 102.44140625 9.796875 C102.99249836 7.03756068 102.93789609 5.6087176 102 3 Z M30 10 C29.67 10.99 29.34 11.98 29 13 C29.66 13 30.32 13 31 13 C30.67 12.01 30.34 11.02 30 10 Z M49 10 C48.67 10.99 48.34 11.98 48 13 C48.66 13 49.32 13 50 13 C49.67 12.01 49.34 11.02 49 10 Z M64 11 C63.34 14.3 62.68 17.6 62 21 C64.64 21 67.28 21 70 21 C68.35 17.7 66.7 14.4 65 11 C64.67 11 64.34 11 64 11 Z M9 13 C7.68 15.64 6.36 18.28 5 21 C6.65 21 8.3 21 10 21 C10 18.36 10 15.72 10 13 C9.67 13 9.34 13 9 13 Z M26 18 C25.67 18.99 25.34 19.98 25 21 C26.98 21 28.96 21 31 21 C31 20.01 31 19.02 31 18 C29.35 18 27.7 18 26 18 Z M45 18 C44.67 18.99 44.34 19.98 44 21 C45.98 21 47.96 21 50 21 C50 20.01 50 19.02 50 18 C48.35 18 46.7 18 45 18 Z M98 18 C99 21 99 21 99 21 Z " fill="#0CAF2A" transform="translate(1,0)"/>
<path d="M0 0 C0.66 0 1.32 0 2 0 C2 0.66 2 1.32 2 2 C2.99 2.33 3.98 2.66 5 3 C5 4.98 5 6.96 5 9 C4.01 9.33 3.02 9.66 2 10 C2 8.68 2 7.36 2 6 C1.34 7.32 0.68 8.64 0 10 C-3.3 10 -6.6 10 -10 10 C-10 9.01 -10 8.02 -10 7 C-10.99 8.485 -10.99 8.485 -12 10 C-14 10 -16 10 -18 10 C-18.33 7.69 -18.66 5.38 -19 3 C-16.33333333 3 -13.66666667 3 -11 3 C-8.65343526 2.47943103 -6.3442831 1.86673399 -4.0234375 1.2421875 C-3.02183594 1.12230469 -3.02183594 1.12230469 -2 1 C-1.34 1.66 -0.68 2.32 0 3 C0 2.01 0 1.02 0 0 Z M-3 4 C-3.33 5.32 -3.66 6.64 -4 8 C-3.01 8 -2.02 8 -1 8 C-1 6.68 -1 5.36 -1 4 C-1.66 4 -2.32 4 -3 4 Z " fill="#E21D23" transform="translate(60,27)"/>
<path d="M0 0 C3 1 3 1 5 3 C5.125 6.125 5.125 6.125 5 9 C4.01 9.33 3.02 9.66 2 10 C2 8.68 2 7.36 2 6 C1.67 7.32 1.34 8.64 1 10 C-1.31 10 -3.62 10 -6 10 C-6 7.69 -6 5.38 -6 3 C-4.68 2.34 -3.36 1.68 -2 1 C-2 1.66 -2 2.32 -2 3 C-1.34 3 -0.68 3 0 3 C0 2.01 0 1.02 0 0 Z M-3 4 C-3.33 5.32 -3.66 6.64 -4 8 C-3.01 8 -2.02 8 -1 8 C-1 6.68 -1 5.36 -1 4 C-1.66 4 -2.32 4 -3 4 Z " fill="#E21C23" transform="translate(75,27)"/>
<path d="M0 0 C4.55555556 0.55555556 4.55555556 0.55555556 6 2 C6.125 5.5 6.125 5.5 6 9 C5 10 5 10 2.0625 10.25 C1.051875 10.1675 0.04125 10.085 -1 10 C-3 7 -3 7 -2.75 4.4375 C-2 2 -2 2 0 0 Z M1 2 C-0.29633621 3.06645115 -0.29633621 3.06645115 -0.0625 5.5625 C-0.041875 6.366875 -0.02125 7.17125 0 8 C1.32 7.67 2.64 7.34 4 7 C4 5.68 4 4.36 4 3 C3.01 2.67 2.02 2.34 1 2 Z " fill="#E21D23" transform="translate(16,27)"/>
<path d="M0 0 C1.65 0.33 3.3 0.66 5 1 C5 1.66 5 2.32 5 3 C4.01 3 3.02 3 2 3 C2.99 3.66 3.98 4.32 5 5 C4.67 6.65 4.34 8.3 4 10 C2.35 10 0.7 10 -1 10 C-1 9.34 -1 8.68 -1 8 C-0.01 7.67 0.98 7.34 2 7 C1.01 6.34 0.02 5.68 -1 5 C-0.67 3.35 -0.34 1.7 0 0 Z " fill="#E21D23" transform="translate(92,27)"/>
<path d="M0 0 C0 2.31 0 4.62 0 7 C-0.66 7 -1.32 7 -2 7 C-2 5.35 -2 3.7 -2 2 C-2.66 2 -3.32 2 -4 2 C-4 3.65 -4 5.3 -4 7 C-4.99 7 -5.98 7 -7 7 C-7 4.69 -7 2.38 -7 0 C-3.86650268 -1.04449911 -3.01031744 -0.93423645 0 0 Z " fill="#E21E23" transform="translate(30,30)"/>
<path d="M0 0 C0.66 0 1.32 0 2 0 C2 1.65 2 3.3 2 5 C2.66 5 3.32 5 4 5 C4 3.35 4 1.7 4 0 C4.99 0 5.98 0 7 0 C7 2.31 7 4.62 7 7 C4.69 7 2.38 7 0 7 C0 4.69 0 2.38 0 0 Z " fill="#E21D24" transform="translate(98,30)"/>
<path d="M0 0 C2.125 0.375 2.125 0.375 4 1 C4.93423645 4.01031744 5.04449911 4.86650268 4 8 C2.33388095 8.042721 0.66617115 8.04063832 -1 8 C-2 7 -2 7 -2.1875 4.5625 C-2 2 -2 2 0 0 Z " fill="#E21D23" transform="translate(33,29)"/>
<path d="M0 0 C0 2.31 0 4.62 0 7 C-0.66 7 -1.32 7 -2 7 C-2 5.35 -2 3.7 -2 2 C-2.66 2 -3.32 2 -4 2 C-4 3.65 -4 5.3 -4 7 C-4.66 7 -5.32 7 -6 7 C-6 4.69 -6 2.38 -6 0 C-3.50907189 -1.24546405 -2.58919267 -0.7767578 0 0 Z " fill="#E21D23" transform="translate(112,30)"/>
<path d="M0 0 C0.99 0.33 1.98 0.66 3 1 C2.67 3.31 2.34 5.62 2 8 C0.35 7.67 -1.3 7.34 -3 7 C-3.1875 4.625 -3.1875 4.625 -3 2 C-2.01 1.34 -1.02 0.68 0 0 Z " fill="#E21D23" transform="translate(84,29)"/>
<path d="M0 0 C1.2065625 0.0309375 1.2065625 0.0309375 2.4375 0.0625 C3.5625 3.8125 3.5625 3.8125 2.4375 6.0625 C0.7875 6.0625 -0.8625 6.0625 -2.5625 6.0625 C-2.94468767 4.40635343 -3.27645102 2.73792976 -3.5625 1.0625 C-2.5625 0.0625 -2.5625 0.0625 0 0 Z M-2.5625 2.0625 C-1.5625 4.0625 -1.5625 4.0625 -1.5625 4.0625 Z " fill="#0CAF2A" transform="translate(129.5625,-0.0625)"/>
<path d="M0 0 C0.66 0 1.32 0 2 0 C2 0.66 2 1.32 2 2 C1.34 2 0.68 2 0 2 C0 1.34 0 0.68 0 0 Z " fill="#E31E24" transform="translate(52,27)"/>
</svg>
